ply
format ascii 1.0
comment Created by Blender 3.6.2 - www.blender.org
element vertex 80
property float x
property float y
property float z
property float nx
property float ny
property float nz
element face 128
property list uchar uint vertex_indices
end_header
-0.501455 3.739395 -2.045559 0.350408 -0.925282 -0.145147
-0.513437 3.731908 -2.031447 0.339950 -0.940444 -0.000000
-0.515118 3.731908 -2.039899 0.314078 -0.940443 -0.130087
-0.483495 3.744516 -2.031447 0.164336 -0.986404 0.000001
-0.480395 3.744818 -2.054282 0.036489 -0.999220 -0.015114
-0.475853 3.744818 -2.031447 0.039497 -0.999220 0.000001
-0.498648 3.739395 -2.031447 0.379278 -0.925283 0.000000
-0.487456 3.744516 -2.051358 0.151829 -0.986404 -0.062893
-0.487456 3.744516 -2.011537 0.151833 -0.986403 0.062893
-0.480395 3.744818 -2.008613 0.036489 -0.999220 0.015114
-0.501455 3.739395 -2.017336 0.350411 -0.925281 0.145145
-0.530004 3.728761 -2.029161 0.177107 -0.981453 0.073375
-0.529549 3.728761 -2.031447 0.191703 -0.981453 0.000013
-0.515118 3.731908 -2.022995 0.314074 -0.940442 0.130103
-0.493330 3.744818 -1.989254 0.027928 -0.999220 0.027928
-0.498734 3.744516 -1.994658 0.116205 -0.986404 0.116206
-0.509448 3.739395 -2.005373 0.268193 -0.925283 0.268186
-0.531299 3.728761 -2.027223 0.135555 -0.981453 0.135553
-0.519906 3.731908 -2.015830 0.240381 -0.940443 0.240382
-0.515613 3.744516 -1.983380 0.062892 -0.986403 0.151832
-0.512688 3.744818 -1.976320 0.015116 -0.999220 0.036491
-0.521412 3.739395 -1.997379 0.145144 -0.925281 0.350410
-0.533237 3.728761 -2.025928 0.073374 -0.981454 0.177102
-0.527071 3.731908 -2.011042 0.130101 -0.940441 0.314075
-0.535523 3.744516 -1.979419 0.000001 -0.986404 0.164336
-0.535523 3.744818 -1.971777 0.000000 -0.999220 0.039497
-0.535523 3.739395 -1.994572 0.000002 -0.925283 0.379277
-0.535523 3.728761 -2.025473 0.000000 -0.981454 0.191698
-0.535523 3.731908 -2.009361 0.000001 -0.940443 0.339951
-0.555433 3.744516 -1.983380 -0.062892 -0.986404 0.151831
-0.558358 3.744818 -1.976319 -0.015113 -0.999220 0.036487
-0.549634 3.739395 -1.997379 -0.145146 -0.925281 0.350411
-0.543975 3.731908 -2.011042 -0.130098 -0.940443 0.314073
-0.537809 3.728761 -2.025928 -0.073375 -0.981453 0.177102
-0.572312 3.744516 -1.994658 -0.116205 -0.986404 0.116205
-0.577716 3.744818 -1.989254 -0.027928 -0.999220 0.027927
-0.561598 3.739395 -2.005373 -0.268196 -0.925281 0.268189
-0.539747 3.728761 -2.027223 -0.135556 -0.981453 0.135554
-0.551140 3.731908 -2.015830 -0.240375 -0.940446 0.240379
-0.583590 3.744516 -2.011537 -0.151831 -0.986404 0.062892
-0.590651 3.744818 -2.008612 -0.036486 -0.999220 0.015114
-0.569591 3.739395 -2.017336 -0.350415 -0.925280 0.145144
-0.541042 3.728761 -2.029161 -0.177100 -0.981454 0.073379
-0.555928 3.731908 -2.022995 -0.314075 -0.940442 0.130096
-0.595193 3.744818 -2.031447 -0.039497 -0.999220 0.000001
-0.587551 3.744516 -2.031447 -0.164336 -0.986404 0.000003
-0.572398 3.739395 -2.031447 -0.379278 -0.925283 0.000002
-0.541497 3.728761 -2.031447 -0.191699 -0.981454 0.000041
-0.557609 3.731908 -2.031447 -0.339952 -0.940443 0.000004
-0.583591 3.744516 -2.051357 -0.151822 -0.986405 -0.062888
-0.590651 3.744818 -2.054282 -0.036491 -0.999220 -0.015116
-0.569591 3.739395 -2.045558 -0.350410 -0.925282 -0.145140
-0.541043 3.728761 -2.033733 -0.177117 -0.981454 -0.073337
-0.555928 3.731908 -2.039899 -0.314079 -0.940440 -0.130105
-0.577716 3.744818 -2.073640 -0.027928 -0.999220 -0.027928
-0.572312 3.744516 -2.068236 -0.116211 -0.986403 -0.116208
-0.561598 3.739395 -2.057522 -0.268197 -0.925284 -0.268179
-0.539748 3.728761 -2.035671 -0.135545 -0.981452 -0.135573
-0.551140 3.731908 -2.047064 -0.240380 -0.940446 -0.240373
-0.555433 3.744516 -2.079515 -0.062888 -0.986404 -0.151829
-0.558358 3.744818 -2.086575 -0.015115 -0.999220 -0.036491
-0.549635 3.739395 -2.065515 -0.145138 -0.925284 -0.350406
-0.537809 3.728761 -2.036966 -0.073361 -0.981452 -0.177117
-0.543975 3.731908 -2.051852 -0.130092 -0.940444 -0.314071
-0.535523 3.744818 -2.091117 0.000000 -0.999220 -0.039499
-0.535523 3.744516 -2.083475 0.000000 -0.986404 -0.164338
-0.535523 3.739395 -2.068322 0.000001 -0.925284 -0.379275
-0.535523 3.728761 -2.037421 -0.000041 -0.981453 -0.191701
-0.535523 3.731908 -2.053533 -0.000001 -0.940442 -0.339953
-0.515613 3.744516 -2.079515 0.062889 -0.986404 -0.151826
-0.512689 3.744818 -2.086575 0.015116 -0.999220 -0.036492
-0.521412 3.739395 -2.065515 0.145138 -0.925283 -0.350408
-0.533237 3.728761 -2.036967 0.073357 -0.981457 -0.177092
-0.527071 3.731908 -2.051852 0.130087 -0.940441 -0.314082
-0.498734 3.744516 -2.068236 0.116208 -0.986403 -0.116207
-0.493330 3.744818 -2.073640 0.027927 -0.999220 -0.027928
-0.509449 3.739395 -2.057522 0.268188 -0.925281 -0.268200
-0.519906 3.731908 -2.047065 0.240380 -0.940441 -0.240392
-0.531299 3.728761 -2.035671 0.135560 -0.981454 -0.135538
-0.530004 3.728761 -2.033734 0.177092 -0.981455 -0.073381
3 0 1 2
3 3 4 5
3 6 7 3
3 8 5 9
3 10 3 8
3 1 11 12
3 6 13 1
3 8 14 15
3 16 8 15
3 13 17 11
3 10 18 13
3 19 14 20
3 21 15 19
3 18 22 17
3 18 21 23
3 24 20 25
3 26 19 24
3 23 27 22
3 21 28 23
3 29 25 30
3 31 24 29
3 27 32 33
3 26 32 28
3 34 30 35
3 36 29 34
3 32 37 33
3 32 36 38
3 39 35 40
3 41 34 39
3 38 42 37
3 36 43 38
3 39 44 45
3 46 39 45
3 43 47 42
3 41 48 43
3 49 44 50
3 51 45 49
3 48 52 47
3 46 53 48
3 49 54 55
3 51 55 56
3 53 57 52
3 51 58 53
3 59 54 60
3 56 59 61
3 58 62 57
3 56 63 58
3 59 64 65
3 66 59 65
3 63 67 62
3 61 68 63
3 69 64 70
3 66 69 71
3 68 72 67
3 66 73 68
3 74 70 75
3 76 69 74
3 72 77 78
3 71 77 73
3 2 12 79
3 7 75 4
3 0 74 7
3 77 79 78
3 77 0 2
3 6 1 0
3 7 4 3
3 0 7 6
3 3 5 8
3 6 3 10
3 13 11 1
3 10 13 6
3 9 14 8
3 10 8 16
3 18 17 13
3 16 18 10
3 15 14 19
3 16 15 21
3 23 22 18
3 16 21 18
3 19 20 24
3 21 19 26
3 28 27 23
3 26 28 21
3 24 25 29
3 26 24 31
3 28 32 27
3 31 32 26
3 29 30 34
3 31 29 36
3 38 37 32
3 31 36 32
3 34 35 39
3 36 34 41
3 43 42 38
3 41 43 36
3 40 44 39
3 41 39 46
3 48 47 43
3 46 48 41
3 45 44 49
3 46 45 51
3 53 52 48
3 51 53 46
3 50 54 49
3 49 55 51
3 58 57 53
3 56 58 51
3 55 54 59
3 55 59 56
3 63 62 58
3 61 63 56
3 60 64 59
3 61 59 66
3 68 67 63
3 66 68 61
3 65 64 69
3 65 69 66
3 73 72 68
3 71 73 66
3 69 70 74
3 71 69 76
3 73 77 72
3 76 77 71
3 1 12 2
3 74 75 7
3 76 74 0
3 2 79 77
3 76 0 77
