ply
format ascii 1.0
comment Created by Blender 3.6.2 - www.blender.org
element vertex 90
property float x
property float y
property float z
property float nx
property float ny
property float nz
element face 112
property list uchar uint vertex_indices
end_header
2.463189 3.927811 -3.856789 -0.922256 -0.273305 0.273403
2.465521 3.925377 -4.750465 -0.722046 -0.691845 -0.000000
2.465521 3.925376 -3.854355 -0.827927 -0.396592 0.396550
2.463548 3.930245 -4.745596 -0.959385 0.282101 0.000000
2.463548 3.930245 -3.859223 -0.979059 0.143947 -0.143954
2.469181 3.937544 -3.866522 -0.905013 0.300791 -0.300791
2.471762 3.943754 -3.872732 -0.978575 0.145587 -0.145586
2.469181 3.937544 -4.738297 -0.832800 0.553574 0.000000
2.471608 3.950165 -4.725677 -0.984690 -0.174317 -0.000000
2.471608 3.950164 -3.879143 -0.992256 -0.087833 0.087828
2.468680 3.954525 -4.721316 -0.883196 -0.469005 -0.000000
2.468680 3.954525 -3.883503 -0.936183 -0.248532 0.248584
2.468086 3.957609 -3.886587 -0.999993 -0.002668 0.002662
2.469862 3.960692 -3.889671 -0.880002 0.335902 -0.335806
2.468086 3.957609 -4.718233 -0.999986 -0.005340 0.000000
2.473609 3.963429 -3.892407 -0.828786 0.395622 -0.395723
2.469862 3.960693 -4.715149 -0.794914 0.606723 0.000000
2.474390 3.966121 -4.709721 -0.998728 -0.050416 -0.000000
2.474390 3.966120 -3.895099 -0.999366 -0.025146 0.025186
2.472310 3.967768 -4.708074 -0.756398 -0.654112 -0.000001
2.472310 3.967768 -3.896746 -0.853189 -0.368759 0.368897
2.471809 3.970388 -3.899367 -0.999197 0.028308 -0.028352
2.474214 3.973128 -4.702713 -0.498890 0.866665 0.000000
2.474214 3.973128 -3.902107 -0.631386 0.548344 -0.548335
2.479687 3.973337 -3.902315 -0.053768 0.706050 -0.706118
2.463190 5.026796 -3.856789 -0.922263 0.273331 0.273353
2.465521 5.029230 -3.854355 -0.828021 0.396477 0.396467
2.463548 5.024362 -3.859223 -0.979111 -0.143773 -0.143775
2.469181 5.017063 -3.866522 -0.905012 -0.300798 -0.300788
2.471762 5.010853 -3.872732 -0.978570 -0.145598 -0.145612
2.471609 5.004442 -3.879143 -0.992262 0.087795 0.087793
2.468680 5.000082 -3.883503 -0.936136 0.248639 0.248650
2.468086 4.996998 -3.886587 -0.999993 0.002668 0.002672
2.469862 4.993914 -3.889671 -0.880005 -0.335869 -0.335833
2.473609 4.991178 -3.892407 -0.828763 -0.395687 -0.395707
2.474390 4.988486 -3.895099 -0.999364 0.025220 0.025210
2.472310 4.986839 -3.896746 -0.853190 0.368826 0.368828
2.471810 4.984218 -3.899367 -0.999189 -0.028457 -0.028472
2.474214 4.981478 -3.902107 -0.631492 -0.548284 -0.548272
2.479688 4.981270 -3.902315 -0.053697 -0.706068 -0.706105
2.465521 5.029230 -4.750465 -0.722256 0.691626 0.000000
2.463190 5.026796 -4.748031 -0.860205 0.509949 0.000000
2.463548 5.024362 -4.745596 -0.959481 -0.281772 0.000000
2.469181 5.017063 -4.738297 -0.832798 -0.553576 0.000000
2.471762 5.010853 -4.732088 -0.958463 -0.285216 0.000000
2.471609 5.004442 -4.725677 -0.984704 0.174233 0.000000
2.468680 5.000082 -4.721316 -0.883144 0.469102 0.000000
2.468086 4.996998 -4.718233 -0.999986 0.005324 0.000000
2.469862 4.993914 -4.715149 -0.794873 -0.606776 0.000000
2.473610 4.991178 -4.712412 -0.723253 -0.690583 -0.000000
2.474390 4.988486 -4.709721 -0.998715 0.050683 -0.000001
2.472310 4.986839 -4.708074 -0.756456 0.654045 0.000000
2.471810 4.984218 -4.705453 -0.998381 -0.056886 0.000000
2.474214 4.981479 -4.702713 -0.499033 -0.866583 -0.000000
2.479688 4.981270 -4.702505 -0.038214 -0.999270 0.000000
2.463189 3.927811 -4.748031 -0.860176 0.000000 -0.509998
2.465521 5.029230 -4.750465 -0.722188 0.000001 -0.691697
2.465521 3.925377 -4.750465 -0.722012 0.000000 -0.691881
2.463548 3.930245 -4.745596 -0.959393 0.000001 0.282073
2.463190 5.026796 -4.748031 -0.860215 0.000001 -0.509932
2.469181 3.937544 -4.738297 -0.832780 0.000000 0.553604
2.463548 5.024362 -4.745596 -0.959491 0.000000 0.281738
2.471762 3.943754 -4.732088 -0.958458 0.000000 0.285233
2.469181 5.017063 -4.738297 -0.832778 0.000000 0.553606
2.471608 3.950165 -4.725677 -0.984690 0.000000 -0.174316
2.471762 5.010853 -4.732088 -0.958446 0.000000 0.285276
2.468680 5.000082 -4.721316 -0.883150 0.000001 -0.469090
2.468680 3.954525 -4.721316 -0.883218 0.000000 -0.468962
2.468086 4.996998 -4.718233 -0.999985 0.000000 -0.005410
2.468086 3.957609 -4.718233 -0.999985 0.000000 -0.005416
2.469862 4.993914 -4.715149 -0.794917 0.000000 0.606718
2.469862 3.960693 -4.715149 -0.794945 0.000000 0.606681
2.473609 3.963429 -4.712412 -0.723275 0.000000 0.690560
2.474390 4.988486 -4.709721 -0.998723 0.000001 -0.050516
2.474390 3.966121 -4.709721 -0.998735 0.000000 -0.050280
2.472310 4.986839 -4.708074 -0.756481 0.000000 -0.654015
2.472310 3.967768 -4.708074 -0.756416 0.000000 -0.654091
2.471810 4.984218 -4.705453 -0.998378 0.000000 0.056933
2.471809 3.970389 -4.705453 -0.998393 0.000001 0.056676
2.474214 3.973128 -4.702713 -0.498903 0.000001 0.866658
2.479687 3.973337 -4.702505 -0.037960 0.000000 0.999279
2.474214 4.981479 -4.702713 -0.499046 0.000000 0.866576
2.463189 3.927811 -4.748031 -0.860151 -0.510040 0.000000
2.471762 3.943754 -4.732088 -0.958471 0.285189 0.000000
2.473609 3.963429 -4.712412 -0.723250 0.690586 0.000000
2.471809 3.970389 -4.705453 -0.998394 0.056649 0.000000
2.479687 3.973337 -4.702505 -0.038134 0.999273 0.000000
2.471609 5.004442 -4.725677 -0.984705 0.000001 -0.174231
2.473610 4.991178 -4.712412 -0.723263 0.000001 0.690573
2.479688 4.981270 -4.702505 -0.037953 0.000000 0.999279
3 0 1 2
3 3 0 4
3 5 3 4
3 6 7 5
3 8 6 9
3 10 9 11
3 12 10 11
3 13 14 12
3 15 16 13
3 17 15 18
3 19 18 20
3 21 19 20
3 22 21 23
3 24 22 23
3 25 2 26
3 27 0 25
3 28 4 27
3 6 28 29
3 30 6 29
3 31 9 30
3 12 31 32
3 33 12 32
3 34 13 33
3 18 34 35
3 36 18 35
3 37 20 36
3 38 21 37
3 24 38 39
3 25 40 41
3 42 25 41
3 43 27 42
3 29 43 44
3 45 29 44
3 31 45 46
3 32 46 47
3 33 47 48
3 49 33 48
3 50 34 49
3 51 35 50
3 37 51 52
3 53 37 52
3 39 53 54
3 55 56 57
3 58 59 55
3 60 61 58
3 62 63 60
3 64 65 62
3 66 64 67
3 68 67 69
3 70 69 71
3 72 70 71
3 73 72 74
3 75 74 76
3 77 76 78
3 79 77 78
3 80 81 79
3 82 1 0
3 82 0 3
3 7 3 5
3 83 7 6
3 83 6 8
3 8 9 10
3 14 10 12
3 16 14 13
3 84 16 15
3 84 15 17
3 17 18 19
3 85 19 21
3 85 21 22
3 86 22 24
3 0 2 25
3 4 0 27
3 5 4 28
3 5 28 6
3 9 6 30
3 11 9 31
3 11 31 12
3 13 12 33
3 15 13 34
3 15 34 18
3 20 18 36
3 21 20 37
3 23 21 38
3 23 38 24
3 26 40 25
3 27 25 42
3 28 27 43
3 28 43 29
3 30 29 45
3 30 45 31
3 31 46 32
3 32 47 33
3 34 33 49
3 35 34 50
3 36 35 51
3 36 51 37
3 38 37 53
3 38 53 39
3 59 56 55
3 61 59 58
3 63 61 60
3 65 63 62
3 87 65 64
3 87 64 66
3 66 67 68
3 68 69 70
3 88 70 72
3 88 72 73
3 73 74 75
3 75 76 77
3 81 77 79
3 89 81 80
