ply
format ascii 1.0
comment Created by Blender 3.6.2 - www.blender.org
element vertex 171
property float x
property float y
property float z
property float nx
property float ny
property float nz
element face 224
property list uchar uint vertex_indices
end_header
-0.895186 0.545732 -3.423727 -0.149510 0.090773 0.984585
-0.866542 0.546436 -3.419828 -0.121053 0.088859 0.988661
-0.894852 0.551217 -3.424181 -0.150822 0.090705 0.984391
-0.866804 0.540936 -3.419366 -0.119826 0.088683 0.988826
-0.837956 0.542736 -3.416519 -0.082798 0.086898 0.992771
-0.838151 0.537225 -3.416053 -0.081485 0.086849 0.992883
-0.867066 0.535436 -3.418905 -0.118574 0.088490 0.988994
-0.838346 0.531714 -3.415587 -0.080163 0.086825 0.992993
-0.895520 0.540246 -3.423271 -0.148144 0.090820 0.984787
-0.240056 0.568339 -3.464301 -0.042480 0.084860 0.995487
-0.215498 0.566609 -3.462628 -0.078111 0.086309 0.993202
-0.239697 0.573827 -3.464754 -0.040090 0.084853 0.995587
-0.215926 0.561144 -3.462187 -0.080909 0.086567 0.992955
-0.190974 0.558527 -3.459433 -0.116195 0.089041 0.989227
-0.191438 0.553077 -3.458997 -0.119079 0.089270 0.988864
-0.216354 0.555679 -3.461745 -0.083672 0.086834 0.992703
-0.191902 0.547627 -3.458561 -0.121974 0.089484 0.988491
-0.240415 0.562852 -3.463849 -0.044755 0.084885 0.995385
-0.142037 0.537944 -3.449879 -0.184651 0.093229 0.978372
-0.119299 0.539025 -3.445321 -0.206340 0.093093 0.974042
-0.141653 0.543416 -3.450328 -0.183061 0.093214 0.978673
-0.119637 0.533540 -3.444869 -0.207100 0.093267 0.973864
-0.102475 0.536526 -3.441382 -0.204601 0.096442 0.974083
-0.102792 0.531110 -3.440910 -0.207334 0.098208 0.973328
-0.119975 0.528055 -3.444417 -0.207972 0.093438 0.973662
-0.103109 0.525694 -3.440439 -0.210872 0.100026 0.972383
-0.142422 0.532472 -3.449430 -0.186308 0.093245 0.978057
-0.453636 0.566343 -3.439961 0.194258 0.094057 0.976431
-0.479143 0.564813 -3.434784 0.187791 0.093795 0.977720
-0.478708 0.559357 -3.434344 0.187062 0.093827 0.977857
-0.454052 0.571806 -3.440405 0.194408 0.094097 0.976397
-0.429215 0.572448 -3.445449 0.193102 0.093386 0.976724
-0.429583 0.577926 -3.445900 0.192720 0.093253 0.976813
-0.428846 0.566970 -3.444998 0.193470 0.093490 0.976642
-0.453219 0.560880 -3.439518 0.194100 0.094021 0.976466
-0.478274 0.553902 -3.433903 0.186311 0.093870 0.977996
-0.747304 0.529931 -3.412587 -0.001733 0.085510 0.996336
-0.730293 0.535150 -3.413028 0.000004 0.085643 0.996326
-0.747260 0.535455 -3.413061 -0.001716 0.085489 0.996338
-0.730314 0.529626 -3.412553 -0.000012 0.085671 0.996323
-0.713569 0.535051 -3.413027 -0.000000 0.085660 0.996324
-0.713569 0.529527 -3.412552 -0.000000 0.085755 0.996316
-0.730335 0.524102 -3.412078 -0.000034 0.085721 0.996319
-0.713569 0.524004 -3.412076 -0.000000 0.085888 0.996305
-0.747348 0.524408 -3.412113 -0.001753 0.085537 0.996333
-0.784996 0.531666 -3.413102 -0.023343 0.085580 0.996058
-0.764715 0.535979 -3.413158 -0.009335 0.085445 0.996299
-0.784891 0.537187 -3.413574 -0.023630 0.085596 0.996050
-0.764786 0.530456 -3.412685 -0.009224 0.085444 0.996300
-0.764858 0.524932 -3.412212 -0.009115 0.085450 0.996301
-0.785100 0.526144 -3.412630 -0.023045 0.085552 0.996067
-0.560335 0.540936 -3.419367 0.119816 0.088681 0.988827
-0.589183 0.542736 -3.416520 0.082796 0.086925 0.992768
-0.588988 0.537225 -3.416054 0.081482 0.086963 0.992874
-0.560597 0.546436 -3.419828 0.121046 0.088669 0.988679
-0.531953 0.545732 -3.423727 0.149520 0.090765 0.984584
-0.532287 0.551217 -3.424182 0.150824 0.090862 0.984376
-0.531619 0.540246 -3.423272 0.148158 0.090674 0.984798
-0.560073 0.535436 -3.418905 0.118560 0.088698 0.988977
-0.588793 0.531714 -3.415587 0.080157 0.086974 0.992981
-0.810022 0.539546 -3.414564 -0.046222 0.085797 0.995240
-0.810166 0.534028 -3.414095 -0.045492 0.085877 0.995267
-0.810310 0.528511 -3.413625 -0.044752 0.085947 0.995294
-1.332035 0.530075 -3.439199 0.187756 0.115200 0.975437
-1.334650 0.533556 -3.439195 0.155302 0.115529 0.981088
-1.335145 0.529737 -3.438615 0.169754 0.126381 0.977349
-1.332379 0.535261 -3.439728 0.179750 0.107866 0.977780
-1.324347 0.531110 -3.440908 0.207325 0.098208 0.973330
-1.324664 0.536526 -3.441380 0.204541 0.096477 0.974092
-1.324030 0.525693 -3.440437 0.210905 0.099969 0.972381
-1.334086 0.526087 -3.438327 0.187435 0.116833 0.975304
-1.331692 0.524888 -3.438671 0.205395 0.112516 0.972190
-0.696825 0.529626 -3.412553 0.000012 0.085671 0.996323
-0.696846 0.535150 -3.413028 -0.000004 0.085643 0.996326
-0.679834 0.529931 -3.412587 0.001733 0.085510 0.996336
-0.679878 0.535455 -3.413061 0.001716 0.085489 0.996338
-0.679790 0.524408 -3.412113 0.001753 0.085537 0.996333
-0.696804 0.524102 -3.412078 0.000034 0.085721 0.996319
-0.948431 0.559357 -3.434343 -0.187071 0.093834 0.977854
-0.921961 0.557647 -3.429271 -0.173235 0.092665 0.980512
-0.947996 0.564813 -3.434783 -0.187811 0.093785 0.977717
-0.922360 0.552180 -3.428825 -0.172048 0.092541 0.980732
-0.922759 0.546712 -3.428379 -0.170829 0.092424 0.980956
-0.948865 0.553902 -3.433902 -0.186316 0.093866 0.977996
-0.662352 0.530456 -3.412685 0.009236 0.085438 0.996301
-0.662424 0.535979 -3.413158 0.009334 0.085447 0.996299
-0.642143 0.531666 -3.413102 0.023350 0.085494 0.996065
-0.642248 0.537187 -3.413574 0.023632 0.085610 0.996048
-0.642039 0.526144 -3.412631 0.023062 0.085397 0.996080
-0.662280 0.524932 -3.412212 0.009138 0.085450 0.996301
-1.260750 0.544900 -3.454740 0.153739 0.091736 0.983844
-1.285487 0.543416 -3.450326 0.183090 0.093195 0.978669
-1.285102 0.537944 -3.449877 0.184685 0.093147 0.978374
-1.261188 0.550357 -3.455180 0.151508 0.091499 0.984212
-1.235701 0.553077 -3.458995 0.119096 0.089153 0.988872
-1.236165 0.558527 -3.459431 0.116201 0.089017 0.989229
-1.235238 0.547627 -3.458560 0.122001 0.089306 0.988504
-1.260312 0.539443 -3.454299 0.156003 0.091970 0.983466
-1.284717 0.532472 -3.449429 0.186354 0.093076 0.978064
-0.616973 0.534028 -3.414095 0.045501 0.085900 0.995264
-0.617117 0.539546 -3.414565 0.046238 0.086000 0.995222
-0.616829 0.528511 -3.413626 0.044755 0.085777 0.995309
-1.045837 0.580360 -3.455148 -0.163300 0.089789 0.982482
-1.021726 0.582477 -3.451030 -0.182230 0.091655 0.978975
-1.045595 0.585866 -3.455611 -0.162385 0.089663 0.982645
-1.022041 0.576985 -3.450574 -0.182938 0.091825 0.978827
-0.997556 0.577926 -3.445899 -0.192706 0.093297 0.976811
-0.997924 0.572448 -3.445448 -0.193091 0.093378 0.976727
-1.022355 0.571494 -3.450117 -0.183629 0.091993 0.978681
-0.998293 0.566970 -3.444997 -0.193454 0.093461 0.976648
-1.046079 0.574854 -3.454685 -0.164198 0.089925 0.982320
-0.094760 0.535261 -3.439729 -0.179676 0.107683 0.977814
-0.095104 0.530075 -3.439201 -0.187755 0.115154 0.975442
-0.092489 0.533556 -3.439197 -0.155116 0.115385 0.981135
-0.093053 0.526087 -3.438329 -0.187472 0.116870 0.975293
-0.091994 0.529737 -3.438617 -0.169825 0.126413 0.977333
-0.095447 0.524888 -3.438673 -0.205390 0.112561 0.972186
-1.163110 0.573902 -3.465331 0.002855 0.083381 0.996514
-1.187442 0.573827 -3.464752 0.040120 0.084683 0.995600
-1.187083 0.568339 -3.464300 0.042492 0.084774 0.995494
-1.163398 0.579405 -3.465790 0.000959 0.083247 0.996529
-1.139360 0.578282 -3.465276 -0.039535 0.082692 0.995791
-1.139564 0.583798 -3.465741 -0.041111 0.082600 0.995734
-1.139157 0.572765 -3.464809 -0.037971 0.082813 0.995841
-1.162822 0.568398 -3.464871 0.004697 0.083488 0.996498
-1.186724 0.562852 -3.463848 0.044767 0.084842 0.995388
-0.504779 0.552180 -3.428826 0.172055 0.092547 0.980730
-0.505178 0.557647 -3.429272 0.173241 0.092626 0.980514
-0.504380 0.546712 -3.428380 0.170842 0.092454 0.980951
-1.115903 0.581930 -3.464132 -0.079536 0.083678 0.993314
-1.115999 0.587461 -3.464606 -0.080332 0.083914 0.993230
-1.092597 0.583833 -3.462001 -0.111068 0.085754 0.990106
-1.092573 0.589370 -3.462478 -0.110938 0.085747 0.990121
-1.092621 0.578297 -3.461524 -0.111227 0.085743 0.990089
-1.115808 0.576400 -3.463659 -0.078797 0.083466 0.993390
-0.165951 0.550357 -3.455182 -0.151467 0.091699 0.984200
-0.166389 0.544900 -3.454741 -0.153707 0.091838 0.983839
-0.166827 0.539443 -3.454300 -0.155980 0.091977 0.983469
-1.069158 0.588500 -3.459454 -0.137276 0.087669 0.986645
-1.069299 0.582976 -3.458982 -0.137996 0.087792 0.986534
-1.069439 0.577451 -3.458510 -0.138694 0.087906 0.986426
-0.405099 0.576985 -3.450575 0.182937 0.091823 0.978827
-0.405413 0.582477 -3.451031 0.182234 0.091587 0.978980
-0.381302 0.580360 -3.455149 0.163300 0.089786 0.982482
-0.381544 0.585866 -3.455612 0.162388 0.089661 0.982645
-0.381060 0.574854 -3.454686 0.164194 0.089930 0.982320
-0.404784 0.571494 -3.450118 0.183619 0.092066 0.978676
-1.211213 0.561144 -3.462185 0.080914 0.086639 0.992948
-1.211641 0.566609 -3.462627 0.078087 0.086495 0.993187
-1.210786 0.555679 -3.461743 0.083703 0.086770 0.992706
-0.287779 0.578282 -3.465277 0.039536 0.082707 0.995789
-0.263742 0.579405 -3.465792 -0.000918 0.083420 0.996514
-0.287575 0.583798 -3.465743 0.041123 0.082785 0.995719
-0.264030 0.573902 -3.465332 -0.002852 0.083363 0.996515
-0.264318 0.568398 -3.464873 -0.004736 0.083294 0.996514
-0.287982 0.572765 -3.464811 0.037958 0.082600 0.995860
-0.973087 0.571806 -3.440404 -0.194428 0.093943 0.976408
-0.973503 0.566343 -3.439961 -0.194257 0.094053 0.976431
-0.973920 0.560880 -3.439517 -0.194075 0.094178 0.976456
-0.334542 0.583833 -3.462002 0.111077 0.085766 0.990104
-0.311140 0.587461 -3.464607 0.080356 0.083759 0.993241
-0.334566 0.589370 -3.462479 0.110938 0.085790 0.990118
-0.311236 0.581930 -3.464134 0.079549 0.083681 0.993312
-0.311331 0.576400 -3.463660 0.078798 0.083608 0.993378
-0.334518 0.578297 -3.461525 0.111242 0.085755 0.990086
-1.307502 0.533540 -3.444867 0.207119 0.093166 0.973870
-1.307840 0.539025 -3.445319 0.206339 0.093092 0.974042
-1.307164 0.528055 -3.444416 0.208011 0.093247 0.973672
-0.357841 0.582976 -3.458983 0.137997 0.087772 0.986536
-0.357981 0.588500 -3.459455 0.137275 0.087649 0.986648
-0.357700 0.577451 -3.458511 0.138693 0.087888 0.986428
3 0 1 2
3 3 4 1
3 5 6 7
3 3 8 6
3 9 10 11
3 12 13 10
3 14 15 16
3 12 17 15
3 18 19 20
3 21 22 19
3 23 24 25
3 21 26 24
3 27 28 29
3 30 31 32
3 27 33 31
3 34 29 35
3 36 37 38
3 39 40 37
3 41 42 43
3 39 44 42
3 45 46 47
3 48 38 46
3 36 49 44
3 48 50 49
3 51 52 53
3 54 55 56
3 51 57 55
3 58 53 59
3 5 60 4
3 61 47 60
3 45 62 50
3 61 7 62
3 63 64 65
3 66 67 68
3 63 69 67
3 63 70 71
3 72 40 41
3 73 74 75
3 72 76 74
3 77 41 43
3 78 79 80
3 81 2 79
3 0 82 8
3 81 83 82
3 84 75 74
3 85 86 87
3 84 88 86
3 89 74 76
3 90 91 92
3 93 94 95
3 90 96 94
3 97 92 98
3 99 87 86
3 100 53 52
3 99 59 53
3 101 86 88
3 102 103 104
3 105 106 103
3 107 108 109
3 105 110 108
3 23 111 22
3 112 113 111
3 112 114 115
3 112 25 116
3 117 118 119
3 120 121 122
3 117 123 121
3 124 119 125
3 126 56 55
3 127 29 28
3 126 35 29
3 128 55 57
3 129 122 121
3 130 131 132
3 129 133 131
3 134 121 123
3 14 135 13
3 136 20 135
3 18 137 26
3 136 16 137
3 131 138 132
3 139 104 138
3 102 140 110
3 139 133 140
3 141 32 31
3 142 143 144
3 141 145 143
3 146 31 33
3 147 95 94
3 148 119 118
3 147 125 119
3 149 94 96
3 150 151 152
3 153 11 151
3 9 154 17
3 153 155 154
3 107 156 106
3 157 80 156
3 78 158 83
3 157 109 158
3 159 160 161
3 162 152 160
3 150 163 155
3 162 164 163
3 165 68 67
3 166 92 91
3 165 98 92
3 167 67 69
3 168 144 143
3 169 159 161
3 168 164 159
3 170 143 145
3 3 1 0
3 5 4 3
3 3 6 5
3 0 8 3
3 12 10 9
3 14 13 12
3 12 15 14
3 9 17 12
3 21 19 18
3 23 22 21
3 21 24 23
3 18 26 21
3 30 28 27
3 27 31 30
3 34 33 27
3 27 29 34
3 39 37 36
3 41 40 39
3 39 42 41
3 36 44 39
3 48 46 45
3 36 38 48
3 48 49 36
3 45 50 48
3 54 52 51
3 51 55 54
3 58 57 51
3 51 53 58
3 61 60 5
3 45 47 61
3 61 62 45
3 5 7 61
3 66 64 63
3 63 67 66
3 71 69 63
3 65 70 63
3 73 40 72
3 72 74 73
3 77 76 72
3 72 41 77
3 81 79 78
3 0 2 81
3 81 82 0
3 78 83 81
3 85 75 84
3 84 86 85
3 89 88 84
3 84 74 89
3 93 91 90
3 90 94 93
3 97 96 90
3 90 92 97
3 100 87 99
3 99 53 100
3 101 59 99
3 99 86 101
3 105 103 102
3 107 106 105
3 105 108 107
3 102 110 105
3 112 111 23
3 115 113 112
3 116 114 112
3 23 25 112
3 120 118 117
3 117 121 120
3 124 123 117
3 117 119 124
3 127 56 126
3 126 29 127
3 128 35 126
3 126 55 128
3 130 122 129
3 129 131 130
3 134 133 129
3 129 121 134
3 136 135 14
3 18 20 136
3 136 137 18
3 14 16 136
3 139 138 131
3 102 104 139
3 139 140 102
3 131 133 139
3 142 32 141
3 141 143 142
3 146 145 141
3 141 31 146
3 148 95 147
3 147 119 148
3 149 125 147
3 147 94 149
3 153 151 150
3 9 11 153
3 153 154 9
3 150 155 153
3 157 156 107
3 78 80 157
3 157 158 78
3 107 109 157
3 162 160 159
3 150 152 162
3 162 163 150
3 159 164 162
3 166 68 165
3 165 92 166
3 167 98 165
3 165 67 167
3 169 144 168
3 168 159 169
3 170 164 168
3 168 143 170
