ply
format ascii 1.0
comment Created by Blender 3.6.2 - www.blender.org
element vertex 90
property float x
property float y
property float z
property float nx
property float ny
property float nz
element face 112
property list uchar uint vertex_indices
end_header
-0.930489 5.741287 -5.119058 0.273332 -0.273291 0.922281
-1.762751 5.739020 -5.121229 0.000000 -0.691598 0.722282
-0.928222 5.739020 -5.121229 0.396458 -0.396462 0.828033
-0.932756 5.743554 -5.119392 -0.143840 0.143845 0.979091
-1.760484 5.741287 -5.119058 0.000000 -0.509805 0.860290
-1.751420 5.750351 -5.124637 0.000001 0.553603 0.832781
-0.939553 5.750351 -5.124637 -0.300775 0.300781 0.905022
-0.945337 5.756135 -5.127041 -0.145587 0.145585 0.978575
-1.739666 5.762105 -5.126898 0.000000 -0.174274 0.984697
-0.951307 5.762105 -5.126898 0.087814 -0.087817 0.992258
-1.735605 5.766166 -5.124171 -0.000000 -0.468931 0.883235
-0.955367 5.766166 -5.124171 0.248604 -0.248532 0.936177
-0.958239 5.769037 -5.123618 0.002626 -0.002672 0.999993
-1.729862 5.771910 -5.125272 0.000001 0.606720 0.794916
-0.961111 5.771909 -5.125272 -0.335812 0.335775 0.880049
-1.727313 5.774458 -5.128762 0.000001 0.690574 0.723262
-0.963660 5.774458 -5.128762 -0.395603 0.395629 0.828840
-0.966166 5.776964 -5.129488 0.025316 -0.025328 0.999359
-0.967700 5.778498 -5.127551 0.368808 -0.368804 0.853208
-1.724807 5.776965 -5.129488 -0.000000 -0.050724 0.998713
-0.970141 5.780939 -5.127085 -0.028481 0.028481 0.999189
-1.723273 5.778499 -5.127551 -0.000001 -0.654045 0.756456
-0.972692 5.783490 -5.129325 -0.548324 0.548318 0.631417
-1.720832 5.780939 -5.127085 0.000000 0.056823 0.998384
-1.718086 5.783685 -5.134422 0.000001 0.999276 0.038050
-0.972887 5.783685 -5.134422 -0.706077 0.706071 0.054026
-0.930489 6.764750 -5.119058 0.273319 0.273432 0.922243
-0.928222 6.767016 -5.121229 0.396568 0.396523 0.827951
-0.932756 6.762482 -5.119392 -0.143843 -0.143815 0.979095
-0.939553 6.755685 -5.124637 -0.300782 -0.300769 0.905024
-0.945337 6.749902 -5.127041 -0.145582 -0.145611 0.978572
-0.951307 6.743932 -5.126898 0.087817 0.087821 0.992258
-0.955367 6.739871 -5.124171 0.248594 0.248550 0.936175
-0.958239 6.736999 -5.123618 0.002627 0.002628 0.999993
-0.961111 6.734127 -5.125272 -0.335819 -0.335811 0.880032
-0.963660 6.731579 -5.128762 -0.395597 -0.395665 0.828826
-0.966166 6.729072 -5.129488 0.025263 0.025307 0.999361
-0.967700 6.727538 -5.127552 0.368767 0.368759 0.853245
-0.970141 6.725098 -5.127085 -0.028327 -0.028295 0.999198
-0.972692 6.722546 -5.129325 -0.548378 -0.548253 0.631427
-0.972887 6.722352 -5.134422 -0.706042 -0.706116 0.053894
-1.762751 6.767016 -5.121229 0.000000 0.691826 0.722064
-1.760484 6.764750 -5.119058 0.000000 0.510054 0.860142
-1.758217 6.762483 -5.119392 -0.000000 -0.281894 0.959446
-1.751420 6.755685 -5.124637 0.000000 -0.553514 0.832840
-1.745636 6.749902 -5.127041 0.000000 -0.285233 0.958458
-1.739666 6.743932 -5.126898 0.000000 0.174283 0.984696
-1.735605 6.739871 -5.124171 0.000000 0.468997 0.883200
-1.732734 6.737000 -5.123618 -0.000000 0.005301 0.999986
-1.729862 6.734128 -5.125272 -0.000000 -0.606662 0.794960
-1.727313 6.731579 -5.128762 0.000000 -0.690487 0.723345
-1.724807 6.729073 -5.129488 0.000000 0.050485 0.998725
-1.723273 6.727539 -5.127552 0.000001 0.653941 0.756546
-1.720832 6.725098 -5.127085 -0.000000 -0.056634 0.998395
-1.718281 6.722547 -5.129325 -0.000001 -0.866614 0.498979
-1.718086 6.722352 -5.134422 -0.000001 -0.999269 0.038235
-1.760484 5.741287 -5.119058 -0.509925 0.000000 0.860219
-1.762751 6.767016 -5.121229 -0.691655 0.000000 0.722228
-1.762751 5.739020 -5.121229 -0.691655 0.000000 0.722228
-1.758217 5.743555 -5.119392 0.281910 0.000000 0.959441
-1.760484 6.764750 -5.119058 -0.509870 0.000000 0.860252
-1.751420 6.755685 -5.124637 0.553554 0.000000 0.832813
-1.751420 5.750351 -5.124637 0.553555 0.000000 0.832813
-1.745636 5.756135 -5.127041 0.285188 0.000000 0.958471
-1.739666 5.762105 -5.126898 -0.174275 0.000000 0.984697
-1.745636 6.749902 -5.127041 0.285186 0.000000 0.958472
-1.735605 5.766166 -5.124171 -0.468994 0.000000 0.883202
-1.739666 6.743932 -5.126898 -0.174283 0.000000 0.984696
-1.732734 5.769038 -5.123618 -0.005311 0.000000 0.999986
-1.735605 6.739871 -5.124171 -0.468979 0.000000 0.883209
-1.729862 5.771910 -5.125272 0.606686 0.000000 0.794942
-1.732734 6.737000 -5.123618 -0.005298 0.000000 0.999986
-1.727313 6.731579 -5.128762 0.690492 0.000000 0.723340
-1.727313 5.774458 -5.128762 0.690521 0.000000 0.723313
-1.724807 5.776965 -5.129488 -0.050570 0.000000 0.998721
-1.723273 5.778499 -5.127551 -0.653964 0.000000 0.756526
-1.724807 6.729073 -5.129488 -0.050519 0.000000 0.998723
-1.720832 6.725098 -5.127085 0.056642 0.000001 0.998395
-1.720832 5.780939 -5.127085 0.056904 0.000000 0.998380
-1.718281 5.783491 -5.129325 0.866623 0.000000 0.498963
-1.718086 5.783685 -5.134422 0.999269 0.000000 0.038236
-1.718281 6.722547 -5.129325 0.866620 0.000000 0.498968
-1.758217 5.743555 -5.119392 0.000000 0.281891 0.959446
-1.745636 5.756135 -5.127041 0.000000 0.285189 0.958471
-1.732734 5.769038 -5.123618 -0.000000 -0.005244 0.999986
-1.718281 5.783491 -5.129325 0.000001 0.866599 0.499006
-1.758217 6.762483 -5.119392 0.281898 0.000000 0.959444
-1.729862 6.734128 -5.125272 0.606669 0.000000 0.794955
-1.723273 6.727539 -5.127552 -0.653933 0.000001 0.756553
-1.718086 6.722352 -5.134422 0.999269 0.000000 0.038236
3 0 1 2
3 3 4 0
3 5 3 6
3 7 5 6
3 8 7 9
3 10 9 11
3 12 10 11
3 13 12 14
3 15 14 16
3 17 15 16
3 18 19 17
3 20 21 18
3 22 23 20
3 24 22 25
3 26 2 27
3 28 0 26
3 6 28 29
3 30 6 29
3 9 30 31
3 32 9 31
3 33 11 32
3 14 33 34
3 16 34 35
3 36 16 35
3 37 17 36
3 20 37 38
3 39 20 38
3 40 22 39
3 26 41 42
3 43 26 42
3 29 43 44
3 45 29 44
3 46 30 45
3 47 31 46
3 48 32 47
3 49 33 48
3 35 49 50
3 51 35 50
3 52 36 51
3 53 37 52
3 39 53 54
3 55 39 54
3 56 57 58
3 59 60 56
3 61 59 62
3 63 61 62
3 64 65 63
3 66 67 64
3 68 69 66
3 70 71 68
3 72 70 73
3 74 72 73
3 75 76 74
3 77 75 78
3 79 77 78
3 80 81 79
3 4 1 0
3 82 4 3
3 82 3 5
3 83 5 7
3 83 7 8
3 8 9 10
3 84 10 12
3 84 12 13
3 13 14 15
3 19 15 17
3 21 19 18
3 23 21 20
3 85 23 22
3 85 22 24
3 0 2 26
3 3 0 28
3 3 28 6
3 7 6 30
3 7 30 9
3 11 9 32
3 12 11 33
3 12 33 14
3 14 34 16
3 17 16 36
3 18 17 37
3 18 37 20
3 22 20 39
3 25 22 40
3 27 41 26
3 28 26 43
3 28 43 29
3 30 29 45
3 31 30 46
3 32 31 47
3 33 32 48
3 34 33 49
3 34 49 35
3 36 35 51
3 37 36 52
3 38 37 53
3 38 53 39
3 40 39 55
3 60 57 56
3 86 60 59
3 86 59 61
3 65 61 63
3 67 65 64
3 69 67 66
3 71 69 68
3 87 71 70
3 87 70 72
3 76 72 74
3 88 76 75
3 88 75 77
3 81 77 79
3 89 81 80
