ply
format ascii 1.0
comment Created by Blender 3.6.2 - www.blender.org
element vertex 90
property float x
property float y
property float z
property float nx
property float ny
property float nz
element face 112
property list uchar uint vertex_indices
end_header
2.038910 3.927447 -5.117607 0.273339 -0.273334 0.922266
1.144890 3.925013 -5.119939 -0.000001 -0.691630 0.722252
2.041345 3.925012 -5.119939 0.396460 -0.396465 0.828031
2.036475 3.929883 -5.117965 -0.143785 0.143753 0.979112
1.147326 3.927448 -5.117607 -0.000001 -0.509912 0.860227
2.029173 3.937184 -5.123600 -0.300788 0.300822 0.905004
1.149761 3.929883 -5.117965 0.000000 0.281791 0.959476
1.163275 3.943397 -5.126183 0.000000 0.285319 0.958433
2.022961 3.943397 -5.126183 -0.145658 0.145629 0.978558
2.016547 3.949810 -5.126029 0.087860 -0.087865 0.992250
1.174050 3.954172 -5.123099 0.000000 -0.469075 0.883158
2.012186 3.954172 -5.123099 0.248655 -0.248601 0.936145
2.009100 3.957257 -5.122505 0.002580 -0.002603 0.999993
1.180220 3.960342 -5.124282 0.000000 0.606698 0.794932
2.006016 3.960342 -5.124282 -0.335902 0.335824 0.879995
2.003278 3.963079 -5.128030 -0.395593 0.395669 0.828826
2.000585 3.965772 -5.128811 0.025243 -0.025266 0.999362
1.182958 3.963080 -5.128030 0.000001 0.690497 0.723336
1.187298 3.967420 -5.126730 0.000000 -0.653962 0.756527
1.998938 3.967420 -5.126730 0.368917 -0.368766 0.853177
1.996316 3.970042 -5.126230 -0.028490 0.028476 0.999188
1.993575 3.972782 -5.128635 -0.548238 0.548338 0.631475
1.189920 3.970042 -5.126230 0.000000 0.056917 0.998379
1.993366 3.972991 -5.134111 -0.706081 0.706076 0.053905
1.192660 3.972783 -5.128635 0.000001 0.866596 0.499010
2.038910 5.026855 -5.117607 0.273298 0.273176 0.922325
2.041345 5.029291 -5.119939 0.396370 0.396422 0.828095
2.036475 5.024420 -5.117966 -0.143909 -0.143901 0.979072
2.029173 5.017118 -5.123600 -0.300765 -0.300772 0.905028
2.022961 5.010906 -5.126183 -0.145653 -0.145660 0.978554
2.016547 5.004493 -5.126029 0.087856 0.087863 0.992251
2.012186 5.000131 -5.123099 0.248657 0.248589 0.936148
2.009100 4.997046 -5.122505 0.002581 0.002605 0.999993
2.006016 4.993961 -5.124282 -0.335907 -0.335823 0.879994
2.003278 4.991223 -5.128031 -0.395614 -0.395607 0.828845
2.000585 4.988531 -5.128811 0.025387 0.025334 0.999357
1.998938 4.986883 -5.126730 0.368909 0.368798 0.853167
1.996316 4.984261 -5.126230 -0.028522 -0.028516 0.999186
1.993575 4.981521 -5.128636 -0.548292 -0.548399 0.631375
1.993366 4.981312 -5.134111 -0.706091 -0.706064 0.053946
1.147326 5.026855 -5.117607 0.000000 0.509654 0.860379
1.144890 5.029291 -5.119939 0.000000 0.691454 0.722421
1.149761 5.024420 -5.117966 0.000000 -0.282034 0.959404
1.157062 5.017118 -5.123600 0.000000 -0.553554 0.832813
1.163275 5.010906 -5.126183 0.000000 -0.285329 0.958430
1.169688 5.004493 -5.126029 0.000000 0.174364 0.984681
1.174050 5.000131 -5.123099 0.000000 0.469058 0.883167
1.177135 4.997046 -5.122505 0.000000 0.005228 0.999986
1.180220 4.993961 -5.124282 0.000000 -0.606714 0.794920
1.182958 4.991223 -5.128031 0.000000 -0.690513 0.723320
1.185650 4.988531 -5.128811 0.000000 0.050591 0.998719
1.187298 4.986883 -5.126730 0.000000 0.654031 0.756468
1.189920 4.984262 -5.126230 -0.000000 -0.056940 0.998378
1.192660 4.981521 -5.128636 0.000000 -0.866618 0.498972
1.192869 4.981312 -5.134111 0.000000 -0.999270 0.038206
1.147326 3.927448 -5.117607 -0.509744 0.000000 0.860326
1.144890 5.029291 -5.119939 -0.691471 0.000000 0.722404
1.144890 3.925013 -5.119939 -0.691472 0.000000 0.722404
1.149761 3.929883 -5.117965 0.281796 0.000000 0.959474
1.147326 5.026855 -5.117607 -0.509690 0.000000 0.860358
1.157062 5.017118 -5.123600 0.553560 0.000001 0.832809
1.157062 3.937185 -5.123600 0.553611 0.000000 0.832775
1.163275 3.943397 -5.126183 0.285275 0.000000 0.958446
1.169688 5.004493 -5.126029 -0.174364 0.000000 0.984681
1.169688 3.949810 -5.126029 -0.174367 0.000000 0.984681
1.174050 3.954172 -5.123099 -0.469069 0.000000 0.883162
1.177135 4.997046 -5.122505 -0.005238 0.000000 0.999986
1.177135 3.957257 -5.122505 -0.005233 0.000000 0.999986
1.180220 4.993961 -5.124282 0.606724 0.000000 0.794912
1.180220 3.960342 -5.124282 0.606690 0.000000 0.794939
1.182958 3.963080 -5.128030 0.690498 0.000000 0.723334
1.185650 3.965772 -5.128811 -0.050352 0.000001 0.998731
1.182958 4.991223 -5.128031 0.690502 0.000000 0.723331
1.187298 4.986883 -5.126730 -0.653966 0.000000 0.756524
1.187298 3.967420 -5.126730 -0.653985 0.000000 0.756508
1.189920 3.970042 -5.126230 0.056904 0.000000 0.998380
1.192660 3.972783 -5.128635 0.866616 0.000000 0.498976
1.189920 4.984262 -5.126230 0.056987 0.000000 0.998375
1.192869 3.972991 -5.134111 0.999273 0.000000 0.038134
1.192660 4.981521 -5.128636 0.866661 0.000000 0.498898
1.157062 3.937185 -5.123600 0.000001 0.553589 0.832790
1.169688 3.949810 -5.126029 0.000000 -0.174368 0.984681
1.177135 3.957257 -5.122505 0.000000 -0.005224 0.999986
1.185650 3.965772 -5.128811 0.000000 -0.050351 0.998731
1.192869 3.972991 -5.134111 0.000000 0.999280 0.037939
1.149761 5.024420 -5.117966 0.282044 0.000001 0.959401
1.163275 5.010906 -5.126183 0.285275 0.000000 0.958446
1.174050 5.000131 -5.123099 -0.469071 0.000000 0.883160
1.185650 4.988531 -5.128811 -0.050615 0.000000 0.998718
1.192869 4.981312 -5.134111 0.999272 0.000000 0.038141
3 0 1 2
3 3 4 0
3 5 6 3
3 7 5 8
3 9 7 8
3 10 9 11
3 12 10 11
3 13 12 14
3 15 13 14
3 16 17 15
3 18 16 19
3 20 18 19
3 21 22 20
3 23 24 21
3 25 2 26
3 27 0 25
3 28 3 27
3 8 28 29
3 30 8 29
3 31 9 30
3 12 31 32
3 33 12 32
3 15 33 34
3 35 15 34
3 19 35 36
3 37 19 36
3 21 37 38
3 39 21 38
3 40 26 41
3 42 25 40
3 28 42 43
3 44 28 43
3 30 44 45
3 46 30 45
3 32 46 47
3 48 32 47
3 49 33 48
3 35 49 50
3 36 50 51
3 52 36 51
3 38 52 53
3 54 38 53
3 55 56 57
3 58 59 55
3 60 58 61
3 62 60 61
3 63 62 64
3 65 63 64
3 66 65 67
3 68 67 69
3 70 68 69
3 71 72 70
3 73 71 74
3 75 73 74
3 76 77 75
3 78 79 76
3 4 1 0
3 6 4 3
3 80 6 5
3 80 5 7
3 81 7 9
3 81 9 10
3 82 10 12
3 82 12 13
3 17 13 15
3 83 17 16
3 83 16 18
3 22 18 20
3 24 22 21
3 84 24 23
3 0 2 25
3 3 0 27
3 5 3 28
3 5 28 8
3 9 8 30
3 11 9 31
3 11 31 12
3 14 12 33
3 14 33 15
3 16 15 35
3 16 35 19
3 20 19 37
3 20 37 21
3 23 21 39
3 25 26 40
3 27 25 42
3 27 42 28
3 29 28 44
3 29 44 30
3 31 30 46
3 31 46 32
3 33 32 48
3 34 33 49
3 34 49 35
3 35 50 36
3 37 36 52
3 37 52 38
3 39 38 54
3 59 56 55
3 85 59 58
3 85 58 60
3 86 60 62
3 86 62 63
3 87 63 65
3 87 65 66
3 66 67 68
3 72 68 70
3 88 72 71
3 88 71 73
3 77 73 75
3 79 77 76
3 89 79 78
