ply
format ascii 1.0
comment Created by Blender 3.6.2 - www.blender.org
element vertex 90
property float x
property float y
property float z
property float nx
property float ny
property float nz
element face 112
property list uchar uint vertex_indices
end_header
2.451907 2.431706 -0.664394 -0.922253 -0.273365 0.273350
2.454232 2.429280 -1.555266 -0.722132 -0.691755 -0.000001
2.454232 2.429279 -0.661967 -0.827919 -0.396578 0.396581
2.452265 2.434133 -1.550413 -0.959478 0.281784 -0.000001
2.452265 2.434133 -0.666821 -0.979056 0.143961 -0.143962
2.457880 2.441409 -0.674096 -0.905008 0.300780 -0.300820
2.460453 2.447599 -0.680287 -0.978569 0.145626 -0.145589
2.457880 2.441409 -1.543137 -0.832795 0.553582 0.000000
2.460300 2.453990 -1.530556 -0.984698 -0.174267 -0.000000
2.460300 2.453990 -0.686678 -0.992258 -0.087816 0.087815
2.457381 2.458336 -0.691024 -0.936165 -0.248589 0.248593
2.456789 2.461411 -1.523135 -0.999986 -0.005296 -0.000000
2.456789 2.461411 -0.694098 -0.999993 -0.002636 0.002658
2.458560 2.464485 -0.697173 -0.879991 0.335909 -0.335829
2.462295 2.467213 -1.517333 -0.723314 0.690520 0.000000
2.462295 2.467213 -0.699901 -0.828829 0.395628 -0.395627
2.463073 2.469896 -0.702584 -0.999358 -0.025338 0.025312
2.460999 2.471538 -0.704225 -0.853084 -0.368875 0.369024
2.463073 2.469896 -1.514650 -0.998721 -0.050560 0.000000
2.460500 2.474150 -0.706838 -0.999191 0.028414 -0.028457
2.460999 2.471538 -1.513008 -0.756361 -0.654155 0.000000
2.462898 2.476881 -0.709569 -0.631318 0.548371 -0.548385
2.460500 2.474150 -1.510395 -0.998389 0.056749 0.000000
2.468354 2.477089 -0.709777 -0.053826 0.706088 -0.706076
2.462898 2.476882 -1.507664 -0.498963 0.866623 0.000001
2.451908 3.527244 -0.664394 -0.922254 0.273416 0.273297
2.454232 3.529670 -0.661967 -0.828001 0.396473 0.396514
2.452265 3.524817 -0.666821 -0.979109 -0.143780 -0.143782
2.457880 3.517541 -0.674096 -0.905011 -0.300778 -0.300814
2.460453 3.511350 -0.680287 -0.978573 -0.145593 -0.145595
2.460300 3.504960 -0.686678 -0.992260 0.087813 0.087805
2.457381 3.500613 -0.691024 -0.936174 0.248547 0.248602
2.456789 3.497539 -0.694098 -0.999993 0.002662 0.002654
2.458560 3.494465 -0.697173 -0.879994 -0.335906 -0.335824
2.462295 3.491737 -0.699901 -0.828835 -0.395612 -0.395632
2.463073 3.489054 -0.702584 -0.999359 0.025328 0.025313
2.460999 3.487412 -0.704225 -0.853128 0.368828 0.368970
2.460501 3.484799 -0.706838 -0.999184 -0.028553 -0.028553
2.462898 3.482068 -0.709569 -0.631427 -0.548322 -0.548309
2.468354 3.481860 -0.709777 -0.053857 -0.706077 -0.706084
2.451908 3.527244 -1.552839 -0.860186 0.509981 0.000000
2.454232 3.529670 -1.555266 -0.722131 0.691756 0.000000
2.452265 3.524817 -1.550413 -0.959476 -0.281790 0.000000
2.457880 3.517541 -1.543137 -0.832776 -0.553610 0.000000
2.460454 3.511351 -1.536946 -0.958436 -0.285309 -0.000000
2.460300 3.504960 -1.530556 -0.984679 0.174375 -0.000001
2.457381 3.500613 -1.526209 -0.883210 0.468978 0.000000
2.456789 3.497539 -1.523135 -0.999986 0.005296 0.000000
2.458560 3.494465 -1.520061 -0.794854 -0.606801 0.000000
2.462295 3.491737 -1.517333 -0.723328 -0.690505 0.000000
2.463073 3.489054 -1.514650 -0.998722 0.050544 0.000000
2.460999 3.487412 -1.513008 -0.756414 0.654093 0.000000
2.460501 3.484800 -1.510395 -0.998376 -0.056971 -0.000000
2.462898 3.482069 -1.507664 -0.499063 -0.866566 -0.000001
2.468354 3.481860 -1.507456 -0.038295 -0.999267 -0.000001
2.451908 2.431706 -1.552840 -0.860177 -0.000000 -0.509995
2.454232 3.529670 -1.555266 -0.722284 0.000001 -0.691596
2.454232 2.429280 -1.555266 -0.722148 0.000000 -0.691738
2.452265 2.434133 -1.550413 -0.959477 -0.000000 0.281786
2.451908 3.527244 -1.552839 -0.860242 0.000000 -0.509885
2.457880 2.441409 -1.543137 -0.832809 0.000000 0.553560
2.452265 3.524817 -1.550413 -0.959468 0.000000 0.281817
2.460454 3.511351 -1.536946 -0.958446 0.000000 0.285274
2.460453 2.447599 -1.536946 -0.958464 0.000001 0.285213
2.460300 2.453990 -1.530556 -0.984699 0.000001 -0.174266
2.457381 3.500613 -1.526209 -0.883207 0.000000 -0.468983
2.457381 2.458337 -1.526209 -0.883208 0.000000 -0.468981
2.456789 3.497539 -1.523135 -0.999986 0.000000 -0.005289
2.456789 2.461411 -1.523135 -0.999986 0.000000 -0.005289
2.458560 2.464485 -1.520061 -0.794847 0.000000 0.606810
2.462295 2.467213 -1.517333 -0.723309 0.000000 0.690524
2.458560 3.494465 -1.520061 -0.794850 0.000000 0.606806
2.463073 3.489054 -1.514650 -0.998721 0.000000 -0.050558
2.463073 2.469896 -1.514650 -0.998721 0.000000 -0.050552
2.460999 2.471538 -1.513008 -0.756419 0.000000 -0.654088
2.460501 3.484800 -1.510395 -0.998371 0.000000 0.057063
2.460500 2.474150 -1.510395 -0.998384 0.000001 0.056828
2.462898 2.476882 -1.507664 -0.498899 0.000000 0.866660
2.468354 2.477090 -1.507456 -0.038099 0.000000 0.999274
2.462898 3.482069 -1.507664 -0.499021 0.000000 0.866590
2.451908 2.431706 -1.552840 -0.860171 -0.510006 -0.000001
2.460453 2.447599 -1.536946 -0.958453 0.285250 0.000000
2.457381 2.458337 -1.526209 -0.883210 -0.468978 -0.000001
2.458560 2.464485 -1.520061 -0.794847 0.606810 0.000000
2.468354 2.477090 -1.507456 -0.038078 0.999275 0.000001
2.457880 3.517541 -1.543137 -0.832791 0.000000 0.553588
2.460300 3.504960 -1.530556 -0.984680 0.000000 -0.174371
2.462295 3.491737 -1.517333 -0.723311 0.000000 0.690522
2.460999 3.487412 -1.513008 -0.756474 0.000000 -0.654023
2.468354 3.481860 -1.507456 -0.038099 0.000000 0.999274
3 0 1 2
3 3 0 4
3 5 3 4
3 6 7 5
3 8 6 9
3 10 8 9
3 11 10 12
3 13 11 12
3 14 13 15
3 16 14 15
3 17 18 16
3 19 20 17
3 21 22 19
3 23 24 21
3 25 2 26
3 27 0 25
3 5 27 28
3 29 5 28
3 9 29 30
3 31 9 30
3 32 10 31
3 33 12 32
3 34 13 33
3 35 15 34
3 36 16 35
3 37 17 36
3 38 19 37
3 39 21 38
3 40 26 41
3 42 25 40
3 28 42 43
3 44 28 43
3 45 29 44
3 31 45 46
3 47 31 46
3 33 47 48
3 49 33 48
3 50 34 49
3 51 35 50
3 52 36 51
3 53 37 52
3 54 38 53
3 55 56 57
3 58 59 55
3 60 61 58
3 62 60 63
3 64 62 63
3 65 64 66
3 67 66 68
3 69 67 68
3 70 71 69
3 72 70 73
3 74 72 73
3 75 74 76
3 77 75 76
3 78 79 77
3 80 1 0
3 80 0 3
3 7 3 5
3 81 7 6
3 81 6 8
3 82 8 10
3 82 10 11
3 83 11 13
3 83 13 14
3 18 14 16
3 20 18 17
3 22 20 19
3 24 22 21
3 84 24 23
3 0 2 25
3 4 0 27
3 4 27 5
3 6 5 29
3 6 29 9
3 10 9 31
3 12 10 32
3 13 12 33
3 15 13 34
3 16 15 35
3 17 16 36
3 19 17 37
3 21 19 38
3 23 21 39
3 25 26 40
3 27 25 42
3 27 42 28
3 29 28 44
3 30 29 45
3 30 45 31
3 32 31 47
3 32 47 33
3 34 33 49
3 35 34 50
3 36 35 51
3 37 36 52
3 38 37 53
3 39 38 54
3 59 56 55
3 61 59 58
3 85 61 60
3 85 60 62
3 86 62 64
3 86 64 65
3 65 66 67
3 71 67 69
3 87 71 70
3 87 70 72
3 88 72 74
3 88 74 75
3 79 75 77
3 89 79 78
