ply
format ascii 1.0
comment Created by Blender 3.6.2 - www.blender.org
element vertex 576
property float x
property float y
property float z
property float nx
property float ny
property float nz
element face 1152
property list uchar uint vertex_indices
end_header
-0.779221 1.176674 -3.911932 -0.991446 0.000026 0.130514
-0.778203 1.171094 -3.919214 -0.868680 -0.495374 0.000000
-0.777739 1.171094 -3.912127 -0.861242 -0.495388 0.113375
-0.774119 1.167010 -3.919214 -0.507997 -0.861359 -0.000000
-0.773689 1.167010 -3.912660 -0.503611 -0.861383 0.066306
-0.768158 1.165515 -3.913388 -0.010710 -0.999942 0.001411
-0.762960 1.167010 -3.919214 0.491821 -0.870696 0.000000
-0.762626 1.167010 -3.914116 0.487627 -0.870690 -0.064170
-0.758876 1.171094 -3.919214 0.863290 -0.504708 0.000000
-0.758577 1.171094 -3.914649 0.855887 -0.504732 -0.112703
-0.757381 1.176674 -3.919214 1.000000 0.000024 -0.000004
-0.757095 1.176674 -3.914845 0.991441 0.000024 -0.130558
-0.758577 1.182253 -3.914649 0.855875 0.504754 -0.112703
-0.762960 1.186337 -3.919214 0.491822 0.870696 0.000001
-0.762626 1.186337 -3.914116 0.487628 0.870690 -0.064171
-0.768158 1.187832 -3.913388 -0.010712 0.999942 0.001410
-0.768540 1.187832 -3.919214 -0.010811 0.999942 0.000002
-0.773689 1.186337 -3.912660 -0.503610 0.861383 0.066304
-0.774119 1.186337 -3.919214 -0.507996 0.861359 0.000001
-0.777739 1.182253 -3.912127 -0.861231 0.495407 0.113377
-0.778203 1.182253 -3.919214 -0.868668 0.495395 0.000000
-0.777797 1.176674 -3.904774 -0.965923 0.000027 0.258830
-0.776353 1.171094 -3.905161 -0.839072 -0.495383 0.224843
-0.772408 1.167010 -3.906218 -0.490687 -0.861361 0.131467
-0.767019 1.165515 -3.907662 -0.010424 -0.999942 0.002788
-0.761630 1.167010 -3.909106 0.475027 -0.870714 -0.127306
-0.757684 1.171094 -3.910163 0.833829 -0.504765 -0.223474
-0.756240 1.176674 -3.910550 0.965915 0.000024 -0.258858
-0.757684 1.182253 -3.910163 0.833818 0.504786 -0.223471
-0.761630 1.186337 -3.909106 0.475024 0.870717 -0.127299
-0.767019 1.187832 -3.907662 -0.010420 0.999942 0.002795
-0.772408 1.186337 -3.906218 -0.490682 0.861364 0.131463
-0.776353 1.182253 -3.905161 -0.839065 0.495398 0.224833
-0.774070 1.171094 -3.898435 -0.802563 -0.495373 0.332413
-0.775451 1.176674 -3.897863 -0.923879 0.000024 0.382685
-0.770297 1.167010 -3.899998 -0.469341 -0.861350 0.194410
-0.765142 1.165515 -3.902133 -0.009969 -0.999942 0.004132
-0.759987 1.167010 -3.904269 0.454397 -0.870683 -0.188240
-0.756214 1.171094 -3.905832 0.797582 -0.504718 -0.330338
-0.754833 1.176674 -3.906404 0.923902 0.000024 -0.382629
-0.756214 1.182253 -3.905832 0.797571 0.504738 -0.330333
-0.759987 1.186337 -3.904269 0.454388 0.870688 -0.188240
-0.765142 1.187832 -3.902133 -0.009967 0.999942 0.004125
-0.770297 1.186337 -3.899998 -0.469335 0.861353 0.194410
-0.774070 1.182253 -3.898435 -0.802552 0.495391 0.332413
-0.770929 1.171094 -3.892065 -0.752302 -0.495354 0.434358
-0.772223 1.176674 -3.891318 -0.866013 0.000024 0.500022
-0.767392 1.167010 -3.894108 -0.439917 -0.861371 0.253995
-0.762560 1.165515 -3.896897 -0.009348 -0.999942 0.005405
-0.757728 1.167010 -3.899687 0.425947 -0.870699 -0.245871
-0.754191 1.171094 -3.901729 0.747676 -0.504705 -0.431570
-0.752896 1.176674 -3.902476 0.866070 0.000024 -0.499922
-0.754191 1.182253 -3.901729 0.747666 0.504726 -0.431564
-0.757728 1.186337 -3.899687 0.425944 0.870697 -0.245881
-0.762560 1.187832 -3.896897 -0.009355 0.999942 0.005403
-0.767392 1.186337 -3.894108 -0.439915 0.861372 0.253995
-0.770929 1.182253 -3.892065 -0.752291 0.495375 0.434352
-0.766983 1.171094 -3.886160 -0.689169 -0.495378 0.528816
-0.768169 1.176674 -3.885250 -0.793373 0.000024 0.608736
-0.763742 1.167010 -3.888646 -0.402994 -0.861378 0.309231
-0.759316 1.165515 -3.892043 -0.008527 -0.999942 0.006545
-0.754890 1.167010 -3.895439 0.390221 -0.870688 -0.299382
-0.751650 1.171094 -3.897925 0.684916 -0.504728 -0.525490
-0.750464 1.176674 -3.898835 0.793347 0.000024 -0.608769
-0.751650 1.182253 -3.897925 0.684907 0.504748 -0.525482
-0.754890 1.186337 -3.895439 0.390230 0.870684 -0.299382
-0.759316 1.187832 -3.892043 -0.008534 0.999942 0.006548
-0.763742 1.186337 -3.888646 -0.402997 0.861378 0.309228
-0.766983 1.182253 -3.886160 -0.689160 0.495399 0.528808
-0.762300 1.171094 -3.880820 -0.614254 -0.495376 0.614243
-0.763357 1.176674 -3.879763 -0.707114 0.000024 0.707100
-0.759412 1.167010 -3.883708 -0.359218 -0.861366 0.359182
-0.755467 1.165515 -3.887653 -0.007635 -0.999942 0.007624
-0.751522 1.167010 -3.891598 0.347757 -0.870699 -0.347778
-0.748634 1.171094 -3.894486 0.610381 -0.504763 -0.610451
-0.747576 1.176674 -3.895543 0.707059 0.000024 -0.707154
-0.748634 1.182253 -3.894486 0.610372 0.504783 -0.610442
-0.751522 1.186337 -3.891598 0.347760 0.870698 -0.347777
-0.755467 1.187832 -3.887653 -0.007631 0.999942 0.007626
-0.759412 1.186337 -3.883708 -0.359218 0.861364 0.359185
-0.762300 1.182253 -3.880820 -0.614246 0.495397 0.614235
-0.757870 1.176674 -3.874951 -0.608730 0.000024 0.793377
-0.756960 1.171094 -3.876137 -0.528803 -0.495362 0.689191
-0.754474 1.167010 -3.879377 -0.309242 -0.861353 0.403038
-0.751077 1.165515 -3.883804 -0.006536 -0.999942 0.008523
-0.747681 1.167010 -3.888230 0.299383 -0.870693 -0.390209
-0.745194 1.171094 -3.891470 0.525487 -0.504725 -0.684920
-0.744284 1.176674 -3.892656 0.608708 0.000024 -0.793394
-0.745194 1.182253 -3.891470 0.525480 0.504746 -0.684910
-0.747681 1.186337 -3.888230 0.299383 0.870693 -0.390209
-0.751077 1.187832 -3.883804 -0.006536 0.999942 0.008523
-0.754474 1.186337 -3.879377 -0.309242 0.861353 0.403038
-0.756960 1.182253 -3.876137 -0.528795 0.495383 0.689181
-0.751802 1.176674 -3.870897 -0.499980 0.000024 0.866037
-0.751054 1.171094 -3.872191 -0.434326 -0.495341 0.752329
-0.749012 1.167010 -3.875728 -0.253998 -0.861361 0.439935
-0.746223 1.165515 -3.880560 -0.005409 -0.999942 0.009356
-0.743433 1.167010 -3.885392 0.245907 -0.870693 -0.425938
-0.741391 1.171094 -3.888929 0.431603 -0.504739 -0.747635
-0.740643 1.176674 -3.890224 0.499955 0.000009 -0.866051
-0.741391 1.182253 -3.888929 0.431582 0.504772 -0.747625
-0.743433 1.186337 -3.885392 0.245907 0.870693 -0.425938
-0.746223 1.187832 -3.880560 -0.005409 0.999942 0.009356
-0.749012 1.186337 -3.875728 -0.253993 0.861356 0.439946
-0.751054 1.182253 -3.872191 -0.434311 0.495369 0.752319
-0.744684 1.171094 -3.869050 -0.332422 -0.495356 0.802569
-0.745257 1.176674 -3.867669 -0.382710 0.000024 0.923868
-0.743122 1.167010 -3.872823 -0.194398 -0.861345 0.469356
-0.740986 1.165515 -3.877978 -0.004104 -0.999942 0.009923
-0.738851 1.167010 -3.883132 0.188233 -0.870705 -0.454357
-0.737288 1.171094 -3.886906 0.330398 -0.504730 -0.797550
-0.736716 1.176674 -3.888287 0.382770 0.000006 -0.923844
-0.737288 1.182253 -3.886906 0.330392 0.504756 -0.797535
-0.738851 1.186337 -3.883132 0.188221 0.870710 -0.454353
-0.740986 1.187832 -3.877978 -0.004104 0.999942 0.009923
-0.743122 1.186337 -3.872823 -0.194417 0.861345 0.469347
-0.744684 1.182253 -3.869050 -0.332434 0.495376 0.802552
-0.738346 1.176674 -3.865323 -0.258849 0.000024 0.965918
-0.737959 1.171094 -3.866767 -0.224863 -0.495377 0.839070
-0.736902 1.167010 -3.870712 -0.131472 -0.861361 0.490686
-0.735458 1.165515 -3.876101 -0.002788 -0.999942 0.010418
-0.734014 1.167010 -3.881490 0.127264 -0.870702 -0.475060
-0.732957 1.171094 -3.885435 0.223445 -0.504731 -0.833858
-0.732570 1.176674 -3.886879 0.258857 0.000021 -0.965916
-0.732957 1.182253 -3.885435 0.223450 0.504738 -0.833853
-0.734014 1.186337 -3.881490 0.127258 0.870707 -0.475052
-0.735458 1.187832 -3.876101 -0.002794 0.999942 0.010421
-0.736902 1.186337 -3.870712 -0.131450 0.861361 0.490691
-0.737959 1.182253 -3.866767 -0.224842 0.495398 0.839063
-0.730993 1.171094 -3.865381 -0.113365 -0.495404 0.861234
-0.731188 1.176674 -3.863899 -0.130522 0.000030 0.991445
-0.730460 1.167010 -3.869431 -0.066292 -0.861377 0.503622
-0.729732 1.165515 -3.874962 -0.001413 -0.999942 0.010702
-0.729003 1.167010 -3.880494 0.064186 -0.870684 -0.487637
-0.728470 1.171094 -3.884543 0.112627 -0.504690 -0.855922
-0.728275 1.176674 -3.886025 0.130452 0.000024 -0.991455
-0.728470 1.182253 -3.884543 0.112634 0.504704 -0.855913
-0.729003 1.186337 -3.880494 0.064204 0.870688 -0.487628
-0.729732 1.187832 -3.874962 -0.001403 0.999942 0.010704
-0.730460 1.186337 -3.869431 -0.066303 0.861372 0.503628
-0.730993 1.182253 -3.865381 -0.113365 0.495427 0.861220
-0.723906 1.176674 -3.863422 -0.000008 0.000030 1.000000
-0.723906 1.171094 -3.864917 -0.000000 -0.495409 0.868660
-0.723906 1.167010 -3.869001 0.000000 -0.861341 0.508027
-0.723906 1.165515 -3.874580 0.000005 -0.999942 0.010798
-0.723906 1.167010 -3.880159 0.000009 -0.870737 -0.491749
-0.723906 1.171094 -3.884244 -0.000002 -0.504730 -0.863277
-0.723906 1.176674 -3.885739 -0.000010 0.000024 -1.000000
-0.723906 1.182253 -3.884244 -0.000002 0.504750 -0.863266
-0.723906 1.186337 -3.880159 0.000003 0.870740 -0.491744
-0.723906 1.187832 -3.874580 -0.000000 0.999942 0.010795
-0.723906 1.186337 -3.869001 -0.000018 0.861350 0.508012
-0.723906 1.182253 -3.864917 -0.000022 0.495412 0.868658
-0.716819 1.171094 -3.865381 0.113369 -0.495419 0.861224
-0.716623 1.176674 -3.863899 0.130538 0.000024 0.991443
-0.717352 1.167010 -3.869431 0.066305 -0.861372 0.503629
-0.718080 1.165515 -3.874962 0.001404 -0.999942 0.010700
-0.718808 1.167010 -3.880494 -0.064204 -0.870685 -0.487632
-0.719341 1.171094 -3.884543 -0.112631 -0.504699 -0.855917
-0.719536 1.176674 -3.886025 -0.130449 0.000024 -0.991455
-0.719341 1.182253 -3.884543 -0.112638 0.504712 -0.855908
-0.718808 1.186337 -3.880494 -0.064210 0.870689 -0.487625
-0.718080 1.187832 -3.874962 0.001404 0.999942 0.010701
-0.717352 1.186337 -3.869431 0.066320 0.861380 0.503613
-0.716819 1.182253 -3.865381 0.113383 0.495427 0.861218
-0.709853 1.171094 -3.866767 0.224832 -0.495385 0.839074
-0.709466 1.176674 -3.865323 0.258849 0.000024 0.965918
-0.710910 1.167010 -3.870712 0.131450 -0.861361 0.490691
-0.712354 1.165515 -3.876101 0.002793 -0.999942 0.010417
-0.713798 1.167010 -3.881490 -0.127256 -0.870696 -0.475073
-0.714855 1.171094 -3.885435 -0.223436 -0.504726 -0.833863
-0.715242 1.176674 -3.886879 -0.258843 0.000022 -0.965920
-0.714855 1.182253 -3.885435 -0.223427 0.504741 -0.833857
-0.713798 1.186337 -3.881490 -0.127248 0.870699 -0.475069
-0.712354 1.187832 -3.876101 0.002793 0.999942 0.010417
-0.710910 1.186337 -3.870712 0.131450 0.861361 0.490691
-0.709853 1.182253 -3.866767 0.224829 0.495406 0.839062
-0.703127 1.171094 -3.869050 0.332427 -0.495343 0.802576
-0.702555 1.176674 -3.867669 0.382706 0.000024 0.923870
-0.704690 1.167010 -3.872823 0.194386 -0.861357 0.469338
-0.706825 1.165515 -3.877978 0.004112 -0.999942 0.009941
-0.708960 1.167010 -3.883132 -0.188235 -0.870711 -0.454345
-0.710523 1.171094 -3.886906 -0.330409 -0.504740 -0.797538
-0.711095 1.176674 -3.888287 -0.382746 0.000027 -0.923853
-0.710523 1.182253 -3.886906 -0.330399 0.504758 -0.797531
-0.708960 1.186337 -3.883132 -0.188235 0.870711 -0.454345
-0.706825 1.187832 -3.877978 0.004112 0.999942 0.009941
-0.704690 1.186337 -3.872823 0.194386 0.861357 0.469337
-0.703127 1.182253 -3.869050 0.332423 0.495364 0.802565
-0.696010 1.176674 -3.870897 0.499993 0.000024 0.866030
-0.696757 1.171094 -3.872191 0.434361 -0.495306 0.752331
-0.698799 1.167010 -3.875728 0.253999 -0.861358 0.439940
-0.701589 1.165515 -3.880560 0.005394 -0.999942 0.009340
-0.704379 1.167010 -3.885392 -0.245921 -0.870693 -0.425931
-0.706421 1.171094 -3.888929 -0.431608 -0.504710 -0.747651
-0.707168 1.176674 -3.890224 -0.499969 0.000031 -0.866043
-0.706421 1.182253 -3.888929 -0.431607 0.504725 -0.747642
-0.704379 1.186337 -3.885392 -0.245921 0.870693 -0.425931
-0.701589 1.187832 -3.880560 0.005395 0.999942 0.009341
-0.698799 1.186337 -3.875728 0.253999 0.861359 0.439939
-0.696757 1.182253 -3.872191 0.434355 0.495327 0.752321
-0.690852 1.171094 -3.876137 0.528825 -0.495353 0.689180
-0.689942 1.176674 -3.874951 0.608730 0.000024 0.793377
-0.693338 1.167010 -3.879377 0.309264 -0.861351 0.403026
-0.696734 1.165515 -3.883804 0.006559 -0.999942 0.008543
-0.700131 1.167010 -3.888230 -0.299383 -0.870687 -0.390222
-0.702617 1.171094 -3.891470 -0.525489 -0.504710 -0.684930
-0.703527 1.176674 -3.892656 -0.608710 0.000026 -0.793393
-0.702617 1.182253 -3.891470 -0.525483 0.504730 -0.684920
-0.700131 1.186337 -3.888230 -0.299387 0.870686 -0.390222
-0.696734 1.187832 -3.883804 0.006558 0.999942 0.008547
-0.693338 1.186337 -3.879377 0.309263 0.861351 0.403026
-0.690852 1.182253 -3.876137 0.528818 0.495374 0.689171
-0.685512 1.171094 -3.880820 0.614253 -0.495376 0.614245
-0.684455 1.176674 -3.879763 0.707112 0.000024 0.707102
-0.688400 1.167010 -3.883708 0.359209 -0.861362 0.359199
-0.692345 1.165515 -3.887653 0.007618 -0.999942 0.007621
-0.696290 1.167010 -3.891598 -0.347772 -0.870696 -0.347768
-0.699178 1.171094 -3.894486 -0.610438 -0.504713 -0.610435
-0.700235 1.176674 -3.895543 -0.707101 0.000024 -0.707112
-0.699178 1.182253 -3.894486 -0.610429 0.504734 -0.610426
-0.696290 1.186337 -3.891598 -0.347769 0.870696 -0.347772
-0.692345 1.187832 -3.887653 0.007624 0.999942 0.007618
-0.688400 1.186337 -3.883708 0.359209 0.861363 0.359197
-0.685512 1.182253 -3.880820 0.614245 0.495397 0.614236
-0.679643 1.176674 -3.885250 0.793339 0.000024 0.608780
-0.680829 1.171094 -3.886160 0.689160 -0.495359 0.528846
-0.684069 1.167010 -3.888646 0.403026 -0.861351 0.309264
-0.688495 1.165515 -3.892043 0.008558 -0.999942 0.006568
-0.692922 1.167010 -3.895439 -0.390210 -0.870694 -0.299380
-0.696162 1.171094 -3.897925 -0.684930 -0.504688 -0.525510
-0.697348 1.176674 -3.898835 -0.793353 0.000004 -0.608762
-0.696162 1.182253 -3.897925 -0.684916 0.504732 -0.525487
-0.692922 1.186337 -3.895439 -0.390209 0.870692 -0.299385
-0.688495 1.187832 -3.892043 0.008557 0.999942 0.006569
-0.684069 1.186337 -3.888646 0.403024 0.861353 0.309263
-0.680829 1.182253 -3.886160 0.689150 0.495380 0.528839
-0.675588 1.176674 -3.891318 0.866034 0.000024 0.499986
-0.676883 1.171094 -3.892065 0.752298 -0.495391 0.434321
-0.680420 1.167010 -3.894108 0.439926 -0.861375 0.253963
-0.685252 1.165515 -3.896897 0.009342 -0.999942 0.005389
-0.690084 1.167010 -3.899687 -0.425934 -0.870694 -0.245912
-0.693621 1.171094 -3.901729 -0.747673 -0.504639 -0.431654
-0.694915 1.176674 -3.902476 -0.866047 0.000005 -0.499962
-0.693621 1.182253 -3.901729 -0.747641 0.504686 -0.431654
-0.690084 1.186337 -3.899687 -0.425946 0.870688 -0.245912
-0.685252 1.187832 -3.896897 0.009342 0.999942 0.005395
-0.680420 1.186337 -3.894108 0.439925 0.861376 0.253964
-0.676883 1.182253 -3.892065 0.752288 0.495413 0.434315
-0.672361 1.176674 -3.897863 0.923889 0.000024 0.382662
-0.673742 1.171094 -3.898435 0.802564 -0.495373 0.332411
-0.677515 1.167010 -3.899998 0.469345 -0.861348 0.194409
-0.682670 1.165515 -3.902133 0.009949 -0.999942 0.004123
-0.687824 1.167010 -3.904269 -0.454379 -0.870695 -0.188229
-0.691597 1.171094 -3.905832 -0.797563 -0.504718 -0.330383
-0.692979 1.176674 -3.906404 -0.923895 0.000024 -0.382645
-0.691597 1.182253 -3.905832 -0.797549 0.504745 -0.330376
-0.687824 1.186337 -3.904269 -0.454386 0.870690 -0.188234
-0.682670 1.187832 -3.902133 0.009957 0.999942 0.004120
-0.677515 1.186337 -3.899998 0.469343 0.861350 0.194405
-0.673742 1.182253 -3.898435 0.802553 0.495394 0.332407
-0.670015 1.176674 -3.904774 0.965922 0.000024 0.258835
-0.671459 1.171094 -3.905161 0.839068 -0.495387 0.224845
-0.675404 1.167010 -3.906218 0.490682 -0.861361 0.131484
-0.680793 1.165515 -3.907662 0.010418 -0.999942 0.002788
-0.686182 1.167010 -3.909106 -0.475063 -0.870695 -0.127302
-0.690127 1.171094 -3.910163 -0.833879 -0.504716 -0.223399
-0.691571 1.176674 -3.910550 -0.965927 0.000024 -0.258813
-0.690127 1.182253 -3.910163 -0.833867 0.504740 -0.223392
-0.686182 1.186337 -3.909106 -0.475063 0.870695 -0.127302
-0.680793 1.187832 -3.907662 0.010418 0.999942 0.002790
-0.675404 1.186337 -3.906218 0.490679 0.861363 0.131486
-0.671459 1.182253 -3.905161 0.839057 0.495409 0.224842
-0.670073 1.171094 -3.912127 0.861260 -0.495356 0.113376
-0.668591 1.176674 -3.911932 0.991448 0.000024 0.130505
-0.674122 1.167010 -3.912660 0.503666 -0.861349 0.066317
-0.679654 1.165515 -3.913388 0.010672 -0.999942 0.001407
-0.685185 1.167010 -3.914116 -0.487575 -0.870717 -0.064207
-0.689235 1.171094 -3.914649 -0.855889 -0.504743 -0.112648
-0.690717 1.176674 -3.914845 -0.991446 0.000024 -0.130518
-0.689235 1.182253 -3.914649 -0.855875 0.504765 -0.112648
-0.685185 1.186337 -3.914116 -0.487575 0.870717 -0.064206
-0.679654 1.187832 -3.913388 0.010669 0.999942 0.001409
-0.674122 1.186337 -3.912660 0.503666 0.861349 0.066317
-0.670073 1.182253 -3.912127 0.861248 0.495377 0.113375
-0.669609 1.171094 -3.919214 0.868681 -0.495372 -0.000001
-0.668114 1.176674 -3.919214 1.000000 0.000024 0.000000
-0.673693 1.167010 -3.919214 0.507999 -0.861358 -0.000002
-0.679272 1.165515 -3.919214 0.010777 -0.999942 -0.000000
-0.684851 1.167010 -3.919214 -0.491787 -0.870716 0.000000
-0.688936 1.171094 -3.919214 -0.863282 -0.504722 -0.000001
-0.690430 1.176674 -3.919214 -1.000000 0.000024 -0.000007
-0.688936 1.182253 -3.919214 -0.863269 0.504745 0.000001
-0.684851 1.186337 -3.919214 -0.491789 0.870715 0.000002
-0.679272 1.187832 -3.919214 0.010781 0.999942 -0.000005
-0.673693 1.186337 -3.919214 0.507996 0.861359 -0.000006
-0.669609 1.182253 -3.919214 0.868669 0.495393 -0.000001
-0.668591 1.176674 -3.926496 0.991448 0.000024 -0.130505
-0.670073 1.171094 -3.926301 0.861259 -0.495358 -0.113375
-0.674122 1.167010 -3.925768 0.503666 -0.861350 -0.066313
-0.679654 1.165515 -3.925040 0.010672 -0.999942 -0.001407
-0.685185 1.167010 -3.924312 -0.487575 -0.870717 0.064207
-0.689235 1.171094 -3.923779 -0.855894 -0.504734 0.112645
-0.690717 1.176674 -3.923584 -0.991443 0.000020 0.130538
-0.689235 1.182253 -3.923779 -0.855880 0.504758 0.112647
-0.685185 1.186337 -3.924312 -0.487573 0.870718 0.064203
-0.679654 1.187832 -3.925040 0.010674 0.999942 -0.001405
-0.674122 1.186337 -3.925768 0.503663 0.861352 -0.066309
-0.670073 1.182253 -3.926301 0.861247 0.495379 -0.113373
-0.670015 1.176674 -3.933654 0.965920 0.000024 -0.258841
-0.671459 1.171094 -3.933267 0.839073 -0.495381 -0.224845
-0.675404 1.167010 -3.932210 0.490676 -0.861365 -0.131478
-0.680793 1.165515 -3.930766 0.010418 -0.999942 -0.002794
-0.686182 1.167010 -3.929322 -0.475070 -0.870693 0.127289
-0.690127 1.171094 -3.928265 -0.833879 -0.504717 0.223397
-0.691571 1.176674 -3.927878 -0.965919 0.000002 0.258846
-0.690127 1.182253 -3.928265 -0.833854 0.504754 0.223405
-0.686182 1.186337 -3.929322 -0.475065 0.870695 0.127292
-0.680793 1.187832 -3.930766 0.010416 0.999942 -0.002791
-0.675404 1.186337 -3.932210 0.490676 0.861365 -0.131478
-0.671459 1.182253 -3.933267 0.839061 0.495402 -0.224842
-0.672361 1.176674 -3.940565 0.923892 0.000021 -0.382653
-0.673742 1.171094 -3.939993 0.802567 -0.495366 -0.332414
-0.677515 1.167010 -3.938430 0.469337 -0.861352 -0.194409
-0.682670 1.165515 -3.936295 0.009952 -0.999942 -0.004116
-0.687824 1.167010 -3.934160 -0.454365 -0.870701 0.188236
-0.691597 1.171094 -3.932596 -0.797524 -0.504768 0.330401
-0.692979 1.176674 -3.932024 -0.923874 0.000007 0.382697
-0.691597 1.182253 -3.932596 -0.797513 0.504800 0.330380
-0.687824 1.186337 -3.934160 -0.454361 0.870703 0.188236
-0.682670 1.187832 -3.936295 0.009952 0.999942 -0.004116
-0.677515 1.186337 -3.938430 0.469337 0.861352 -0.194409
-0.673742 1.182253 -3.939993 0.802556 0.495389 -0.332406
-0.676883 1.171094 -3.946363 0.752294 -0.495391 -0.434329
-0.675588 1.176674 -3.947110 0.866030 0.000021 -0.499992
-0.680420 1.167010 -3.944320 0.439925 -0.861375 -0.253968
-0.685252 1.165515 -3.941531 0.009344 -0.999942 -0.005393
-0.690084 1.167010 -3.938741 -0.425936 -0.870688 0.245929
-0.693621 1.171094 -3.936699 -0.747660 -0.504679 0.431628
-0.694915 1.176674 -3.935952 -0.866082 0.000008 0.499901
-0.693621 1.182253 -3.936699 -0.747638 0.504711 0.431629
-0.690084 1.186337 -3.938741 -0.425935 0.870690 0.245925
-0.685252 1.187832 -3.941531 0.009342 0.999942 -0.005394
-0.680420 1.186337 -3.944320 0.439925 0.861375 -0.253968
-0.676883 1.182253 -3.946363 0.752281 0.495415 -0.434324
-0.680829 1.171094 -3.952268 0.689164 -0.495365 -0.528836
-0.679643 1.176674 -3.953178 0.793339 0.000023 -0.608781
-0.684069 1.167010 -3.949782 0.403025 -0.861355 -0.309255
-0.688495 1.165515 -3.946385 0.008558 -0.999942 -0.006571
-0.692922 1.167010 -3.942989 -0.390212 -0.870695 0.299375
-0.696162 1.171094 -3.940503 -0.684936 -0.504689 0.525502
-0.697348 1.176674 -3.939593 -0.793355 0.000008 0.608759
-0.696162 1.182253 -3.940503 -0.684929 0.504723 0.525478
-0.692922 1.186337 -3.942989 -0.390210 0.870694 0.299378
-0.688495 1.187832 -3.946385 0.008561 0.999942 -0.006570
-0.684069 1.186337 -3.949782 0.403025 0.861352 -0.309263
-0.680829 1.182253 -3.952268 0.689149 0.495390 -0.528831
-0.685512 1.171094 -3.957608 0.614253 -0.495365 -0.614253
-0.684455 1.176674 -3.958665 0.707105 0.000024 -0.707109
-0.688400 1.167010 -3.954720 0.359202 -0.861364 -0.359202
-0.692345 1.165515 -3.950775 0.007624 -0.999942 -0.007619
-0.696290 1.167010 -3.946830 -0.347768 -0.870695 0.347776
-0.699178 1.171094 -3.943942 -0.610439 -0.504717 0.610430
-0.700235 1.176674 -3.942885 -0.707101 0.000025 0.707112
-0.699178 1.182253 -3.943942 -0.610428 0.504730 0.610430
-0.696290 1.186337 -3.946830 -0.347763 0.870698 0.347772
-0.692345 1.187832 -3.950775 0.007621 0.999942 -0.007622
-0.688400 1.186337 -3.954720 0.359210 0.861361 -0.359201
-0.685512 1.182253 -3.957608 0.614247 0.495390 -0.614239
-0.690852 1.171094 -3.962291 0.528828 -0.495351 -0.689179
-0.689942 1.176674 -3.963477 0.608743 0.000024 -0.793368
-0.693338 1.167010 -3.959051 0.309257 -0.861355 -0.403022
-0.696734 1.165515 -3.954624 0.006564 -0.999942 -0.008551
-0.700131 1.167010 -3.950198 -0.299394 -0.870682 0.390226
-0.702617 1.171094 -3.946958 -0.525504 -0.504700 0.684926
-0.703527 1.176674 -3.945772 -0.608782 0.000025 0.793338
-0.702617 1.182253 -3.946958 -0.525505 0.504713 0.684915
-0.700131 1.186337 -3.950198 -0.299391 0.870687 0.390217
-0.696734 1.187832 -3.954624 0.006564 0.999942 -0.008548
-0.693338 1.186337 -3.959051 0.309257 0.861355 -0.403022
-0.690852 1.182253 -3.962291 0.528821 0.495373 -0.689169
-0.696010 1.176674 -3.967531 0.499998 0.000024 -0.866027
-0.696757 1.171094 -3.966237 0.434361 -0.495314 -0.752326
-0.698799 1.167010 -3.962700 0.254002 -0.861364 -0.439926
-0.701589 1.165515 -3.957868 0.005397 -0.999942 -0.009346
-0.704379 1.167010 -3.953036 -0.245920 -0.870691 0.425935
-0.706421 1.171094 -3.949499 -0.431601 -0.504668 0.747684
-0.707168 1.176674 -3.948205 -0.499923 0.000024 0.866070
-0.706421 1.182253 -3.949499 -0.431595 0.504688 0.747673
-0.704379 1.186337 -3.953036 -0.245920 0.870691 0.425935
-0.701589 1.187832 -3.957868 0.005396 0.999942 -0.009348
-0.698799 1.186337 -3.962700 0.254000 0.861365 -0.439926
-0.696757 1.182253 -3.966237 0.434355 0.495335 -0.752315
-0.703127 1.171094 -3.969378 0.332427 -0.495343 -0.802576
-0.702555 1.176674 -3.970759 0.382706 0.000024 -0.923870
-0.704690 1.167010 -3.965605 0.194390 -0.861357 -0.469336
-0.706825 1.165515 -3.960450 0.004112 -0.999942 -0.009941
-0.708960 1.167010 -3.955296 -0.188224 -0.870715 0.454341
-0.710523 1.171094 -3.951522 -0.330412 -0.504732 0.797542
-0.711095 1.176674 -3.950141 -0.382701 0.000024 0.923872
-0.710523 1.182253 -3.951522 -0.330407 0.504753 0.797531
-0.708960 1.186337 -3.955296 -0.188222 0.870714 0.454345
-0.706825 1.187832 -3.960450 0.004117 0.999942 -0.009943
-0.704690 1.186337 -3.965605 0.194390 0.861358 -0.469335
-0.703127 1.182253 -3.969378 0.332422 0.495364 -0.802564
-0.709466 1.176674 -3.973105 0.258846 0.000026 -0.965919
-0.709853 1.171094 -3.971661 0.224841 -0.495377 -0.839076
-0.710910 1.167010 -3.967716 0.131457 -0.861367 -0.490680
-0.712354 1.165515 -3.962327 0.002788 -0.999942 -0.010416
-0.713798 1.167010 -3.956938 -0.127257 -0.870706 0.475055
-0.714855 1.171094 -3.952993 -0.223439 -0.504711 0.833872
-0.715242 1.176674 -3.951549 -0.258840 0.000025 0.965920
-0.714855 1.182253 -3.952993 -0.223444 0.504738 0.833854
-0.713798 1.186337 -3.956938 -0.127270 0.870701 0.475061
-0.712354 1.187832 -3.962327 0.002786 0.999942 -0.010419
-0.710910 1.186337 -3.967716 0.131448 0.861362 -0.490691
-0.709853 1.182253 -3.971661 0.224826 0.495404 -0.839064
-0.716623 1.176674 -3.974529 0.130536 0.000031 -0.991444
-0.716819 1.171094 -3.973047 0.113377 -0.495399 -0.861235
-0.717352 1.167010 -3.968997 0.066309 -0.861386 -0.503605
-0.718080 1.165515 -3.963466 0.001410 -0.999942 -0.010700
-0.718808 1.167010 -3.957934 -0.064197 -0.870691 0.487623
-0.719341 1.171094 -3.953885 -0.112649 -0.504685 0.855922
-0.719536 1.176674 -3.952403 -0.130458 0.000016 0.991454
-0.719341 1.182253 -3.953885 -0.112629 0.504720 0.855905
-0.718808 1.186337 -3.957934 -0.064191 0.870687 0.487631
-0.718080 1.187832 -3.963466 0.001410 0.999942 -0.010700
-0.717352 1.186337 -3.968997 0.066321 0.861381 -0.503612
-0.716819 1.182253 -3.973047 0.113381 0.495421 -0.861222
-0.723906 1.176674 -3.975006 0.000004 0.000029 -1.000000
-0.723906 1.171094 -3.973511 -0.000000 -0.495384 -0.868674
-0.723906 1.167010 -3.969427 0.000001 -0.861357 -0.508000
-0.723906 1.165515 -3.963848 0.000001 -0.999942 -0.010799
-0.723906 1.167010 -3.958269 0.000003 -0.870731 0.491760
-0.723906 1.171094 -3.954184 0.000014 -0.504724 0.863281
-0.723906 1.176674 -3.952689 0.000007 0.000024 1.000000
-0.723906 1.182253 -3.954184 -0.000002 0.504744 0.863269
-0.723906 1.186337 -3.958269 0.000003 0.870731 0.491760
-0.723906 1.187832 -3.963848 0.000000 0.999942 -0.010800
-0.723906 1.186337 -3.969427 0.000000 0.861358 -0.507999
-0.723906 1.182253 -3.973511 0.000006 0.495401 -0.868664
-0.730993 1.171094 -3.973047 -0.113380 -0.495391 -0.861239
-0.731188 1.176674 -3.974529 -0.130529 0.000024 -0.991445
-0.730460 1.167010 -3.968997 -0.066308 -0.861384 -0.503607
-0.729732 1.165515 -3.963466 -0.001409 -0.999942 -0.010699
-0.729003 1.167010 -3.957934 0.064184 -0.870687 0.487632
-0.728470 1.171094 -3.953885 0.112619 -0.504697 0.855919
-0.728275 1.176674 -3.952403 0.130443 0.000033 0.991456
-0.728470 1.182253 -3.953885 0.112634 0.504704 0.855913
-0.729003 1.186337 -3.957934 0.064190 0.870690 0.487625
-0.729732 1.187832 -3.963466 -0.001410 0.999942 -0.010701
-0.730460 1.186337 -3.968997 -0.066320 0.861381 -0.503612
-0.730993 1.182253 -3.973047 -0.113387 0.495420 -0.861221
-0.738346 1.176674 -3.973105 -0.258849 0.000024 -0.965918
-0.737959 1.171094 -3.971661 -0.224863 -0.495377 -0.839070
-0.736902 1.167010 -3.967716 -0.131472 -0.861361 -0.490686
-0.735458 1.165515 -3.962327 -0.002787 -0.999942 -0.010421
-0.734014 1.167010 -3.956938 0.127268 -0.870700 0.475062
-0.732957 1.171094 -3.952993 0.223445 -0.504731 0.833858
-0.732570 1.176674 -3.951549 0.258857 0.000021 0.965916
-0.732957 1.182253 -3.952993 0.223450 0.504738 0.833853
-0.734014 1.186337 -3.956938 0.127263 0.870710 0.475046
-0.735458 1.187832 -3.962327 -0.002794 0.999942 -0.010423
-0.736902 1.186337 -3.967716 -0.131452 0.861364 -0.490685
-0.737959 1.182253 -3.971661 -0.224842 0.495398 -0.839063
-0.744684 1.171094 -3.969378 -0.332422 -0.495356 -0.802569
-0.745257 1.176674 -3.970759 -0.382710 0.000024 -0.923868
-0.743122 1.167010 -3.965605 -0.194402 -0.861345 -0.469355
-0.740986 1.165515 -3.960450 -0.004107 -0.999942 -0.009924
-0.738851 1.167010 -3.955296 0.188231 -0.870704 0.454361
-0.737288 1.171094 -3.951522 0.330412 -0.504735 0.797540
-0.736716 1.176674 -3.950141 0.382703 0.000033 0.923872
-0.737288 1.182253 -3.951522 0.330389 0.504739 0.797547
-0.738851 1.186337 -3.955296 0.188213 0.870713 0.454350
-0.740986 1.187832 -3.960450 -0.004102 0.999942 -0.009923
-0.743122 1.186337 -3.965605 -0.194403 0.861352 -0.469340
-0.744684 1.182253 -3.969378 -0.332428 0.495370 -0.802559
-0.751802 1.176674 -3.967531 -0.499985 0.000024 -0.866034
-0.751054 1.171094 -3.966237 -0.434326 -0.495349 -0.752323
-0.749012 1.167010 -3.962700 -0.254001 -0.861366 -0.439922
-0.746223 1.165515 -3.957868 -0.005412 -0.999942 -0.009359
-0.743433 1.167010 -3.953036 0.245906 -0.870698 0.425929
-0.741391 1.171094 -3.949499 0.431611 -0.504704 0.747654
-0.740643 1.176674 -3.948205 0.499949 0.000036 0.866055
-0.741391 1.182253 -3.949499 0.431616 0.504715 0.747643
-0.743433 1.186337 -3.953036 0.245901 0.870703 0.425920
-0.746223 1.187832 -3.957868 -0.005407 0.999942 -0.009350
-0.749012 1.186337 -3.962700 -0.254001 0.861366 -0.439922
-0.751054 1.182253 -3.966237 -0.434320 0.495370 -0.752313
-0.756960 1.171094 -3.962291 -0.528808 -0.495365 -0.689185
-0.757870 1.176674 -3.963477 -0.608742 0.000024 -0.793368
-0.754474 1.167010 -3.959051 -0.309243 -0.861355 -0.403034
-0.751077 1.165515 -3.954624 -0.006539 -0.999942 -0.008526
-0.747681 1.167010 -3.950198 0.299378 -0.870693 0.390213
-0.745194 1.171094 -3.946958 0.525478 -0.504721 0.684930
-0.744284 1.176674 -3.945772 0.608770 0.000010 0.793347
-0.745194 1.182253 -3.946958 0.525477 0.504753 0.684908
-0.747681 1.186337 -3.950198 0.299380 0.870696 0.390206
-0.751077 1.187832 -3.954624 -0.006532 0.999942 -0.008525
-0.754474 1.186337 -3.959051 -0.309243 0.861355 -0.403034
-0.756960 1.182253 -3.962291 -0.528800 0.495386 -0.689176
-0.762300 1.171094 -3.957608 -0.614256 -0.495370 -0.614246
-0.763357 1.176674 -3.958665 -0.707110 0.000020 -0.707104
-0.759412 1.167010 -3.954720 -0.359218 -0.861360 -0.359194
-0.755467 1.165515 -3.950775 -0.007632 -0.999942 -0.007625
-0.751522 1.167010 -3.946830 0.347761 -0.870698 0.347774
-0.748634 1.171094 -3.943942 0.610392 -0.504767 0.610435
-0.747576 1.176674 -3.942885 0.707055 0.000010 0.707158
-0.748634 1.182253 -3.943942 0.610371 0.504799 0.610431
-0.751522 1.186337 -3.946830 0.347761 0.870698 0.347774
-0.755467 1.187832 -3.950775 -0.007635 0.999942 -0.007625
-0.759412 1.186337 -3.954720 -0.359218 0.861361 -0.359192
-0.762300 1.182253 -3.957608 -0.614244 0.495394 -0.614239
-0.766983 1.171094 -3.952268 -0.689167 -0.495385 -0.528812
-0.768169 1.176674 -3.953178 -0.793361 0.000006 -0.608751
-0.763742 1.167010 -3.949782 -0.402997 -0.861377 -0.309229
-0.759316 1.165515 -3.946385 -0.008530 -0.999942 -0.006551
-0.754890 1.167010 -3.942989 0.390224 -0.870688 0.299378
-0.751650 1.171094 -3.940503 0.684917 -0.504726 0.525490
-0.750464 1.176674 -3.939593 0.793346 0.000024 0.608770
-0.751650 1.182253 -3.940503 0.684904 0.504750 0.525485
-0.754890 1.186337 -3.942989 0.390216 0.870690 0.299384
-0.759316 1.187832 -3.946385 -0.008529 0.999942 -0.006546
-0.763742 1.186337 -3.949782 -0.402995 0.861378 -0.309229
-0.766983 1.182253 -3.952268 -0.689143 0.495422 -0.528810
-0.772223 1.176674 -3.947110 -0.866025 0.000022 -0.500001
-0.770929 1.171094 -3.946363 -0.752298 -0.495353 -0.434365
-0.767392 1.167010 -3.944320 -0.439916 -0.861370 -0.254000
-0.762560 1.165515 -3.941531 -0.009355 -0.999942 -0.005401
-0.757728 1.167010 -3.938741 0.425942 -0.870694 0.245896
-0.754191 1.171094 -3.936699 0.747655 -0.504706 0.431606
-0.752896 1.176674 -3.935952 0.866062 0.000024 0.499937
-0.754191 1.182253 -3.936699 0.747645 0.504729 0.431596
-0.757728 1.186337 -3.938741 0.425945 0.870696 0.245886
-0.762560 1.187832 -3.941531 -0.009347 0.999942 -0.005403
-0.767392 1.186337 -3.944320 -0.439916 0.861370 -0.254000
-0.770929 1.182253 -3.946363 -0.752302 0.495376 -0.434332
-0.775451 1.176674 -3.940565 -0.923874 0.000036 -0.382698
-0.774070 1.171094 -3.939993 -0.802563 -0.495370 -0.332418
-0.770297 1.167010 -3.938430 -0.469335 -0.861353 -0.194410
-0.765142 1.165515 -3.936295 -0.009966 -0.999942 -0.004128
-0.759987 1.167010 -3.934160 0.454385 -0.870688 0.188245
-0.756214 1.171094 -3.932597 0.797564 -0.504737 0.330352
-0.754833 1.176674 -3.932024 0.923901 0.000024 0.382632
-0.756214 1.182253 -3.932597 0.797553 0.504757 0.330347
-0.759987 1.186337 -3.934160 0.454385 0.870688 0.188245
-0.765142 1.187832 -3.936295 -0.009962 0.999942 -0.004130
-0.770297 1.186337 -3.938430 -0.469336 0.861352 -0.194413
-0.774070 1.182253 -3.939993 -0.802552 0.495380 -0.332429
-0.777797 1.176674 -3.933654 -0.965922 0.000024 -0.258833
-0.776353 1.171094 -3.933267 -0.839075 -0.495380 -0.224839
-0.772408 1.167010 -3.932210 -0.490681 -0.861366 -0.131459
-0.767019 1.165515 -3.930766 -0.010427 -0.999942 -0.002791
-0.761630 1.167010 -3.929322 0.475035 -0.870711 0.127293
-0.757684 1.171094 -3.928265 0.833840 -0.504758 0.223452
-0.756240 1.176674 -3.927878 0.965913 0.000024 0.258866
-0.757684 1.182253 -3.928265 0.833844 0.504760 0.223431
-0.761630 1.186337 -3.929322 0.475023 0.870721 0.127271
-0.767019 1.187832 -3.930766 -0.010422 0.999942 -0.002789
-0.772408 1.186337 -3.932210 -0.490685 0.861363 -0.131460
-0.776353 1.182253 -3.933267 -0.839063 0.495401 -0.224836
-0.777739 1.171094 -3.926301 -0.861241 -0.495389 -0.113375
-0.779221 1.176674 -3.926496 -0.991447 0.000024 -0.130511
-0.773689 1.167010 -3.925768 -0.503607 -0.861385 -0.066305
-0.768158 1.165515 -3.925040 -0.010713 -0.999942 -0.001415
-0.762626 1.167010 -3.924312 0.487627 -0.870690 0.064170
-0.758577 1.171094 -3.923779 0.855893 -0.504724 0.112699
-0.757095 1.176674 -3.923584 0.991439 0.000024 0.130569
-0.758577 1.182253 -3.923779 0.855889 0.504726 0.112720
-0.762626 1.186337 -3.924312 0.487608 0.870700 0.064185
-0.768158 1.187832 -3.925040 -0.010710 0.999942 -0.001411
-0.773689 1.186337 -3.925768 -0.503609 0.861383 -0.066303
-0.777739 1.182253 -3.926301 -0.861229 0.495410 -0.113373
-0.779698 1.176674 -3.919214 -1.000000 0.000024 0.000000
-0.768540 1.165515 -3.919214 -0.010810 -0.999942 0.000000
-0.758876 1.182253 -3.919214 0.863278 0.504729 0.000001
3 0 1 2
3 2 3 4
3 3 5 4
3 5 6 7
3 7 8 9
3 9 10 11
3 10 12 11
3 12 13 14
3 13 15 14
3 16 17 15
3 18 19 17
3 20 0 19
3 21 2 22
3 2 23 22
3 23 5 24
3 24 7 25
3 25 9 26
3 9 27 26
3 27 12 28
3 12 29 28
3 14 30 29
3 15 31 30
3 31 19 32
3 32 0 21
3 21 33 34
3 33 23 35
3 35 24 36
3 24 37 36
3 25 38 37
3 38 27 39
3 27 40 39
3 40 29 41
3 29 42 41
3 42 31 43
3 43 32 44
3 44 21 34
3 34 45 46
3 33 47 45
3 47 36 48
3 48 37 49
3 49 38 50
3 50 39 51
3 39 52 51
3 40 53 52
3 53 42 54
3 42 55 54
3 55 44 56
3 56 34 46
3 46 57 58
3 45 59 57
3 59 48 60
3 48 61 60
3 61 50 62
3 62 51 63
3 51 64 63
3 52 65 64
3 53 66 65
3 66 55 67
3 67 56 68
3 68 46 58
3 58 69 70
3 57 71 69
3 71 60 72
3 72 61 73
3 73 62 74
3 62 75 74
3 75 64 76
3 64 77 76
3 77 66 78
3 78 67 79
3 79 68 80
3 80 58 70
3 81 69 82
3 69 83 82
3 83 72 84
3 72 85 84
3 73 86 85
3 74 87 86
3 87 76 88
3 88 77 89
3 89 78 90
3 78 91 90
3 91 80 92
3 80 81 92
3 93 82 94
3 82 95 94
3 95 84 96
3 84 97 96
3 85 98 97
3 98 87 99
3 87 100 99
3 100 89 101
3 101 90 102
3 90 103 102
3 103 92 104
3 92 93 104
3 93 105 106
3 94 107 105
3 107 96 108
3 108 97 109
3 97 110 109
3 98 111 110
3 99 112 111
3 112 101 113
3 101 114 113
3 102 115 114
3 103 116 115
3 116 93 106
3 117 105 118
3 105 119 118
3 107 120 119
3 120 109 121
3 109 122 121
3 110 123 122
3 111 124 123
3 112 125 124
3 113 126 125
3 126 115 127
3 115 128 127
3 116 117 128
3 117 129 130
3 129 119 131
3 119 132 131
3 132 121 133
3 121 134 133
3 134 123 135
3 123 136 135
3 124 137 136
3 137 126 138
3 138 127 139
3 139 128 140
3 140 117 130
3 141 129 142
3 142 131 143
3 143 132 144
3 144 133 145
3 133 146 145
3 146 135 147
3 135 148 147
3 148 137 149
3 149 138 150
3 150 139 151
3 139 152 151
3 152 130 141
3 141 153 154
3 142 155 153
3 143 156 155
3 156 145 157
3 157 146 158
3 158 147 159
3 147 160 159
3 148 161 160
3 149 162 161
3 150 163 162
3 151 164 163
3 164 141 154
3 154 165 166
3 165 155 167
3 167 156 168
3 168 157 169
3 169 158 170
3 170 159 171
3 159 172 171
3 172 161 173
3 161 174 173
3 162 175 174
3 163 176 175
3 176 154 166
3 166 177 178
3 165 179 177
3 179 168 180
3 168 181 180
3 181 170 182
3 182 171 183
3 183 172 184
3 172 185 184
3 185 174 186
3 174 187 186
3 187 176 188
3 188 166 178
3 189 177 190
3 190 179 191
3 179 192 191
3 180 193 192
3 193 182 194
3 182 195 194
3 183 196 195
3 184 197 196
3 197 186 198
3 186 199 198
3 187 200 199
3 188 189 200
3 189 201 202
3 201 191 203
3 203 192 204
3 192 205 204
3 205 194 206
3 206 195 207
3 207 196 208
3 196 209 208
3 209 198 210
3 210 199 211
3 199 212 211
3 212 189 202
3 202 213 214
3 213 203 215
3 203 216 215
3 204 217 216
3 217 206 218
3 218 207 219
3 207 220 219
3 208 221 220
3 209 222 221
3 222 211 223
3 211 224 223
3 224 202 214
3 225 213 226
3 226 215 227
3 227 216 228
3 216 229 228
3 229 218 230
3 218 231 230
3 219 232 231
3 220 233 232
3 221 234 233
3 234 223 235
3 223 236 235
3 224 225 236
3 237 226 238
3 238 227 239
3 227 240 239
3 228 241 240
3 229 242 241
3 230 243 242
3 231 244 243
3 232 245 244
3 233 246 245
3 234 247 246
3 235 248 247
3 236 237 248
3 249 238 250
3 250 239 251
3 239 252 251
3 240 253 252
3 253 242 254
3 254 243 255
3 243 256 255
3 256 245 257
3 245 258 257
3 258 247 259
3 247 260 259
3 248 249 260
3 261 250 262
3 250 263 262
3 251 264 263
3 264 253 265
3 253 266 265
3 254 267 266
3 267 256 268
3 256 269 268
3 257 270 269
3 258 271 270
3 271 260 272
3 260 261 272
3 261 273 274
3 273 263 275
3 263 276 275
3 276 265 277
3 265 278 277
3 278 267 279
3 267 280 279
3 280 269 281
3 281 270 282
3 282 271 283
3 271 284 283
3 284 261 274
3 274 285 286
3 285 275 287
3 275 288 287
3 288 277 289
3 277 290 289
3 290 279 291
3 279 292 291
3 280 293 292
3 281 294 293
3 294 283 295
3 283 296 295
3 296 274 286
3 297 285 298
3 298 287 299
3 299 288 300
3 288 301 300
3 301 290 302
3 290 303 302
3 303 292 304
3 292 305 304
3 305 294 306
3 306 295 307
3 295 308 307
3 296 297 308
3 309 298 310
3 298 311 310
3 311 300 312
3 300 313 312
3 313 302 314
3 314 303 315
3 315 304 316
3 304 317 316
3 305 318 317
3 306 319 318
3 319 308 320
3 308 309 320
3 321 310 322
3 310 323 322
3 311 324 323
3 312 325 324
3 325 314 326
3 326 315 327
3 327 316 328
3 328 317 329
3 329 318 330
3 330 319 331
3 331 320 332
3 320 321 332
3 321 333 334
3 322 335 333
3 335 324 336
3 324 337 336
3 325 338 337
3 338 327 339
3 327 340 339
3 328 341 340
3 341 330 342
3 330 343 342
3 343 332 344
3 332 334 344
3 334 345 346
3 333 347 345
3 347 336 348
3 348 337 349
3 349 338 350
3 350 339 351
3 351 340 352
3 340 353 352
3 353 342 354
3 342 355 354
3 355 344 356
3 344 346 356
3 346 357 358
3 357 347 359
3 359 348 360
3 348 361 360
3 361 350 362
3 362 351 363
3 351 364 363
3 352 365 364
3 353 366 365
3 354 367 366
3 367 356 368
3 368 346 358
3 358 369 370
3 357 371 369
3 371 360 372
3 360 373 372
3 361 374 373
3 362 375 374
3 363 376 375
3 364 377 376
3 365 378 377
3 366 379 378
3 379 368 380
3 380 358 370
3 381 369 382
3 369 383 382
3 383 372 384
3 372 385 384
3 385 374 386
3 374 387 386
3 387 376 388
3 376 389 388
3 389 378 390
3 378 391 390
3 391 380 392
3 380 381 392
3 381 393 394
3 382 395 393
3 395 384 396
3 396 385 397
3 385 398 397
3 386 399 398
3 399 388 400
3 400 389 401
3 389 402 401
3 402 391 403
3 403 392 404
3 404 381 394
3 405 393 406
3 406 395 407
3 395 408 407
3 408 397 409
3 409 398 410
3 398 411 410
3 411 400 412
3 400 413 412
3 413 402 414
3 414 403 415
3 403 416 415
3 404 405 416
3 417 406 418
3 418 407 419
3 419 408 420
3 420 409 421
3 421 410 422
3 422 411 423
3 423 412 424
3 424 413 425
3 413 426 425
3 414 427 426
3 427 416 428
3 428 405 417
3 429 418 430
3 418 431 430
3 419 432 431
3 420 433 432
3 421 434 433
3 434 423 435
3 435 424 436
3 436 425 437
3 437 426 438
3 438 427 439
3 439 428 440
3 440 417 429
3 429 441 442
3 441 431 443
3 431 444 443
3 444 433 445
3 445 434 446
3 446 435 447
3 447 436 448
3 436 449 448
3 437 450 449
3 438 451 450
3 439 452 451
3 452 429 442
3 453 441 454
3 441 455 454
3 455 444 456
3 444 457 456
3 457 446 458
3 446 459 458
3 459 448 460
3 460 449 461
3 461 450 462
3 462 451 463
3 451 464 463
3 452 453 464
3 453 465 466
3 465 455 467
3 467 456 468
3 468 457 469
3 469 458 470
3 470 459 471
3 471 460 472
3 472 461 473
3 473 462 474
3 474 463 475
3 475 464 476
3 476 453 466
3 477 465 478
3 478 467 479
3 467 480 479
3 468 481 480
3 481 470 482
3 482 471 483
3 483 472 484
3 472 485 484
3 473 486 485
3 486 475 487
3 475 488 487
3 476 477 488
3 477 489 490
3 489 479 491
3 479 492 491
3 492 481 493
3 481 494 493
3 494 483 495
3 483 496 495
3 496 485 497
3 497 486 498
3 498 487 499
3 487 500 499
3 500 477 490
3 490 501 502
3 489 503 501
3 491 504 503
3 504 493 505
3 493 506 505
3 506 495 507
3 507 496 508
3 508 497 509
3 497 510 509
3 510 499 511
3 511 500 512
3 512 490 502
3 502 513 514
3 513 503 515
3 515 504 516
3 504 517 516
3 505 518 517
3 518 507 519
3 507 520 519
3 520 509 521
3 521 510 522
3 522 511 523
3 511 524 523
3 512 514 524
3 525 513 526
3 526 515 527
3 515 528 527
3 516 529 528
3 517 530 529
3 518 531 530
3 531 520 532
3 520 533 532
3 521 534 533
3 534 523 535
3 523 536 535
3 536 514 525
3 537 526 538
3 538 527 539
3 527 540 539
3 528 541 540
3 541 530 542
3 542 531 543
3 531 544 543
3 532 545 544
3 545 534 546
3 546 535 547
3 535 548 547
3 548 525 537
3 549 538 550
3 550 539 551
3 551 540 552
3 552 541 553
3 553 542 554
3 542 555 554
3 555 544 556
3 544 557 556
3 545 558 557
3 558 547 559
3 547 560 559
3 548 549 560
3 549 561 562
3 561 551 563
3 563 552 564
3 552 565 564
3 553 566 565
3 554 567 566
3 567 556 568
3 556 569 568
3 569 558 570
3 570 559 571
3 559 572 571
3 572 549 562
3 562 1 573
3 561 3 1
3 3 564 574
3 564 6 574
3 565 8 6
3 566 10 8
3 10 568 575
3 575 569 13
3 13 570 16
3 570 18 16
3 18 572 20
3 20 562 573
3 573 1 0
3 1 3 2
3 574 5 3
3 574 6 5
3 6 8 7
3 8 10 9
3 575 12 10
3 575 13 12
3 16 15 13
3 18 17 16
3 20 19 18
3 573 0 20
3 0 2 21
3 4 23 2
3 4 5 23
3 5 7 24
3 7 9 25
3 11 27 9
3 11 12 27
3 14 29 12
3 15 30 14
3 17 31 15
3 17 19 31
3 19 0 32
3 22 33 21
3 22 23 33
3 23 24 35
3 25 37 24
3 26 38 25
3 26 27 38
3 28 40 27
3 28 29 40
3 30 42 29
3 30 31 42
3 31 32 43
3 32 21 44
3 33 45 34
3 35 47 33
3 35 36 47
3 36 37 48
3 37 38 49
3 38 39 50
3 40 52 39
3 41 53 40
3 41 42 53
3 43 55 42
3 43 44 55
3 44 34 56
3 45 57 46
3 47 59 45
3 47 48 59
3 49 61 48
3 49 50 61
3 50 51 62
3 52 64 51
3 53 65 52
3 54 66 53
3 54 55 66
3 55 56 67
3 56 46 68
3 57 69 58
3 59 71 57
3 59 60 71
3 60 61 72
3 61 62 73
3 63 75 62
3 63 64 75
3 65 77 64
3 65 66 77
3 66 67 78
3 67 68 79
3 68 58 80
3 70 69 81
3 71 83 69
3 71 72 83
3 73 85 72
3 74 86 73
3 75 87 74
3 75 76 87
3 76 77 88
3 77 78 89
3 79 91 78
3 79 80 91
3 70 81 80
3 81 82 93
3 83 95 82
3 83 84 95
3 85 97 84
3 86 98 85
3 86 87 98
3 88 100 87
3 88 89 100
3 89 90 101
3 91 103 90
3 91 92 103
3 81 93 92
3 94 105 93
3 95 107 94
3 95 96 107
3 96 97 108
3 98 110 97
3 99 111 98
3 100 112 99
3 100 101 112
3 102 114 101
3 103 115 102
3 104 116 103
3 104 93 116
3 106 105 117
3 107 119 105
3 108 120 107
3 108 109 120
3 110 122 109
3 111 123 110
3 112 124 111
3 113 125 112
3 114 126 113
3 114 115 126
3 116 128 115
3 106 117 116
3 118 129 117
3 118 119 129
3 120 132 119
3 120 121 132
3 122 134 121
3 122 123 134
3 124 136 123
3 125 137 124
3 125 126 137
3 126 127 138
3 127 128 139
3 128 117 140
3 130 129 141
3 129 131 142
3 131 132 143
3 132 133 144
3 134 146 133
3 134 135 146
3 136 148 135
3 136 137 148
3 137 138 149
3 138 139 150
3 140 152 139
3 140 130 152
3 142 153 141
3 143 155 142
3 144 156 143
3 144 145 156
3 145 146 157
3 146 147 158
3 148 160 147
3 149 161 148
3 150 162 149
3 151 163 150
3 152 164 151
3 152 141 164
3 153 165 154
3 153 155 165
3 155 156 167
3 156 157 168
3 157 158 169
3 158 159 170
3 160 172 159
3 160 161 172
3 162 174 161
3 163 175 162
3 164 176 163
3 164 154 176
3 165 177 166
3 167 179 165
3 167 168 179
3 169 181 168
3 169 170 181
3 170 171 182
3 171 172 183
3 173 185 172
3 173 174 185
3 175 187 174
3 175 176 187
3 176 166 188
3 178 177 189
3 177 179 190
3 180 192 179
3 181 193 180
3 181 182 193
3 183 195 182
3 184 196 183
3 185 197 184
3 185 186 197
3 187 199 186
3 188 200 187
3 178 189 188
3 190 201 189
3 190 191 201
3 191 192 203
3 193 205 192
3 193 194 205
3 194 195 206
3 195 196 207
3 197 209 196
3 197 198 209
3 198 199 210
3 200 212 199
3 200 189 212
3 201 213 202
3 201 203 213
3 204 216 203
3 205 217 204
3 205 206 217
3 206 207 218
3 208 220 207
3 209 221 208
3 210 222 209
3 210 211 222
3 212 224 211
3 212 202 224
3 214 213 225
3 213 215 226
3 215 216 227
3 217 229 216
3 217 218 229
3 219 231 218
3 220 232 219
3 221 233 220
3 222 234 221
3 222 223 234
3 224 236 223
3 214 225 224
3 225 226 237
3 226 227 238
3 228 240 227
3 229 241 228
3 230 242 229
3 231 243 230
3 232 244 231
3 233 245 232
3 234 246 233
3 235 247 234
3 236 248 235
3 225 237 236
3 237 238 249
3 238 239 250
3 240 252 239
3 241 253 240
3 241 242 253
3 242 243 254
3 244 256 243
3 244 245 256
3 246 258 245
3 246 247 258
3 248 260 247
3 237 249 248
3 249 250 261
3 251 263 250
3 252 264 251
3 252 253 264
3 254 266 253
3 255 267 254
3 255 256 267
3 257 269 256
3 258 270 257
3 259 271 258
3 259 260 271
3 249 261 260
3 262 273 261
3 262 263 273
3 264 276 263
3 264 265 276
3 266 278 265
3 266 267 278
3 268 280 267
3 268 269 280
3 269 270 281
3 270 271 282
3 272 284 271
3 272 261 284
3 273 285 274
3 273 275 285
3 276 288 275
3 276 277 288
3 278 290 277
3 278 279 290
3 280 292 279
3 281 293 280
3 282 294 281
3 282 283 294
3 284 296 283
3 284 274 296
3 286 285 297
3 285 287 298
3 287 288 299
3 289 301 288
3 289 290 301
3 291 303 290
3 291 292 303
3 293 305 292
3 293 294 305
3 294 295 306
3 296 308 295
3 286 297 296
3 297 298 309
3 299 311 298
3 299 300 311
3 301 313 300
3 301 302 313
3 302 303 314
3 303 304 315
3 305 317 304
3 306 318 305
3 307 319 306
3 307 308 319
3 297 309 308
3 309 310 321
3 311 323 310
3 312 324 311
3 313 325 312
3 313 314 325
3 314 315 326
3 315 316 327
3 316 317 328
3 317 318 329
3 318 319 330
3 319 320 331
3 309 321 320
3 322 333 321
3 323 335 322
3 323 324 335
3 325 337 324
3 326 338 325
3 326 327 338
3 328 340 327
3 329 341 328
3 329 330 341
3 331 343 330
3 331 332 343
3 321 334 332
3 333 345 334
3 335 347 333
3 335 336 347
3 336 337 348
3 337 338 349
3 338 339 350
3 339 340 351
3 341 353 340
3 341 342 353
3 343 355 342
3 343 344 355
3 334 346 344
3 345 357 346
3 345 347 357
3 347 348 359
3 349 361 348
3 349 350 361
3 350 351 362
3 352 364 351
3 353 365 352
3 354 366 353
3 355 367 354
3 355 356 367
3 356 346 368
3 357 369 358
3 359 371 357
3 359 360 371
3 361 373 360
3 362 374 361
3 363 375 362
3 364 376 363
3 365 377 364
3 366 378 365
3 367 379 366
3 367 368 379
3 368 358 380
3 370 369 381
3 371 383 369
3 371 372 383
3 373 385 372
3 373 374 385
3 375 387 374
3 375 376 387
3 377 389 376
3 377 378 389
3 379 391 378
3 379 380 391
3 370 381 380
3 382 393 381
3 383 395 382
3 383 384 395
3 384 385 396
3 386 398 385
3 387 399 386
3 387 388 399
3 388 389 400
3 390 402 389
3 390 391 402
3 391 392 403
3 392 381 404
3 394 393 405
3 393 395 406
3 396 408 395
3 396 397 408
3 397 398 409
3 399 411 398
3 399 400 411
3 401 413 400
3 401 402 413
3 402 403 414
3 404 416 403
3 394 405 404
3 405 406 417
3 406 407 418
3 407 408 419
3 408 409 420
3 409 410 421
3 410 411 422
3 411 412 423
3 412 413 424
3 414 426 413
3 415 427 414
3 415 416 427
3 416 405 428
3 417 418 429
3 419 431 418
3 420 432 419
3 421 433 420
3 422 434 421
3 422 423 434
3 423 424 435
3 424 425 436
3 425 426 437
3 426 427 438
3 427 428 439
3 428 417 440
3 430 441 429
3 430 431 441
3 432 444 431
3 432 433 444
3 433 434 445
3 434 435 446
3 435 436 447
3 437 449 436
3 438 450 437
3 439 451 438
3 440 452 439
3 440 429 452
3 442 441 453
3 443 455 441
3 443 444 455
3 445 457 444
3 445 446 457
3 447 459 446
3 447 448 459
3 448 449 460
3 449 450 461
3 450 451 462
3 452 464 451
3 442 453 452
3 454 465 453
3 454 455 465
3 455 456 467
3 456 457 468
3 457 458 469
3 458 459 470
3 459 460 471
3 460 461 472
3 461 462 473
3 462 463 474
3 463 464 475
3 464 453 476
3 466 465 477
3 465 467 478
3 468 480 467
3 469 481 468
3 469 470 481
3 470 471 482
3 471 472 483
3 473 485 472
3 474 486 473
3 474 475 486
3 476 488 475
3 466 477 476
3 478 489 477
3 478 479 489
3 480 492 479
3 480 481 492
3 482 494 481
3 482 483 494
3 484 496 483
3 484 485 496
3 485 486 497
3 486 487 498
3 488 500 487
3 488 477 500
3 489 501 490
3 491 503 489
3 492 504 491
3 492 493 504
3 494 506 493
3 494 495 506
3 495 496 507
3 496 497 508
3 498 510 497
3 498 499 510
3 499 500 511
3 500 490 512
3 501 513 502
3 501 503 513
3 503 504 515
3 505 517 504
3 506 518 505
3 506 507 518
3 508 520 507
3 508 509 520
3 509 510 521
3 510 511 522
3 512 524 511
3 502 514 512
3 514 513 525
3 513 515 526
3 516 528 515
3 517 529 516
3 518 530 517
3 519 531 518
3 519 520 531
3 521 533 520
3 522 534 521
3 522 523 534
3 524 536 523
3 524 514 536
3 525 526 537
3 526 527 538
3 528 540 527
3 529 541 528
3 529 530 541
3 530 531 542
3 532 544 531
3 533 545 532
3 533 534 545
3 534 535 546
3 536 548 535
3 536 525 548
3 537 538 549
3 538 539 550
3 539 540 551
3 540 541 552
3 541 542 553
3 543 555 542
3 543 544 555
3 545 557 544
3 546 558 545
3 546 547 558
3 548 560 547
3 537 549 548
3 550 561 549
3 550 551 561
3 551 552 563
3 553 565 552
3 554 566 553
3 555 567 554
3 555 556 567
3 557 569 556
3 557 558 569
3 558 559 570
3 560 572 559
3 560 549 572
3 561 1 562
3 563 3 561
3 563 564 3
3 565 6 564
3 566 8 565
3 567 10 566
3 567 568 10
3 568 569 575
3 569 570 13
3 571 18 570
3 571 572 18
3 572 562 20
