ply
format ascii 1.0
comment Created by Blender 3.6.2 - www.blender.org
element vertex 90
property float x
property float y
property float z
property float nx
property float ny
property float nz
element face 112
property list uchar uint vertex_indices
end_header
0.556059 4.842664 -5.119058 0.273322 -0.273334 0.922271
-0.276203 4.840397 -5.121229 -0.000001 -0.691447 0.722427
0.558326 4.840397 -5.121229 0.396491 -0.396486 0.828006
0.553792 4.844931 -5.119392 -0.143843 0.143831 0.979092
-0.273936 4.842665 -5.119058 -0.000001 -0.509685 0.860361
-0.264872 4.851728 -5.124637 0.000001 0.553603 0.832781
0.546995 4.851728 -5.124637 -0.300775 0.300781 0.905022
0.541211 4.857512 -5.127041 -0.145587 0.145585 0.978575
-0.253118 4.863482 -5.126898 0.000000 -0.174275 0.984697
0.535241 4.863482 -5.126898 0.087814 -0.087818 0.992258
0.531181 4.867543 -5.124171 0.248604 -0.248533 0.936177
0.528309 4.870414 -5.123618 0.002620 -0.002670 0.999993
-0.249057 4.867543 -5.124171 -0.000000 -0.468930 0.883235
0.525437 4.873286 -5.125272 -0.335796 0.335801 0.880045
-0.246186 4.870415 -5.123618 -0.000000 -0.005244 0.999986
0.522888 4.875835 -5.128762 -0.395607 0.395591 0.828856
-0.243314 4.873287 -5.125272 0.000001 0.606718 0.794917
0.520382 4.878341 -5.129488 0.025315 -0.025328 0.999359
-0.240765 4.875835 -5.128762 0.000000 0.690574 0.723262
0.518848 4.879875 -5.127551 0.368807 -0.368801 0.853210
-0.238259 4.878342 -5.129488 -0.000000 -0.050723 0.998713
-0.234284 4.882316 -5.127085 0.000000 0.056823 0.998384
0.516407 4.882316 -5.127085 -0.028482 0.028481 0.999188
0.513856 4.884867 -5.129325 -0.548333 0.548359 0.631374
-0.231538 4.885062 -5.134422 0.000001 0.999276 0.038050
0.513662 4.885062 -5.134422 -0.706125 0.706033 0.053894
0.558326 5.868393 -5.121229 0.396570 0.396521 0.827951
0.556059 5.866127 -5.119058 0.273317 0.273434 0.922243
0.553792 5.863859 -5.119392 -0.143843 -0.143813 0.979095
0.546995 5.857062 -5.124637 -0.300782 -0.300769 0.905024
0.541211 5.851279 -5.127041 -0.145583 -0.145612 0.978572
0.535241 5.845309 -5.126898 0.087817 0.087821 0.992258
0.531181 5.841248 -5.124171 0.248594 0.248550 0.936175
0.528309 5.838376 -5.123618 0.002615 0.002620 0.999993
0.525437 5.835505 -5.125272 -0.335789 -0.335862 0.880024
0.522888 5.832956 -5.128762 -0.395604 -0.395590 0.828858
0.520382 5.830449 -5.129488 0.025303 0.025327 0.999359
0.518848 5.828916 -5.127552 0.368750 0.368888 0.853197
0.516407 5.826475 -5.127085 -0.028321 -0.028329 0.999197
0.513856 5.823923 -5.129325 -0.548387 -0.548293 0.631384
0.513662 5.823729 -5.134422 -0.706090 -0.706078 0.053762
-0.273936 5.866127 -5.119058 0.000000 0.510053 0.860143
-0.276203 5.868393 -5.121229 0.000000 0.691826 0.722064
-0.271669 5.863860 -5.119392 -0.000000 -0.281894 0.959446
-0.264872 5.857062 -5.124637 0.000000 -0.553514 0.832840
-0.259088 5.851279 -5.127041 0.000000 -0.285234 0.958458
-0.253118 5.845309 -5.126898 0.000000 0.174283 0.984696
-0.249057 5.841248 -5.124171 0.000000 0.468997 0.883200
-0.246186 5.838377 -5.123618 -0.000000 0.005300 0.999986
-0.243314 5.835505 -5.125272 0.000000 -0.606661 0.794961
-0.240765 5.832956 -5.128762 0.000000 -0.690487 0.723345
-0.238259 5.830450 -5.129488 0.000000 0.050483 0.998725
-0.236725 5.828916 -5.127552 0.000000 0.653941 0.756545
-0.234284 5.826475 -5.127085 0.000000 -0.056633 0.998395
-0.231733 5.823924 -5.129325 -0.000001 -0.866614 0.498980
-0.231538 5.823729 -5.134422 -0.000001 -0.999269 0.038235
-0.273936 4.842665 -5.119058 -0.509907 0.000000 0.860230
-0.276203 5.868393 -5.121229 -0.691655 0.000000 0.722228
-0.276203 4.840397 -5.121229 -0.691655 0.000000 0.722228
-0.271669 5.863860 -5.119392 0.281899 0.000000 0.959444
-0.271669 4.844932 -5.119392 0.281917 0.000000 0.959439
-0.264872 5.857062 -5.124637 0.553553 0.000000 0.832814
-0.264872 4.851728 -5.124637 0.553554 0.000000 0.832813
-0.259088 4.857512 -5.127041 0.285190 0.000000 0.958471
-0.253118 5.845309 -5.126898 -0.174282 0.000000 0.984696
-0.253118 4.863482 -5.126898 -0.174275 0.000000 0.984697
-0.249057 4.867543 -5.124171 -0.468992 0.000000 0.883202
-0.246186 4.870415 -5.123618 -0.005314 0.000000 0.999986
-0.249057 5.841248 -5.124171 -0.468978 0.000000 0.883210
-0.243314 4.873287 -5.125272 0.606682 0.000000 0.794945
-0.246186 5.838377 -5.123618 -0.005301 0.000000 0.999986
-0.240765 5.832956 -5.128762 0.690487 0.000000 0.723345
-0.240765 4.875835 -5.128762 0.690515 0.000000 0.723318
-0.238259 4.878342 -5.129488 -0.050570 0.000000 0.998720
-0.236725 5.828916 -5.127552 -0.653933 0.000000 0.756553
-0.236725 4.879876 -5.127551 -0.653963 0.000000 0.756527
-0.234284 5.826475 -5.127085 0.056637 0.000001 0.998395
-0.234284 4.882316 -5.127085 0.056900 0.000000 0.998380
-0.231733 4.884868 -5.129325 0.866622 0.000000 0.498965
-0.231538 4.885062 -5.134422 0.999269 0.000000 0.038230
-0.231733 5.823924 -5.129325 0.866619 0.000000 0.498971
-0.271669 4.844932 -5.119392 0.000000 0.281925 0.959436
-0.259088 4.857512 -5.127041 0.000000 0.285188 0.958471
-0.236725 4.879876 -5.127551 -0.000001 -0.654043 0.756458
-0.231733 4.884868 -5.129325 0.000001 0.866599 0.499006
-0.273936 5.866127 -5.119058 -0.509863 0.000000 0.860256
-0.259088 5.851279 -5.127041 0.285187 0.000000 0.958472
-0.243314 5.835505 -5.125272 0.606665 0.000000 0.794958
-0.238259 5.830450 -5.129488 -0.050515 0.000000 0.998723
-0.231538 5.823729 -5.134422 0.999269 0.000000 0.038230
3 0 1 2
3 3 4 0
3 5 3 6
3 7 5 6
3 8 7 9
3 10 8 9
3 11 12 10
3 13 14 11
3 15 16 13
3 17 18 15
3 19 20 17
3 21 19 22
3 23 21 22
3 24 23 25
3 0 26 27
3 28 0 27
3 6 28 29
3 30 6 29
3 9 30 31
3 32 9 31
3 33 10 32
3 13 33 34
3 35 13 34
3 36 15 35
3 19 36 37
3 38 19 37
3 39 22 38
3 40 23 39
3 41 26 42
3 43 27 41
3 29 43 44
3 45 29 44
3 31 45 46
3 47 31 46
3 48 32 47
3 34 48 49
3 50 34 49
3 51 35 50
3 37 51 52
3 38 52 53
3 54 38 53
3 55 39 54
3 56 57 58
3 59 56 60
3 61 60 62
3 63 61 62
3 64 63 65
3 66 64 65
3 67 68 66
3 69 70 67
3 71 69 72
3 73 71 72
3 74 73 75
3 76 75 77
3 78 76 77
3 79 80 78
3 4 1 0
3 81 4 3
3 81 3 5
3 82 5 7
3 82 7 8
3 12 8 10
3 14 12 11
3 16 14 13
3 18 16 15
3 20 18 17
3 83 20 19
3 83 19 21
3 84 21 23
3 84 23 24
3 2 26 0
3 3 0 28
3 3 28 6
3 7 6 30
3 7 30 9
3 10 9 32
3 11 10 33
3 11 33 13
3 15 13 35
3 17 15 36
3 17 36 19
3 22 19 38
3 23 22 39
3 25 23 40
3 27 26 41
3 28 27 43
3 28 43 29
3 30 29 45
3 30 45 31
3 32 31 47
3 33 32 48
3 33 48 34
3 35 34 50
3 36 35 51
3 36 51 37
3 37 52 38
3 39 38 54
3 40 39 55
3 85 57 56
3 85 56 59
3 59 60 61
3 86 61 63
3 86 63 64
3 68 64 66
3 70 68 67
3 87 70 69
3 87 69 71
3 88 71 73
3 88 73 74
3 74 75 76
3 80 76 78
3 89 80 79
