ply
format ascii 1.0
comment Created by Blender 3.6.2 - www.blender.org
element vertex 90
property float x
property float y
property float z
property float nx
property float ny
property float nz
element face 112
property list uchar uint vertex_indices
end_header
2.461745 3.272379 -2.097397 -0.922337 -0.273231 0.273203
2.464077 3.269944 -2.991416 -0.722217 -0.691667 -0.000000
2.464077 3.269943 -2.094961 -0.828119 -0.396366 0.396375
2.462104 3.274814 -2.986546 -0.959405 0.282031 0.000000
2.462104 3.274814 -2.099832 -0.979070 0.143910 -0.143913
2.467738 3.282116 -2.979244 -0.832824 0.553538 0.000000
2.467738 3.282115 -2.107134 -0.905025 0.300791 -0.300756
2.470321 3.288328 -2.973032 -0.958435 0.285310 0.000000
2.470321 3.288328 -2.113346 -0.978558 0.145629 -0.145658
2.470167 3.294741 -2.119759 -0.992253 -0.087848 0.087849
2.467237 3.299103 -2.962257 -0.883157 -0.469077 -0.000001
2.467237 3.299103 -2.124121 -0.936179 -0.248557 0.248571
2.466644 3.302188 -2.127206 -0.999993 -0.002560 0.002554
2.468420 3.305273 -2.130291 -0.880064 0.335765 -0.335781
2.466644 3.302188 -2.959172 -0.999987 -0.005132 0.000000
2.472169 3.308011 -2.953349 -0.723219 0.690619 0.000001
2.472169 3.308011 -2.133029 -0.828803 0.395656 -0.395655
2.472950 3.310704 -2.950657 -0.998724 -0.050495 -0.000000
2.472950 3.310703 -2.135721 -0.999365 -0.025201 0.025203
2.470869 3.312351 -2.137369 -0.853171 -0.368850 0.368848
2.470368 3.314973 -2.946387 -0.998391 0.056700 0.000000
2.470368 3.314973 -2.139991 -0.999194 0.028376 -0.028376
2.472774 3.317714 -2.142732 -0.631414 0.548324 -0.548322
2.478249 3.317923 -2.142941 -0.053931 0.706080 -0.706075
2.472774 3.317714 -2.943646 -0.498948 0.866632 0.000000
2.464077 4.374222 -2.094961 -0.828055 0.396413 0.396460
2.461745 4.371787 -2.097397 -0.922306 0.273341 0.273197
2.462104 4.369351 -2.099832 -0.979074 -0.143879 -0.143920
2.467738 4.362050 -2.107134 -0.905024 -0.300797 -0.300754
2.470321 4.355837 -2.113346 -0.978559 -0.145623 -0.145658
2.470167 4.349424 -2.119759 -0.992253 0.087848 0.087847
2.467237 4.345062 -2.124121 -0.936178 0.248558 0.248574
2.466644 4.341977 -2.127206 -0.999994 0.002534 0.002521
2.468421 4.338892 -2.130291 -0.880015 -0.335828 -0.335847
2.472169 4.336154 -2.133029 -0.828845 -0.395611 -0.395612
2.472950 4.333462 -2.135721 -0.999366 0.025182 0.025185
2.470869 4.331814 -2.137369 -0.853189 0.368793 0.368865
2.470368 4.329193 -2.139991 -0.999196 -0.028325 -0.028375
2.472774 4.326452 -2.142732 -0.631428 -0.548290 -0.548340
2.478249 4.326243 -2.142941 -0.053900 -0.706093 -0.706065
2.461745 4.371787 -2.988981 -0.860263 0.509850 0.000000
2.464077 4.374222 -2.991416 -0.722183 0.691703 0.000000
2.462104 4.369351 -2.986546 -0.959413 -0.282006 0.000000
2.467738 4.362050 -2.979244 -0.832804 -0.553568 0.000000
2.470321 4.355837 -2.973032 -0.958448 -0.285266 0.000000
2.470167 4.349424 -2.966619 -0.984691 0.174307 0.000000
2.467238 4.345062 -2.962257 -0.883205 0.468988 -0.000000
2.466644 4.341978 -2.959172 -0.999986 0.005352 -0.000001
2.468421 4.338892 -2.956087 -0.794974 -0.606643 0.000000
2.472169 4.336154 -2.953349 -0.723321 -0.690512 0.000000
2.472950 4.333462 -2.950657 -0.998731 0.050359 0.000000
2.470869 4.331815 -2.949009 -0.756359 0.654156 0.000000
2.470368 4.329193 -2.946387 -0.998394 -0.056655 0.000000
2.472774 4.326452 -2.943646 -0.498976 -0.866616 0.000000
2.478249 4.326243 -2.943438 -0.038119 -0.999273 0.000000
2.461745 3.272379 -2.988981 -0.860263 0.000000 -0.509850
2.464077 4.374222 -2.991416 -0.722216 0.000000 -0.691667
2.464077 3.269944 -2.991416 -0.722216 0.000000 -0.691667
2.462104 4.369351 -2.986546 -0.959406 0.000000 0.282030
2.462104 3.274814 -2.986546 -0.959405 0.000000 0.282032
2.467738 3.282116 -2.979244 -0.832824 0.000000 0.553538
2.470321 3.288328 -2.973032 -0.958431 0.000000 0.285326
2.467738 4.362050 -2.979244 -0.832822 0.000000 0.553541
2.470167 3.294742 -2.966619 -0.984681 0.000000 -0.174365
2.470321 4.355837 -2.973032 -0.958432 0.000000 0.285320
2.467238 4.345062 -2.962257 -0.883231 0.000000 -0.468938
2.467237 3.299103 -2.962257 -0.883205 0.000001 -0.468986
2.466644 3.302188 -2.959172 -0.999987 0.000001 -0.005149
2.468420 3.305274 -2.956087 -0.794977 0.000000 0.606640
2.466644 4.341978 -2.959172 -0.999986 0.000000 -0.005295
2.472169 3.308011 -2.953349 -0.723270 0.000000 0.690565
2.468421 4.338892 -2.956087 -0.794911 0.000001 0.606726
2.472950 3.310704 -2.950657 -0.998727 0.000000 -0.050442
2.472169 4.336154 -2.953349 -0.723347 0.000000 0.690485
2.470869 3.312351 -2.949009 -0.756446 0.000000 -0.654057
2.472950 4.333462 -2.950657 -0.998727 0.000000 -0.050433
2.470368 3.314973 -2.946387 -0.998392 0.000000 0.056685
2.470869 4.331815 -2.949009 -0.756449 0.000000 -0.654053
2.472774 4.326452 -2.943646 -0.498919 0.000000 0.866648
2.472774 3.317714 -2.943646 -0.498920 0.000000 0.866648
2.478249 4.326243 -2.943438 -0.037945 0.000000 0.999280
2.478249 3.317923 -2.943438 -0.037945 0.000000 0.999280
2.461745 3.272379 -2.988981 -0.860264 -0.509850 0.000000
2.470167 3.294742 -2.966619 -0.984680 -0.174372 -0.000000
2.468420 3.305274 -2.956087 -0.795020 0.606584 0.000001
2.470869 3.312351 -2.949009 -0.756305 -0.654220 0.000000
2.478249 3.317923 -2.943438 -0.038162 0.999271 0.000000
2.461745 4.371787 -2.988981 -0.860237 0.000000 -0.509895
2.470167 4.349424 -2.966619 -0.984692 0.000000 -0.174307
2.470368 4.329193 -2.946387 -0.998393 0.000000 0.056674
3 0 1 2
3 3 0 4
3 5 4 6
3 7 6 8
3 9 7 8
3 10 9 11
3 12 10 11
3 13 14 12
3 15 13 16
3 17 16 18
3 19 17 18
3 20 19 21
3 22 20 21
3 23 24 22
3 0 25 26
3 27 0 26
3 28 4 27
3 8 28 29
3 30 8 29
3 31 9 30
3 32 11 31
3 13 32 33
3 34 13 33
3 18 34 35
3 36 18 35
3 21 36 37
3 38 21 37
3 39 22 38
3 40 25 41
3 42 26 40
3 28 42 43
3 44 28 43
3 30 44 45
3 46 30 45
3 47 31 46
3 33 47 48
3 49 33 48
3 50 34 49
3 51 35 50
3 37 51 52
3 38 52 53
3 54 38 53
3 55 56 57
3 58 55 59
3 60 58 59
3 61 62 60
3 63 64 61
3 65 63 66
3 67 65 66
3 68 69 67
3 70 71 68
3 72 73 70
3 74 75 72
3 76 77 74
3 78 76 79
3 80 79 81
3 82 1 0
3 82 0 3
3 3 4 5
3 5 6 7
3 83 7 9
3 83 9 10
3 14 10 12
3 84 14 13
3 84 13 15
3 15 16 17
3 85 17 19
3 85 19 20
3 24 20 22
3 86 24 23
3 2 25 0
3 4 0 27
3 6 4 28
3 6 28 8
3 9 8 30
3 11 9 31
3 12 11 32
3 12 32 13
3 16 13 34
3 16 34 18
3 19 18 36
3 19 36 21
3 22 21 38
3 23 22 39
3 26 25 40
3 27 26 42
3 27 42 28
3 29 28 44
3 29 44 30
3 31 30 46
3 32 31 47
3 32 47 33
3 34 33 49
3 35 34 50
3 36 35 51
3 36 51 37
3 37 52 38
3 39 38 54
3 87 56 55
3 87 55 58
3 62 58 60
3 64 62 61
3 88 64 63
3 88 63 65
3 69 65 67
3 71 69 68
3 73 71 70
3 75 73 72
3 77 75 74
3 89 77 76
3 89 76 78
3 78 79 80
