ply
format ascii 1.0
comment Created by Blender 3.6.2 - www.blender.org
element vertex 12
property float x
property float y
property float z
property float nx
property float ny
property float nz
property float s
property float t
element face 6
property list uchar uint vertex_indices
end_header
-4.106979 7.153927 -5.178236 -0.000000 -0.000000 1.000000 0.913086 3.591068
2.495325 0.025438 -5.178236 -0.000000 -0.000000 1.000000 11.219317 -7.536540
2.495327 7.153927 -5.178234 -0.000000 -0.000000 1.000000 11.219318 3.591068
-4.106979 7.153927 -5.178236 1.000000 0.000000 0.000000 0.000000 0.000000
-4.106981 7.153927 4.950248 1.000000 0.000000 0.000000 0.000000 0.000000
-4.106980 0.025438 4.950248 1.000000 0.000000 0.000000 0.000000 0.000000
2.495325 0.025438 4.950249 -1.000000 0.000000 -0.000000 -10.219318 -7.536537
2.495324 7.153927 4.950252 -1.000000 -0.000000 -0.000000 0.908290 -7.536540
2.495327 7.153927 -5.178234 -1.000000 0.000000 -0.000000 0.908290 8.274079
-4.106979 0.025438 -5.178238 -0.000000 -0.000000 1.000000 0.913087 -7.536540
-4.106979 0.025438 -5.178238 1.000000 -0.000000 0.000000 0.000000 0.000000
2.495325 0.025438 -5.178236 -1.000000 0.000000 0.000000 -10.219317 8.274081
3 0 1 2
3 3 4 5
3 6 7 8
3 9 1 0
3 10 3 5
3 11 6 8
