ply
format ascii 1.0
comment Created by Blender 3.6.2 - www.blender.org
element vertex 16
property float x
property float y
property float z
property float nx
property float ny
property float nz
element face 8
property list uchar uint vertex_indices
end_header
2.041345 3.925012 -5.119939 -0.000001 -1.000000 0.000000
1.144890 3.925013 -5.157356 -0.000001 -1.000000 0.000000
2.041345 3.925012 -5.157356 -0.000001 -1.000000 0.000000
2.041345 3.925012 -5.119939 1.000000 0.000000 0.000000
2.041345 5.029291 -5.157356 1.000000 0.000000 0.000000
2.041345 5.029291 -5.119939 1.000000 0.000000 0.000000
1.144890 5.029291 -5.119939 0.000000 1.000000 0.000000
2.041345 5.029291 -5.157356 0.000000 1.000000 0.000000
1.144890 5.029291 -5.157356 0.000000 1.000000 0.000000
1.144890 3.925013 -5.119939 -1.000000 0.000000 0.000000
1.144890 5.029291 -5.157356 -1.000000 0.000000 0.000000
1.144890 3.925013 -5.157356 -1.000000 0.000000 0.000000
1.144890 3.925013 -5.119939 -0.000001 -1.000000 0.000000
2.041345 3.925012 -5.157356 1.000000 0.000000 0.000000
2.041345 5.029291 -5.119939 0.000000 1.000000 0.000000
1.144890 5.029291 -5.119939 -1.000000 0.000000 0.000000
3 0 1 2
3 3 4 5
3 6 7 8
3 9 10 11
3 12 1 0
3 13 4 3
3 14 7 6
3 15 10 9
