ply
format ascii 1.0
comment Created by Blender 3.6.2 - www.blender.org
element vertex 16
property float x
property float y
property float z
property float nx
property float ny
property float nz
element face 8
property list uchar uint vertex_indices
end_header
-0.928222 5.739020 -5.121229 0.000000 -1.000000 0.000000
-1.762751 5.739020 -5.156061 0.000000 -1.000000 0.000000
-0.928222 5.739020 -5.156061 0.000000 -1.000000 0.000000
-0.928222 6.767016 -5.121229 1.000000 0.000000 0.000000
-0.928222 5.739020 -5.156061 1.000000 0.000000 0.000000
-0.928222 6.767016 -5.156062 1.000000 0.000000 0.000000
-1.762751 6.767016 -5.121229 0.000000 1.000000 0.000000
-0.928222 6.767016 -5.156062 0.000000 1.000000 0.000000
-1.762751 6.767016 -5.156062 0.000000 1.000000 0.000000
-1.762751 5.739020 -5.121229 -1.000000 0.000000 0.000000
-1.762751 6.767016 -5.156062 -1.000000 0.000000 0.000000
-1.762751 5.739020 -5.156061 -1.000000 0.000000 0.000000
-1.762751 5.739020 -5.121229 0.000000 -1.000000 0.000000
-0.928222 5.739020 -5.121229 1.000000 0.000000 0.000000
-0.928222 6.767016 -5.121229 0.000000 1.000000 0.000000
-1.762751 6.767016 -5.121229 -1.000000 0.000000 0.000000
3 0 1 2
3 3 4 5
3 6 7 8
3 9 10 11
3 12 1 0
3 13 4 3
3 14 7 6
3 15 10 9
