ply
format ascii 1.0
comment Created by Blender 3.6.2 - www.blender.org
element vertex 96
property float x
property float y
property float z
property float s
property float t
element face 72
property list uchar uint vertex_indices
end_header
0.879217 0.730000 -0.874550 -0.043445 0.827627
-0.900050 0.730000 -0.542416 0.956555 0.827627
0.334014 0.612442 -0.772777 0.262975 0.762678
0.879217 -0.460000 -0.874550 -0.043445 0.170169
0.864537 0.730000 -0.953192 0.827627 0.477901
0.879217 0.730000 -0.874550 0.827627 0.522100
0.879217 -0.460000 -0.874550 0.170169 0.522100
0.864537 -0.460000 -0.953192 0.170169 0.477901
0.864537 0.730000 -0.953192 -0.043445 0.827627
0.864537 -0.460000 -0.953192 -0.043445 0.170169
0.319334 0.612442 -0.851419 0.262975 0.762678
-0.575086 0.612442 -0.684458 0.765666 0.762678
-0.914730 0.730000 -0.621057 0.956555 0.827627
-0.914730 -0.460000 -0.621057 0.956555 0.170169
-0.900050 0.730000 -0.542416 0.827627 0.522100
-0.914730 0.730000 -0.621057 0.827627 0.477901
-0.914730 -0.460000 -0.621057 0.170169 0.477901
-0.900050 -0.460000 -0.542416 0.170169 0.522100
-0.560406 0.612442 -0.605817 0.765666 0.762678
-0.900050 -0.460000 -0.542416 0.956555 0.170169
0.157070 0.612442 -0.739747 0.362423 0.762678
0.334014 0.612442 -0.772777 0.262975 0.522100
0.157070 0.612442 -0.739747 0.362423 0.522100
0.142390 0.612442 -0.818389 0.362423 0.477901
0.319334 0.612442 -0.851419 0.262975 0.477901
0.334014 0.612442 -0.772777 0.762678 0.522100
0.319334 0.612442 -0.851419 0.762678 0.477901
0.319334 -0.317558 -0.851419 0.248866 0.477901
0.334014 -0.317558 -0.772777 0.248866 0.522100
0.334014 -0.317558 -0.772777 0.262975 0.248866
0.157070 -0.317558 -0.739747 0.362423 0.248866
-0.029573 -0.317558 -0.704907 0.467322 0.248866
-0.206516 -0.317558 -0.671877 0.566769 0.248866
-0.383460 -0.317558 -0.638847 0.666216 0.248866
-0.560406 -0.317558 -0.605817 0.765666 0.248866
-0.575086 0.612442 -0.684458 0.762678 0.477901
-0.560406 0.612442 -0.605817 0.762678 0.522100
-0.560406 -0.317558 -0.605817 0.248866 0.522100
-0.575086 -0.317558 -0.684458 0.248866 0.477901
-0.575086 -0.317558 -0.684458 0.765666 0.248866
-0.398140 -0.317558 -0.717489 0.666216 0.248866
-0.221196 -0.317558 -0.750519 0.566769 0.248866
-0.044253 -0.317558 -0.783549 0.467322 0.248866
0.142390 -0.317558 -0.818389 0.362423 0.248866
0.319334 -0.317558 -0.851419 0.262975 0.248866
0.864537 -0.460000 -0.953192 -0.043445 0.477901
-0.914730 -0.460000 -0.621057 0.956555 0.477901
-0.900050 -0.460000 -0.542416 0.956555 0.522100
0.879217 -0.460000 -0.874550 -0.043445 0.522100
0.319334 -0.317558 -0.851419 0.262975 0.477901
0.142390 -0.317558 -0.818389 0.362423 0.477901
0.157070 -0.317558 -0.739747 0.362423 0.522100
0.334014 -0.317558 -0.772777 0.262975 0.522100
0.157070 -0.317558 -0.739747 0.248866 0.522100
0.142390 -0.317558 -0.818389 0.248866 0.477901
0.142390 0.612442 -0.818389 0.762678 0.477901
0.157070 0.612442 -0.739747 0.762678 0.522100
-0.029573 0.612442 -0.704907 0.467322 0.762678
-0.044253 -0.317558 -0.783549 0.248866 0.477901
-0.029573 -0.317558 -0.704907 0.248866 0.522100
-0.029573 0.612442 -0.704907 0.762678 0.522100
-0.044253 0.612442 -0.783549 0.762678 0.477901
-0.044253 0.612442 -0.783549 0.467322 0.762678
0.142390 0.612442 -0.818389 0.362423 0.762678
-0.221196 0.612442 -0.750519 0.566769 0.762678
-0.398140 0.612442 -0.717489 0.666216 0.762678
-0.575086 0.612442 -0.684458 0.765666 0.477901
-0.398140 0.612442 -0.717489 0.666216 0.477901
-0.383460 0.612442 -0.638847 0.666216 0.522100
-0.560406 0.612442 -0.605817 0.765666 0.522100
-0.206516 0.612442 -0.671877 0.566769 0.762678
-0.383460 0.612442 -0.638847 0.666216 0.762678
-0.029573 0.612442 -0.704907 0.467322 0.522100
-0.206516 0.612442 -0.671877 0.566769 0.522100
-0.221196 0.612442 -0.750519 0.566769 0.477901
-0.044253 0.612442 -0.783549 0.467322 0.477901
-0.221196 0.612442 -0.750519 0.762678 0.477901
-0.206516 0.612442 -0.671877 0.762678 0.522100
-0.206516 -0.317558 -0.671877 0.248866 0.522100
-0.221196 -0.317558 -0.750519 0.248866 0.477901
-0.383460 0.612442 -0.638847 0.762678 0.522100
-0.398140 0.612442 -0.717489 0.762678 0.477901
-0.398140 -0.317558 -0.717489 0.248866 0.477901
-0.383460 -0.317558 -0.638847 0.248866 0.522100
-0.560406 -0.317558 -0.605817 0.765666 0.522100
-0.383460 -0.317558 -0.638847 0.666216 0.522100
-0.398140 -0.317558 -0.717489 0.666216 0.477901
-0.575086 -0.317558 -0.684458 0.765666 0.477901
-0.044253 -0.317558 -0.783549 0.467322 0.477901
-0.221196 -0.317558 -0.750519 0.566769 0.477901
-0.206516 -0.317558 -0.671877 0.566769 0.522100
-0.029573 -0.317558 -0.704907 0.467322 0.522100
0.864537 0.730000 -0.953192 -0.043445 0.477901
-0.914730 0.730000 -0.621057 0.956555 0.477901
-0.900050 0.730000 -0.542416 0.956555 0.522100
0.879217 0.730000 -0.874550 -0.043445 0.522100
3 0 1 2
3 2 3 0
3 4 5 6
3 6 7 4
3 8 9 10
3 10 11 8
3 12 8 11
3 11 13 12
3 14 15 16
3 16 17 14
3 1 18 19
3 18 1 2
3 18 2 20
3 21 22 23
3 23 24 21
3 25 26 27
3 27 28 25
3 2 29 3
3 29 30 3
3 30 31 3
3 31 32 3
3 32 33 3
3 33 34 3
3 19 3 34
3 19 18 34
3 35 36 37
3 37 38 35
3 11 39 13
3 39 40 13
3 40 41 13
3 41 42 13
3 42 43 13
3 43 44 13
3 9 13 44
3 9 44 10
3 45 46 47
3 47 48 45
3 49 50 51
3 51 52 49
3 53 54 55
3 55 56 53
3 30 57 20
3 57 31 30
3 58 59 60
3 60 61 58
3 42 62 63
3 63 43 42
3 10 63 62
3 10 62 64
3 10 64 65
3 10 65 11
3 66 67 68
3 68 69 66
3 18 70 71
3 18 57 70
3 18 20 57
3 72 73 74
3 74 75 72
3 76 77 78
3 78 79 76
3 64 41 40
3 40 65 64
3 80 81 82
3 82 83 80
3 71 33 32
3 32 71 70
3 84 85 86
3 86 87 84
3 88 89 90
3 90 91 88
3 92 93 94
3 94 95 92
