ply
format ascii 1.0
comment Created by Blender 3.6.2 - www.blender.org
element vertex 149
property float x
property float y
property float z
property float s
property float t
element face 106
property list uchar uint vertex_indices
end_header
-0.796767 -0.320000 0.765249 -25.590599 5.511810
-0.796767 -0.320000 0.155249 -1.574800 5.511810
-0.796767 -0.340000 0.155249 -1.574800 4.724410
-0.796767 -0.340000 0.765249 -25.590599 4.724410
-0.796767 -0.320000 0.765249 -1.574800 5.511810
-0.796767 -0.340000 0.765249 -1.574800 4.724410
0.433233 -0.340000 0.765249 -50.000000 4.724410
0.433233 -0.320000 0.765249 -50.000000 5.511810
-0.796767 -0.320000 0.765249 1.574800 25.590599
0.433233 -0.320000 0.765249 50.000000 25.590599
-0.776767 -0.320000 0.745249 2.362200 24.803101
-0.776767 -0.320000 0.175249 2.362200 2.362200
-0.796767 -0.320000 0.155249 1.574800 1.574800
0.433233 -0.320000 0.155249 50.000000 1.574800
-0.796767 -0.340000 0.155249 1.574800 4.724410
-0.796767 -0.320000 0.155249 1.574800 5.511810
0.433233 -0.320000 0.155249 50.000000 5.511810
0.433233 -0.340000 0.155249 50.000000 4.724410
-0.796767 -0.340000 0.155249 1.574800 1.574800
0.433233 -0.340000 0.155249 50.000000 1.574800
0.453233 -0.340000 0.135249 50.787399 0.787402
-0.816767 -0.340000 0.135249 0.787402 0.787402
-0.816767 -0.340000 0.785249 0.787402 26.378000
-0.796767 -0.340000 0.765249 1.574800 25.590599
0.453233 -0.340000 0.785249 50.787399 26.378000
0.433233 -0.340000 0.765249 50.000000 25.590599
-0.776767 -0.340000 0.745249 -2.362200 24.803101
0.433233 -0.340000 0.765249 -50.000000 25.590599
-0.796767 -0.340000 0.765249 -1.574800 25.590599
-0.796767 -0.340000 0.155249 -1.574800 1.574800
-0.776767 -0.340000 0.175249 -2.362200 2.362200
0.433233 -0.340000 0.155249 -50.000000 1.574800
0.413233 -0.340000 0.175249 -49.212601 2.362200
0.413233 -0.320000 0.175249 49.212601 5.511810
0.413233 -0.340000 0.175249 49.212601 4.724410
-0.776767 -0.340000 0.175249 2.362200 4.724410
-0.776767 -0.320000 0.175249 2.362200 5.511810
0.413233 -0.320000 0.175249 49.212601 2.362200
0.413233 -0.320000 0.745249 49.212601 24.803101
0.413233 -0.340000 0.745249 -49.212601 4.724410
0.413233 -0.320000 0.745249 -49.212601 5.511810
-0.776767 -0.320000 0.745249 -2.362200 5.511810
-0.776767 -0.340000 0.745249 -2.362200 4.724410
0.413233 -0.340000 0.745249 -49.212601 24.803101
0.433233 -0.340000 0.765249 25.590599 4.724410
0.433233 -0.340000 0.155249 1.574800 4.724410
0.433233 -0.320000 0.155249 1.574800 5.511810
0.433233 -0.320000 0.765249 25.590599 5.511810
0.453233 -0.340000 0.135249 0.787402 4.724410
0.453233 -0.340000 0.785249 26.378000 4.724410
0.453233 -0.360000 0.785249 26.378000 3.937010
0.453233 -0.360000 0.135249 0.787402 3.937010
0.453233 -0.340000 0.135249 50.787399 4.724410
0.453233 -0.360000 0.135249 50.787399 3.937010
-0.816767 -0.360000 0.135249 0.787402 3.937010
-0.816767 -0.340000 0.135249 0.787402 4.724410
-0.816767 -0.340000 0.785249 -26.378000 4.724410
-0.816767 -0.340000 0.135249 -0.787402 4.724410
-0.816767 -0.360000 0.135249 -0.787402 3.937010
-0.816767 -0.360000 0.785249 -26.378000 3.937010
-0.816767 -0.340000 0.785249 -0.787402 4.724410
-0.816767 -0.360000 0.785249 -0.787402 3.937010
0.453233 -0.360000 0.785249 -50.787399 3.937010
0.453233 -0.340000 0.785249 -50.787399 4.724410
-0.816767 -0.460000 0.785249 0.787402 0.000000
-0.816767 -0.360000 0.785249 0.787402 3.937010
0.453233 -0.360000 0.785249 50.787399 3.937010
0.453233 -0.460000 0.785249 50.787399 0.000000
-0.816767 -0.460000 0.785249 -0.787402 26.378000
0.453233 -0.460000 0.785249 -50.787399 26.378000
0.473233 -0.460000 0.805249 -51.574799 27.165400
-0.836767 -0.460000 0.805249 0.000000 27.165400
-0.836767 -0.460000 0.115249 0.000000 0.000000
-0.816767 -0.460000 0.135249 -0.787402 0.787402
0.473233 -0.460000 0.115249 -51.574799 0.000000
0.453233 -0.460000 0.135249 -50.787399 0.787402
-0.816767 -0.460000 0.135249 -0.787402 0.000000
0.453233 -0.460000 0.135249 -50.787399 0.000000
0.453233 -0.360000 0.135249 -50.787399 3.937010
-0.816767 -0.360000 0.135249 -0.787402 0.787402
0.453233 -0.360000 0.135249 -50.787399 0.787402
-0.796767 -0.360000 0.155249 -1.574800 1.574800
-0.796767 -0.360000 0.765249 -1.574800 25.590599
-0.816767 -0.360000 0.785249 -0.787402 26.378000
0.453233 -0.360000 0.785249 -50.787399 26.378000
0.473233 -0.360000 0.805249 51.574799 27.165400
0.453233 -0.360000 0.785249 50.787399 26.378000
-0.816767 -0.360000 0.785249 0.787402 26.378000
-0.836767 -0.360000 0.805249 0.000000 27.165400
-0.816767 -0.360000 0.135249 0.787402 0.787402
-0.836767 -0.360000 0.115249 0.000000 0.000000
0.473233 -0.360000 0.115249 51.574799 0.000000
-0.836767 -0.360000 0.115249 0.000000 3.937010
0.473233 -0.360000 0.115249 51.574799 3.937010
0.473233 -0.460000 0.115249 51.574799 0.000000
0.473233 -0.460000 0.805249 27.165400 0.000000
0.473233 -0.460000 0.115249 0.000000 0.000000
0.473233 -0.360000 0.115249 0.000000 3.937010
0.473233 -0.360000 0.805249 27.165400 3.937010
0.473233 -0.460000 0.805249 -51.574799 0.000000
0.473233 -0.360000 0.805249 -51.574799 3.937010
-0.836767 -0.360000 0.805249 0.000000 3.937010
-0.836767 -0.460000 0.805249 0.000000 0.000000
-0.836767 -0.460000 0.805249 -27.165400 0.000000
-0.836767 -0.360000 0.805249 -27.165400 3.937010
0.453233 -0.360000 0.135249 50.787399 0.787402
0.453233 -0.360000 0.785249 -26.378000 3.937010
0.453233 -0.360000 0.135249 -0.787402 3.937010
0.453233 -0.460000 0.135249 -0.787402 0.000000
0.453233 -0.460000 0.785249 -26.378000 0.000000
0.433233 -0.360000 0.155249 -50.000000 1.574800
-0.796767 -0.360000 0.155249 -1.574800 3.937010
0.433233 -0.360000 0.155249 -50.000000 3.937010
0.433233 -0.340000 0.155249 -50.000000 4.724410
0.433233 -0.340000 0.765249 -25.590599 4.724410
0.433233 -0.340000 0.155249 -1.574800 4.724410
0.433233 -0.360000 0.155249 -1.574800 3.937010
0.433233 -0.360000 0.765249 -25.590599 3.937010
0.433233 -0.340000 0.765249 50.000000 4.724410
0.433233 -0.360000 0.765249 50.000000 3.937010
-0.796767 -0.360000 0.765249 1.574800 3.937010
-0.796767 -0.340000 0.765249 1.574800 4.724410
-0.796767 -0.340000 0.765249 25.590599 4.724410
-0.796767 -0.360000 0.765249 25.590599 3.937010
-0.796767 -0.360000 0.155249 1.574800 3.937010
0.433233 -0.360000 0.765249 -50.000000 25.590599
-0.816767 -0.360000 0.785249 26.378000 3.937010
-0.816767 -0.460000 0.785249 26.378000 0.000000
-0.816767 -0.460000 0.135249 0.787402 0.000000
0.413233 -0.340000 0.745249 24.803101 4.724410
0.413233 -0.340000 0.175249 2.362200 4.724410
0.413233 -0.320000 0.175249 2.362200 5.511810
0.413233 -0.300000 0.175249 2.362200 6.299210
0.413233 -0.300000 0.745249 24.803101 6.299210
0.413233 -0.320000 0.745249 24.803101 5.511810
0.413233 -0.300000 0.745249 -49.212601 6.299210
-0.776767 -0.300000 0.745249 -2.362200 6.299210
-0.776767 -0.340000 0.745249 -24.803101 4.724410
-0.776767 -0.320000 0.745249 -24.803101 5.511810
-0.776767 -0.300000 0.745249 -24.803101 6.299210
-0.776767 -0.340000 0.175249 -2.362200 4.724410
-0.776767 -0.320000 0.175249 -2.362200 5.511810
-0.776767 -0.300000 0.175249 -2.362200 6.299210
-0.776767 -0.300000 0.175249 2.362200 6.299210
0.413233 -0.300000 0.175249 49.212601 6.299210
0.413233 -0.300000 0.175249 49.212601 2.362200
-0.776767 -0.300000 0.175249 2.362200 2.362200
-0.776767 -0.300000 0.745249 2.362200 24.803101
0.413233 -0.300000 0.745249 49.212601 24.803101
3 0 1 2
3 2 3 0
3 4 5 6
3 6 7 4
3 8 9 10
3 10 11 8
3 12 8 11
3 11 13 12
3 14 15 16
3 16 17 14
3 18 19 20
3 18 20 21
3 21 22 18
3 23 18 22
3 22 24 23
3 24 25 23
3 26 27 28
3 28 29 26
3 30 26 29
3 29 31 30
3 31 32 30
3 33 34 35
3 35 36 33
3 11 37 13
3 37 38 13
3 9 13 38
3 9 38 10
3 39 40 41
3 41 42 39
3 26 43 27
3 43 32 27
3 31 27 32
3 44 45 46
3 46 47 44
3 19 25 20
3 24 20 25
3 48 49 50
3 50 51 48
3 52 53 54
3 54 55 52
3 56 57 58
3 58 59 56
3 60 61 62
3 62 63 60
3 64 65 66
3 66 67 64
3 68 69 70
3 68 70 71
3 71 72 68
3 73 68 72
3 72 74 73
3 74 75 73
3 58 76 77
3 77 78 58
3 79 80 81
3 81 82 79
3 83 79 82
3 82 84 83
3 85 86 87
3 88 85 87
3 87 89 88
3 90 88 89
3 89 91 90
3 72 92 93
3 93 94 72
3 95 96 97
3 97 98 95
3 99 100 101
3 101 102 99
3 72 103 104
3 104 92 72
3 85 91 86
3 105 86 91
3 89 105 91
3 106 107 108
3 108 109 106
3 69 75 70
3 74 70 75
3 80 84 110
3 80 110 81
3 2 111 112
3 112 113 2
3 114 115 116
3 116 117 114
3 118 119 120
3 120 121 118
3 14 122 123
3 123 124 14
3 82 125 84
3 125 110 84
3 54 126 127
3 127 128 54
3 129 130 131
3 131 132 129
3 132 133 129
3 133 134 129
3 40 135 136
3 40 136 41
3 137 138 139
3 140 137 139
3 141 140 139
3 139 142 141
3 36 143 144
3 36 144 33
3 145 146 147
3 147 148 145
