ply
format ascii 1.0
comment Created by Blender 3.6.2 - www.blender.org
element vertex 20
property float x
property float y
property float z
property float s
property float t
element face 10
property list uchar uint vertex_indices
end_header
1.480150 0.725872 0.648335 0.898511 -0.264856
1.480150 0.145872 0.648335 0.018103 -0.271177
1.419530 0.145872 0.613335 0.017340 -0.164923
1.419530 0.725872 0.613335 0.897748 -0.158602
1.480150 0.725872 0.648335 0.987298 0.054560
1.419530 0.725872 0.613335 0.988063 -0.051694
1.099530 0.725872 1.167591 0.016578 -0.058669
1.160150 0.725872 1.202591 0.015814 0.047585
1.160150 0.145872 1.202591 0.899274 -0.371109
1.160150 0.725872 1.202591 0.018866 -0.377431
1.099530 0.725872 1.167591 0.018103 -0.271177
1.099530 0.145872 1.167591 0.898511 -0.264856
1.160150 0.145872 1.202591 0.988063 -0.051694
1.099530 0.145872 1.167591 0.988824 -0.157948
1.419530 0.145872 0.613335 0.017340 -0.164923
1.480150 0.145872 0.648335 0.016579 -0.058670
1.419530 0.145872 0.613335 0.987299 0.054560
1.099530 0.145872 1.167591 0.015814 0.047585
1.099530 0.725872 1.167591 0.009493 0.927992
1.419530 0.725872 0.613335 0.980977 0.934968
3 0 1 2
3 2 3 0
3 4 5 6
3 6 7 4
3 8 9 10
3 10 11 8
3 12 13 14
3 14 15 12
3 16 17 18
3 18 19 16
