ply
format ascii 1.0
comment Created by Blender 3.6.2 - www.blender.org
element vertex 354
property float x
property float y
property float z
property float s
property float t
element face 224
property list uchar uint vertex_indices
end_header
-0.737705 -0.150000 0.214310 0.740397 0.607140
-0.737705 -0.100000 0.214310 0.764391 0.607140
-0.489736 -0.100000 0.214310 0.764391 0.303922
-0.489736 -0.150000 0.214310 0.740397 0.303922
-0.737705 -0.150000 0.214310 0.606026 0.376587
-0.489736 -0.150000 0.214310 0.606026 0.073368
-0.489736 -0.150000 0.264310 0.582032 0.073368
-0.489736 -0.150000 0.656187 0.393972 0.073368
-0.489736 -0.150000 0.706187 0.369978 0.073368
-0.687705 -0.150000 0.430249 0.502399 0.315446
-0.737705 -0.150000 0.430249 0.502399 0.376587
-0.737705 -0.150000 0.214310 0.637011 0.993525
-0.737705 -0.150000 0.430249 0.637011 0.800202
-0.737705 -0.100000 0.430249 0.604238 0.800202
-0.737705 -0.100000 0.214310 0.604238 0.993525
-0.737705 -0.150000 0.430249 0.637011 0.665912
-0.737705 -0.100000 0.430249 0.637011 0.621148
-0.687705 -0.100000 0.430249 0.604238 0.621148
-0.687705 -0.150000 0.430249 0.604238 0.665912
-0.757705 -0.300000 0.430249 0.650120 0.800202
-0.757705 -0.150000 0.430249 0.650120 0.665912
-0.757705 -0.100000 0.430249 0.650120 0.621148
-0.757705 -0.100000 0.490249 0.791982 0.621148
-0.757705 -0.100000 0.430249 0.763188 0.621148
-0.757705 -0.150000 0.430249 0.763188 0.682289
-0.757705 -0.300000 0.430249 0.763188 0.865710
-0.757705 -0.300000 0.490249 0.791982 0.865710
-0.757705 -0.300000 0.490249 0.558355 0.376587
-0.757705 -0.150000 0.490249 0.558355 0.376587
-0.757705 -0.100000 0.490249 0.558355 0.376587
-0.757705 -0.100000 0.490249 0.650120 0.621148
-0.757705 -0.150000 0.490249 0.650120 0.665912
-0.737705 -0.150000 0.490249 0.663229 0.665912
-0.737705 -0.100000 0.490249 0.663229 0.621148
-0.737705 -0.100000 0.706187 0.546065 0.800202
-0.737705 -0.100000 0.490249 0.546065 0.993525
-0.737705 -0.150000 0.490249 0.578838 0.993525
-0.737705 -0.150000 0.706187 0.578838 0.800202
-0.737705 -0.100000 0.706187 0.788386 0.000000
-0.737705 -0.150000 0.706187 0.764391 0.000000
-0.489736 -0.150000 0.706187 0.764391 0.303218
-0.489736 -0.100000 0.706187 0.788386 0.303218
-0.489736 -0.100000 0.726187 0.673212 0.000000
-0.489736 -0.100000 0.706187 0.663614 0.000000
-0.489736 -0.150000 0.706187 0.663614 0.061140
-0.489736 -0.150000 0.726187 0.673212 0.061140
-0.489736 -0.100000 0.726187 0.173257 0.717192
-0.489736 -0.150000 0.726187 0.173257 0.761956
-0.429736 -0.150000 0.726187 0.212584 0.761956
-0.429736 -0.100000 0.726187 0.212584 0.717192
-0.489736 -0.100000 0.726187 0.722138 0.371646
-0.429736 -0.100000 0.726187 0.722138 0.298278
-0.429736 -0.100000 0.706187 0.712540 0.298278
-0.489736 -0.100000 0.706187 0.712540 0.371646
-0.429736 -0.100000 0.706187 0.716402 0.000000
-0.429736 -0.100000 0.726187 0.706804 0.000000
-0.429736 -0.150000 0.726187 0.706804 0.061140
-0.429736 -0.150000 0.706187 0.716402 0.061140
-0.429736 -0.100000 0.706187 0.817180 0.303218
-0.429736 -0.150000 0.706187 0.793185 0.303218
-0.211767 -0.150000 0.706187 0.793185 0.569752
-0.211767 -0.100000 0.706187 0.817180 0.569752
-0.211767 -0.100000 0.726187 0.546065 0.555641
-0.211767 -0.100000 0.706187 0.536467 0.555641
-0.211767 -0.150000 0.706187 0.536467 0.616781
-0.211767 -0.150000 0.726187 0.546065 0.616781
-0.211767 -0.100000 0.726187 0.330650 0.717192
-0.211767 -0.150000 0.726187 0.330650 0.761956
-0.151767 -0.150000 0.726187 0.369977 0.761956
-0.151767 -0.100000 0.726187 0.369977 0.717192
-0.211767 -0.100000 0.726187 0.712540 0.371646
-0.151767 -0.100000 0.726187 0.712540 0.298278
-0.151767 -0.100000 0.706187 0.702942 0.298278
-0.211767 -0.100000 0.706187 0.702942 0.371646
-0.151767 -0.100000 0.706187 0.705601 0.621148
-0.151767 -0.100000 0.726187 0.696003 0.621148
-0.151767 -0.150000 0.726187 0.696003 0.682289
-0.151767 -0.150000 0.706187 0.705601 0.682289
-0.151767 -0.100000 0.706187 0.764391 0.000000
-0.151767 -0.150000 0.706187 0.740397 0.000000
0.096777 -0.150000 0.706187 0.740397 0.303922
0.096777 -0.100000 0.706187 0.764391 0.303922
0.096777 -0.100000 0.726187 0.738608 0.376587
0.096777 -0.100000 0.706187 0.729010 0.376587
0.096777 -0.150000 0.706187 0.729010 0.437727
0.096777 -0.150000 0.726187 0.738608 0.437727
0.096777 -0.100000 0.726187 0.291240 0.717192
0.096777 -0.150000 0.726187 0.291240 0.761956
0.156777 -0.150000 0.726187 0.330568 0.761956
0.156777 -0.100000 0.726187 0.330568 0.717192
0.096777 -0.100000 0.726187 0.773989 0.621148
0.156777 -0.100000 0.726187 0.773989 0.547780
0.156777 -0.100000 0.706187 0.764391 0.547780
0.096777 -0.100000 0.706187 0.764391 0.621148
0.156777 -0.100000 0.706187 0.739193 0.621148
0.156777 -0.100000 0.726187 0.729595 0.621148
0.156777 -0.150000 0.726187 0.729595 0.682289
0.156777 -0.150000 0.706187 0.739193 0.682289
0.156777 -0.100000 0.706187 0.855304 0.621148
0.156777 -0.150000 0.706187 0.831309 0.621148
0.374172 -0.150000 0.706187 0.831309 0.886980
0.374172 -0.100000 0.706187 0.855304 0.886980
0.374172 -0.100000 0.490249 0.682893 0.993525
0.374172 -0.100000 0.706187 0.682893 0.800202
0.374172 -0.150000 0.706187 0.650120 0.800202
0.374172 -0.150000 0.490249 0.650120 0.993525
0.374172 -0.100000 0.490249 0.591128 0.376587
0.374172 -0.150000 0.490249 0.591128 0.421350
0.394172 -0.150000 0.490249 0.604238 0.421350
0.394172 -0.100000 0.490249 0.604238 0.376587
0.374172 -0.100000 0.490249 0.716051 0.244561
0.394172 -0.100000 0.490249 0.702942 0.244561
0.394172 -0.100000 0.430249 0.702942 0.298278
0.374172 -0.100000 0.430249 0.716051 0.298278
0.374172 -0.150000 0.430249 0.525582 0.421350
0.374172 -0.100000 0.430249 0.525582 0.376587
0.394172 -0.100000 0.430249 0.512472 0.376587
0.394172 -0.150000 0.430249 0.512472 0.421350
0.324172 -0.300000 0.430249 0.558355 0.555641
0.324172 -0.150000 0.430249 0.558355 0.421350
0.374172 -0.150000 0.430249 0.512472 0.623626
0.324172 -0.150000 0.430249 0.479699 0.623626
0.156777 -0.150000 0.214310 0.369977 0.816949
0.374172 -0.150000 0.214310 0.512472 0.816949
0.374172 -0.150000 0.430249 0.512472 0.800202
0.374172 -0.150000 0.214310 0.512472 0.993525
0.374172 -0.100000 0.214310 0.545246 0.993525
0.374172 -0.100000 0.430249 0.545246 0.800202
0.374172 -0.100000 0.214310 0.841175 0.303218
0.374172 -0.150000 0.214310 0.817180 0.303218
0.156777 -0.150000 0.214310 0.817180 0.569050
0.156777 -0.100000 0.214310 0.841175 0.569050
0.156777 -0.100000 0.194310 0.637830 0.621148
0.156777 -0.100000 0.214310 0.647428 0.621148
0.156777 -0.150000 0.214310 0.647428 0.560008
0.156777 -0.150000 0.194310 0.637830 0.560008
0.156777 -0.100000 0.194310 0.791982 0.621148
0.156777 -0.150000 0.194310 0.791982 0.665912
0.096777 -0.150000 0.194310 0.831309 0.665912
0.096777 -0.100000 0.194310 0.831309 0.621148
0.156777 -0.100000 0.194310 0.773989 0.547780
0.096777 -0.100000 0.194310 0.773989 0.621148
0.096777 -0.100000 0.214310 0.783587 0.621148
0.156777 -0.100000 0.214310 0.783587 0.547780
0.096777 -0.100000 0.214310 0.682809 0.000000
0.096777 -0.100000 0.194310 0.673211 0.000000
0.096777 -0.150000 0.194310 0.673211 0.061140
0.096777 -0.150000 0.214310 0.682809 0.061140
0.096777 -0.100000 0.214310 0.604238 0.555641
0.096777 -0.150000 0.214310 0.580243 0.555641
-0.151767 -0.150000 0.214310 0.580243 0.859563
-0.151767 -0.100000 0.214310 0.604238 0.859563
-0.151767 -0.100000 0.194310 0.606026 0.244561
-0.151767 -0.100000 0.214310 0.615624 0.244561
-0.151767 -0.150000 0.214310 0.615624 0.183421
-0.151767 -0.150000 0.194310 0.606026 0.183421
-0.151767 -0.100000 0.194310 0.251912 0.717192
-0.151767 -0.150000 0.194310 0.251912 0.761956
-0.211767 -0.150000 0.194310 0.291240 0.761956
-0.211767 -0.100000 0.194310 0.291240 0.717192
-0.151767 -0.100000 0.194310 0.722138 0.298278
-0.211767 -0.100000 0.194310 0.722138 0.371646
-0.211767 -0.100000 0.214310 0.731736 0.371646
-0.151767 -0.100000 0.214310 0.731736 0.298278
-0.211767 -0.100000 0.214310 0.555663 0.555641
-0.211767 -0.100000 0.194310 0.546065 0.555641
-0.211767 -0.150000 0.194310 0.546065 0.616781
-0.211767 -0.150000 0.214310 0.555663 0.616781
-0.211767 -0.100000 0.214310 0.841175 0.000000
-0.211767 -0.150000 0.214310 0.817180 0.000000
-0.429736 -0.150000 0.214310 0.817180 0.266534
-0.429736 -0.100000 0.214310 0.841175 0.266534
-0.429736 -0.100000 0.194310 0.604238 0.621148
-0.429736 -0.100000 0.214310 0.613835 0.621148
-0.429736 -0.150000 0.214310 0.613835 0.560008
-0.429736 -0.150000 0.194310 0.604238 0.560008
-0.429736 -0.100000 0.194310 0.133929 0.717192
-0.429736 -0.150000 0.194310 0.133929 0.761956
-0.489736 -0.150000 0.194310 0.173257 0.761956
-0.489736 -0.100000 0.194310 0.173257 0.717192
-0.429736 -0.100000 0.194310 0.637011 0.800202
-0.489736 -0.100000 0.194310 0.637011 0.873571
-0.489736 -0.100000 0.214310 0.646609 0.873571
-0.429736 -0.100000 0.214310 0.646609 0.800202
-0.489736 -0.100000 0.214310 0.681020 0.376587
-0.489736 -0.100000 0.194310 0.671423 0.376587
-0.489736 -0.150000 0.194310 0.671423 0.437727
-0.489736 -0.150000 0.214310 0.681020 0.437727
-0.489736 -0.300000 0.194310 0.671423 0.621148
-0.489736 -0.300000 0.264310 0.705015 0.621148
-0.489736 -0.150000 0.264310 0.705015 0.437727
-0.489736 -0.150000 0.264310 0.409305 0.816949
-0.489736 -0.300000 0.264310 0.409305 0.951240
-0.429736 -0.300000 0.264310 0.448633 0.951240
-0.429736 -0.150000 0.264310 0.448633 0.816949
-0.429736 -0.150000 0.264310 0.582032 0.000000
-0.429736 -0.150000 0.656187 0.393972 0.000000
-0.489736 -0.300000 0.656187 0.409305 0.951240
-0.489736 -0.150000 0.656187 0.409305 0.816949
-0.429736 -0.150000 0.656187 0.369977 0.816949
-0.429736 -0.300000 0.656187 0.369977 0.951240
-0.489736 -0.300000 0.656187 0.212584 0.958915
-0.429736 -0.300000 0.656187 0.251912 0.958915
-0.429736 -0.300000 0.726187 0.251912 0.896246
-0.489736 -0.300000 0.726187 0.212584 0.896246
-0.489736 -0.300000 0.656187 0.639619 0.244561
-0.489736 -0.300000 0.726187 0.673212 0.244561
-0.489736 -0.150000 0.656187 0.639619 0.061140
-0.489736 -0.300000 0.726187 0.173256 0.896246
-0.429736 -0.300000 0.726187 0.212584 0.896246
-0.429736 -0.300000 0.726187 0.706804 0.244561
-0.429736 -0.150000 0.656187 0.740397 0.061140
-0.429736 -0.300000 0.656187 0.740397 0.244561
-0.429736 -0.150000 0.706187 0.369978 0.000000
-0.429736 -0.150000 0.706187 0.558355 0.376587
-0.429736 -0.150000 0.264310 0.558355 0.376587
-0.429736 -0.150000 0.214310 0.558355 0.376587
-0.211767 -0.150000 0.706187 0.133929 0.450658
-0.429736 -0.150000 0.706187 0.133929 0.717192
-0.429736 -0.150000 0.214310 0.369977 0.717192
-0.211767 -0.150000 0.656187 0.157923 0.450658
-0.211767 -0.150000 0.264310 0.345983 0.450658
-0.211767 -0.150000 0.214310 0.369977 0.450658
-0.211767 -0.300000 0.264310 0.579657 0.800202
-0.211767 -0.150000 0.264310 0.579657 0.616781
-0.211767 -0.300000 0.194310 0.546065 0.800202
-0.211767 -0.300000 0.194310 0.291240 0.896246
-0.151767 -0.300000 0.194310 0.251912 0.896246
-0.211767 -0.300000 0.194310 0.663614 0.307230
-0.151767 -0.300000 0.194310 0.702942 0.307230
-0.151767 -0.300000 0.264310 0.702942 0.244561
-0.211767 -0.300000 0.264310 0.663614 0.244561
-0.211767 -0.150000 0.264310 0.473144 0.816949
-0.211767 -0.300000 0.264310 0.473144 0.951240
-0.151767 -0.300000 0.264310 0.512472 0.951240
-0.151767 -0.150000 0.264310 0.512472 0.816949
-0.151767 -0.150000 0.264310 0.345983 0.377290
-0.151767 -0.150000 0.656187 0.157923 0.377290
-0.151767 -0.100000 0.656187 0.212584 0.717192
-0.151767 -0.150000 0.656187 0.212584 0.761956
-0.211767 -0.150000 0.656187 0.251912 0.761956
-0.211767 -0.100000 0.656187 0.251912 0.717192
-0.211767 -0.300000 0.656187 0.251912 0.896246
-0.151767 -0.300000 0.656187 0.212584 0.896246
-0.211767 -0.300000 0.656187 0.133929 0.958915
-0.151767 -0.300000 0.656187 0.173256 0.958915
-0.151767 -0.300000 0.726187 0.173256 0.896246
-0.211767 -0.300000 0.726187 0.133929 0.896246
-0.211767 -0.300000 0.656187 0.512472 0.800202
-0.211767 -0.300000 0.726187 0.546065 0.800202
-0.211767 -0.150000 0.656187 0.512472 0.616781
-0.211767 -0.300000 0.726187 0.330650 0.896246
-0.151767 -0.300000 0.726187 0.369977 0.896246
-0.151767 -0.300000 0.726187 0.696003 0.865710
-0.151767 -0.150000 0.656187 0.729595 0.682289
-0.151767 -0.300000 0.656187 0.729595 0.865710
-0.151767 -0.150000 0.706187 0.133929 0.377290
-0.151767 -0.150000 0.214310 0.369977 0.377290
0.096777 -0.150000 0.706187 0.133929 0.073368
0.096777 -0.150000 0.656187 0.157923 0.073368
0.096777 -0.150000 0.264310 0.345983 0.073368
0.096777 -0.150000 0.214310 0.369977 0.073368
0.096777 -0.300000 0.264310 0.706804 0.244561
0.096777 -0.150000 0.264310 0.706804 0.061140
0.096777 -0.300000 0.194310 0.673211 0.244561
0.096777 -0.300000 0.194310 0.831309 0.800202
0.156777 -0.300000 0.194310 0.791982 0.800202
0.096777 -0.300000 0.194310 0.251912 0.958915
0.156777 -0.300000 0.194310 0.291240 0.958915
0.156777 -0.300000 0.264310 0.291240 0.896246
0.096777 -0.300000 0.264310 0.251912 0.896246
0.096777 -0.150000 0.264310 0.690268 0.865710
0.096777 -0.300000 0.264310 0.690268 1.000000
0.156777 -0.300000 0.264310 0.729595 1.000000
0.156777 -0.150000 0.264310 0.729595 0.865710
0.156777 -0.150000 0.264310 0.345983 0.000000
0.156777 -0.150000 0.656187 0.157923 0.000000
0.096777 -0.300000 0.656187 0.768923 1.000000
0.096777 -0.150000 0.656187 0.768923 0.865710
0.156777 -0.150000 0.656187 0.729595 0.865710
0.156777 -0.300000 0.656187 0.729595 1.000000
0.096777 -0.300000 0.656187 0.173257 0.958915
0.156777 -0.300000 0.656187 0.212584 0.958915
0.156777 -0.300000 0.726187 0.212584 0.896246
0.096777 -0.300000 0.726187 0.173257 0.896246
0.096777 -0.300000 0.656187 0.705015 0.621148
0.096777 -0.300000 0.726187 0.738608 0.621148
0.096777 -0.150000 0.656187 0.705015 0.437727
0.096777 -0.300000 0.726187 0.291240 0.896246
0.156777 -0.300000 0.726187 0.330568 0.896246
0.156777 -0.300000 0.726187 0.729595 0.865710
0.156777 -0.150000 0.656187 0.763188 0.682289
0.156777 -0.300000 0.656187 0.763188 0.865710
0.156777 -0.150000 0.706187 0.133929 0.000000
0.156777 -0.150000 0.706187 0.558355 0.376587
0.156777 -0.150000 0.264310 0.558355 0.376587
0.156777 -0.150000 0.214310 0.558355 0.376587
0.156777 -0.150000 0.706187 0.369977 0.376587
0.324172 -0.150000 0.490249 0.479699 0.569909
0.374172 -0.150000 0.706187 0.512472 0.376587
0.374172 -0.150000 0.490249 0.512472 0.569909
0.324172 -0.150000 0.490249 0.558355 0.421350
0.394172 -0.300000 0.490249 0.604238 0.555641
0.394172 -0.100000 0.490249 0.558355 0.376587
0.394172 -0.150000 0.490249 0.558355 0.376587
0.394172 -0.300000 0.490249 0.558355 0.376587
0.394172 -0.100000 0.430249 0.788386 0.244561
0.394172 -0.100000 0.490249 0.817180 0.244561
0.394172 -0.300000 0.490249 0.817180 0.000000
0.394172 -0.150000 0.430249 0.788386 0.183421
0.394172 -0.300000 0.430249 0.788386 0.000000
0.394172 -0.300000 0.430249 0.512472 0.555641
0.324172 -0.300000 0.430249 0.634820 0.244561
0.394172 -0.300000 0.430249 0.634820 0.330158
0.394172 -0.300000 0.490249 0.663614 0.330158
0.324172 -0.300000 0.490249 0.663614 0.244561
0.324172 -0.300000 0.430249 0.791982 0.983623
0.324172 -0.300000 0.490249 0.820776 0.983623
0.324172 -0.150000 0.490249 0.820776 0.800202
0.324172 -0.150000 0.430249 0.791982 0.800202
0.324172 -0.300000 0.490249 0.558355 0.555641
0.156777 -0.150000 0.264310 0.671423 0.560008
0.156777 -0.300000 0.264310 0.671423 0.376587
0.156777 -0.300000 0.194310 0.637830 0.376587
-0.151767 -0.150000 0.264310 0.639619 0.183421
-0.151767 -0.300000 0.264310 0.639619 0.000000
-0.151767 -0.300000 0.194310 0.606026 0.000000
-0.429736 -0.150000 0.264310 0.637830 0.560008
-0.429736 -0.300000 0.264310 0.637830 0.376587
-0.429736 -0.300000 0.194310 0.604238 0.376587
-0.429736 -0.300000 0.194310 0.133929 0.896246
-0.489736 -0.300000 0.194310 0.173256 0.896246
-0.489736 -0.300000 0.194310 0.663614 0.369899
-0.429736 -0.300000 0.194310 0.702942 0.369899
-0.429736 -0.300000 0.264310 0.702942 0.307230
-0.489736 -0.300000 0.264310 0.663614 0.307230
-0.737705 -0.150000 0.706187 0.369977 0.376587
-0.687705 -0.150000 0.490249 0.473605 0.315446
-0.687705 -0.150000 0.490249 0.793185 0.486639
-0.687705 -0.150000 0.430249 0.764391 0.486639
-0.687705 -0.100000 0.430249 0.764391 0.547780
-0.687705 -0.100000 0.490249 0.793185 0.547780
-0.687705 -0.150000 0.490249 0.696003 0.665912
-0.687705 -0.100000 0.490249 0.696003 0.621148
-0.737705 -0.150000 0.490249 0.473605 0.376587
-0.687705 -0.300000 0.490249 0.696003 0.800202
-0.757705 -0.300000 0.490249 0.650120 0.800202
-0.687705 -0.300000 0.490249 0.634820 0.330158
-0.757705 -0.300000 0.490249 0.634820 0.244561
-0.757705 -0.300000 0.430249 0.606026 0.244561
-0.687705 -0.300000 0.430249 0.606026 0.330158
-0.687705 -0.300000 0.490249 0.793185 0.303218
-0.687705 -0.300000 0.430249 0.764391 0.303218
-0.687705 -0.300000 0.430249 0.604238 0.800202
3 0 1 2
3 2 3 0
3 4 5 6
3 6 7 4
3 7 8 4
3 8 9 4
3 9 10 4
3 11 12 13
3 13 14 11
3 15 16 17
3 17 18 15
3 15 18 19
3 19 20 15
3 16 15 20
3 20 21 16
3 22 23 24
3 24 25 22
3 25 26 22
3 27 28 29
3 30 31 32
3 32 33 30
3 34 35 36
3 36 37 34
3 38 39 40
3 40 41 38
3 42 43 44
3 44 45 42
3 46 47 48
3 48 49 46
3 50 51 52
3 52 53 50
3 54 55 56
3 56 57 54
3 58 59 60
3 60 61 58
3 62 63 64
3 64 65 62
3 66 67 68
3 68 69 66
3 70 71 72
3 72 73 70
3 74 75 76
3 76 77 74
3 78 79 80
3 80 81 78
3 82 83 84
3 84 85 82
3 86 87 88
3 88 89 86
3 90 91 92
3 92 93 90
3 94 95 96
3 96 97 94
3 98 99 100
3 100 101 98
3 102 103 104
3 104 105 102
3 106 107 108
3 108 109 106
3 110 111 112
3 112 113 110
3 114 115 116
3 116 117 114
3 114 117 118
3 118 119 114
3 120 121 122
3 122 123 120
3 124 125 126
3 126 127 124
3 128 129 130
3 130 131 128
3 132 133 134
3 134 135 132
3 136 137 138
3 138 139 136
3 140 141 142
3 142 143 140
3 144 145 146
3 146 147 144
3 148 149 150
3 150 151 148
3 152 153 154
3 154 155 152
3 156 157 158
3 158 159 156
3 160 161 162
3 162 163 160
3 164 165 166
3 166 167 164
3 168 169 170
3 170 171 168
3 172 173 174
3 174 175 172
3 176 177 178
3 178 179 176
3 180 181 182
3 182 183 180
3 184 185 186
3 186 187 184
3 187 186 188
3 188 189 187
3 189 190 187
3 191 192 193
3 193 194 191
3 6 195 196
3 196 7 6
3 197 198 199
3 199 200 197
3 201 202 203
3 203 204 201
3 205 206 44
3 44 207 205
3 206 45 44
3 47 208 209
3 47 209 48
3 57 56 210
3 211 57 210
3 210 212 211
3 213 196 195
3 214 215 216
3 217 218 219
3 220 217 219
3 221 220 219
3 219 222 221
3 223 224 167
3 225 223 167
3 167 166 225
3 157 226 158
3 157 227 226
3 228 229 230
3 230 231 228
3 232 233 234
3 234 235 232
3 221 236 237
3 237 220 221
3 238 239 240
3 240 241 238
3 242 240 239
3 239 243 242
3 244 245 246
3 246 247 244
3 248 249 64
3 64 250 248
3 249 65 64
3 67 251 252
3 67 252 68
3 77 76 253
3 254 77 253
3 253 255 254
3 256 237 236
3 256 236 257
3 258 256 257
3 259 258 257
3 260 259 257
3 257 261 260
3 262 263 147
3 264 262 147
3 147 146 264
3 137 265 138
3 137 266 265
3 267 268 269
3 269 270 267
3 271 272 273
3 273 274 271
3 260 275 276
3 276 259 260
3 277 278 279
3 279 280 277
3 281 282 283
3 283 284 281
3 285 286 84
3 84 287 285
3 286 85 84
3 87 288 289
3 87 289 88
3 97 96 290
3 291 97 290
3 290 292 291
3 293 276 275
3 294 295 296
3 297 122 298
3 299 297 298
3 298 300 299
3 107 301 302
3 302 108 107
3 303 304 305
3 306 307 308
3 309 306 308
3 308 310 309
3 117 311 118
3 312 313 314
3 314 315 312
3 316 317 318
3 318 319 316
3 121 298 122
3 301 320 302
3 134 321 322
3 135 134 322
3 322 323 135
3 154 324 325
3 155 154 325
3 325 326 155
3 174 327 328
3 175 174 328
3 328 329 175
3 177 330 331
3 177 331 178
3 332 333 334
3 334 335 332
3 8 336 337
3 337 9 8
3 338 339 340
3 340 341 338
3 342 343 33
3 33 32 342
3 336 344 337
3 345 342 32
3 32 31 345
3 31 346 345
3 347 348 349
3 349 350 347
3 351 352 339
3 339 338 351
3 18 353 19
