ply
format ascii 1.0
comment Created by Blender 3.6.2 - www.blender.org
element vertex 52
property float x
property float y
property float z
property float s
property float t
element face 34
property list uchar uint vertex_indices
end_header
-1.595920 -0.323135 0.962272 0.000000 -0.000000
-1.595920 1.096860 0.962272 0.000000 55.905499
-1.488880 -0.199540 1.024070 4.865950 4.865950
0.110149 -0.323135 1.947272 77.559097 -0.000000
-1.625920 -0.323135 1.014234 0.000000 -0.000000
-1.595920 -0.323135 0.962272 0.000000 2.362200
0.110149 -0.323135 1.947272 77.559097 2.362200
0.080149 -0.323135 1.999232 77.559097 -0.000000
0.080149 1.096860 1.999232 55.905499 0.000000
0.080149 -0.323135 1.999232 0.000000 0.000000
0.110149 -0.323135 1.947272 0.000000 2.362200
0.110149 1.096860 1.947272 55.905499 2.362200
0.080149 1.096860 1.999232 -77.559097 0.000000
0.110149 1.096860 1.947272 -77.559097 2.362200
-1.595920 1.096860 0.962272 -0.000000 2.362200
-1.625920 1.096860 1.014234 -0.000000 0.000000
-1.625920 -0.323135 1.014234 0.000000 0.000000
-1.625920 1.096860 1.014234 -55.905499 0.000000
-1.595920 1.096860 0.962272 -55.905499 2.362200
-1.595920 -0.323135 0.962272 0.000000 2.362200
0.110149 1.096860 1.947272 77.559097 55.905499
-1.488880 0.973270 1.024070 4.865950 51.039600
-1.488880 -0.199540 1.024070 4.865950 2.362200
-1.488880 0.973270 1.024070 51.039600 2.362200
-1.498880 0.973270 1.041390 51.039600 1.574800
-1.498880 -0.199540 1.041390 4.865950 1.574800
-1.488880 -0.199540 1.024070 -4.865950 2.362200
-1.498880 -0.199540 1.041390 -4.865950 1.574800
-0.006887 -0.199540 1.902792 -72.693100 1.574800
0.003113 -0.199540 1.885472 -72.693100 2.362200
0.003113 -0.199540 1.885472 72.693100 4.865950
0.003113 0.973270 1.885472 72.693100 51.039600
-1.488880 0.973270 1.024070 4.865950 2.362200
0.003113 0.973270 1.885472 72.693100 2.362200
-0.006887 0.973270 1.902792 72.693100 1.574800
-1.498880 0.973270 1.041390 4.865950 1.574800
-0.016887 0.973270 1.920112 72.693100 0.787402
-1.508880 0.973270 1.058711 4.865950 0.787402
-1.508880 0.973270 1.058711 51.039600 0.787402
-1.508880 -0.199540 1.058711 4.865950 0.787402
-1.508880 -0.199540 1.058711 -4.865950 0.787402
-0.016887 -0.199540 1.920112 -72.693100 0.787402
-0.006887 0.973270 1.902792 -51.039600 1.574800
-0.006887 -0.199540 1.902792 -4.865950 1.574800
-0.016887 -0.199540 1.920112 -4.865950 0.787402
-0.016887 0.973270 1.920112 -51.039600 0.787402
-1.508880 0.973270 1.058711 4.865950 51.039600
-0.016887 0.973270 1.920112 72.693100 51.039600
-0.016887 -0.199540 1.920112 72.693100 4.865950
-1.508880 -0.199540 1.058711 4.865950 4.865950
0.003113 0.973270 1.885472 -51.039600 2.362200
0.003113 -0.199540 1.885472 -4.865950 2.362200
3 0 1 2
3 2 3 0
3 4 5 6
3 6 7 4
3 8 9 10
3 10 11 8
3 12 13 14
3 14 15 12
3 16 17 18
3 18 19 16
3 1 20 21
3 21 2 1
3 22 23 24
3 24 25 22
3 26 27 28
3 28 29 26
3 2 30 3
3 20 3 30
3 20 30 31
3 20 31 21
3 32 33 34
3 34 35 32
3 35 34 36
3 36 37 35
3 25 24 38
3 38 39 25
3 27 40 41
3 41 28 27
3 42 43 44
3 44 45 42
3 46 47 48
3 48 49 46
3 43 42 50
3 50 51 43
