ply
format ascii 1.0
comment Created by Blender 3.4.1 - www.blender.org
element vertex 8
property float x
property float y
property float z
property float nx
property float ny
property float nz
element face 2
property list uchar uint vertex_indices
end_header
3.492693 -0.600725 1.808040 -0.502564 0.864539 0.001244
3.483721 -0.602258 -0.750212 -0.502564 0.864539 0.001244
-1.937407 -3.753633 -0.729311 -0.502564 0.864539 0.001244
-1.928435 -3.752100 1.828942 -0.502564 0.864539 0.001244
-1.564424 -4.196608 1.810717 0.864847 0.502034 0.001244
-1.565952 -4.187634 -0.747519 0.864847 0.502034 0.001244
-3.905277 -0.157750 -0.731987 0.864847 0.502034 0.001244
-3.903749 -0.166723 1.826249 0.864847 0.502034 0.001244
4 0 1 2 3
4 4 5 6 7
