ply
format ascii 1.0
comment Created by Blender 3.6.2 - www.blender.org
element vertex 20
property float x
property float y
property float z
property float s
property float t
element face 10
property list uchar uint vertex_indices
end_header
1.084170 1.070749 1.237898 1.023271 0.091107
0.685971 1.070749 1.927595 -0.029712 0.088630
0.685971 1.598592 1.927595 -0.031353 0.917532
1.084170 1.598592 1.237898 1.021629 0.920010
1.084170 1.070749 1.237898 -0.029279 -0.129505
1.084170 1.598592 1.237898 0.668628 -0.127863
1.124268 1.598592 1.261049 0.668772 -0.200572
1.124268 1.070749 1.261049 -0.029135 -0.202214
1.084170 1.070749 1.237898 -0.029568 0.015918
1.124268 1.070749 1.261049 -0.029711 0.088627
0.726071 1.070749 1.950746 1.023270 0.091107
0.685971 1.070749 1.927595 1.023415 0.018395
0.685971 1.598592 1.927595 -0.029424 -0.056793
0.685971 1.070749 1.927595 0.668484 -0.055152
0.726071 1.070749 1.950746 0.668628 -0.127863
0.726071 1.598592 1.950746 -0.029279 -0.129505
0.685971 1.598592 1.927595 -0.029424 -0.056794
0.726071 1.598592 1.950746 -0.029567 0.015918
1.124268 1.598592 1.261049 1.023414 0.018393
1.084170 1.598592 1.237898 1.023558 -0.054316
3 0 1 2
3 2 3 0
3 4 5 6
3 6 7 4
3 8 9 10
3 10 11 8
3 12 13 14
3 14 15 12
3 16 17 18
3 18 19 16
