ply
format ascii 1.0
comment Created by Blender 3.6.2 - www.blender.org
element vertex 102
property float x
property float y
property float z
property float s
property float t
element face 76
property list uchar uint vertex_indices
end_header
0.413233 -0.100000 0.745249 -46.850399 22.440901
-0.776767 -0.100000 0.745249 0.000000 22.440901
-0.776767 -0.100000 0.175249 0.000000 0.000000
0.413233 -0.100000 0.175249 -46.850399 0.000000
0.413233 -0.090000 0.185249 0.393701 0.393701
0.413233 -0.100000 0.745249 22.440901 0.000000
0.413233 -0.100000 0.175249 0.000000 0.000000
0.413233 0.000000 0.175249 0.000000 3.937010
0.413233 -0.010000 0.185249 0.393701 3.543310
0.413233 -0.000000 0.745249 22.440901 3.937010
0.413233 -0.010000 0.735249 22.047199 3.543310
0.403233 -0.010000 0.185249 -46.456699 0.393701
0.413233 -0.010000 0.185249 -46.850399 0.393701
0.413233 -0.010000 0.735249 -46.850399 22.047199
0.403233 -0.010000 0.735249 -46.456699 22.047199
0.403233 -0.010000 0.185249 0.393701 3.543310
0.403233 -0.010000 0.735249 22.047199 3.543310
0.403233 -0.090000 0.735249 22.047199 0.393701
0.403233 -0.090000 0.185249 0.393701 0.393701
0.403233 -0.090000 0.175249 0.000000 0.393701
0.403233 -0.090000 0.185249 -0.393701 0.393701
0.403233 -0.010000 0.185249 -0.393701 3.543310
0.403233 -0.010000 0.175249 0.000000 3.543310
0.403233 -0.090000 0.175249 46.456699 0.393701
0.403233 -0.010000 0.175249 46.456699 3.543310
0.413233 0.000000 0.175249 46.850399 3.937010
0.413233 -0.100000 0.175249 46.850399 0.000000
-0.766767 -0.090000 0.175249 0.393701 0.393701
-0.776767 0.000000 0.175249 0.000000 3.937010
-0.766767 -0.010000 0.175249 0.393701 3.543310
-0.766767 -0.090000 0.185249 0.393701 0.393701
-0.766767 -0.090000 0.175249 0.000000 0.393701
-0.766767 -0.010000 0.175249 0.000000 3.543310
-0.766767 -0.010000 0.185249 0.393701 3.543310
-0.766767 -0.010000 0.735249 -22.047199 3.543310
-0.766767 -0.010000 0.185249 -0.393701 3.543310
-0.766767 -0.090000 0.185249 -0.393701 0.393701
-0.766767 -0.090000 0.735249 -22.047199 0.393701
-0.766767 -0.010000 0.735249 0.393701 3.543310
-0.766767 -0.090000 0.735249 0.393701 0.393701
-0.776767 -0.090000 0.735249 0.000000 0.393701
-0.776767 -0.010000 0.735249 0.000000 3.543310
-0.766767 -0.010000 0.735249 -0.393701 22.047199
-0.776767 -0.010000 0.735249 0.000000 22.047199
-0.776767 -0.010000 0.185249 0.000000 0.393701
-0.766767 -0.010000 0.185249 -0.393701 0.393701
-0.776767 -0.010000 0.185249 0.000000 3.543310
-0.776767 -0.090000 0.185249 0.000000 0.393701
-0.776767 -0.090000 0.735249 0.000000 22.047199
-0.766767 -0.090000 0.735249 0.393701 22.047199
-0.776767 -0.100000 0.745249 -22.440901 0.000000
-0.776767 -0.090000 0.735249 -22.047199 0.393701
-0.776767 -0.090000 0.185249 -0.393701 0.393701
-0.776767 -0.010000 0.185249 -0.393701 3.543310
-0.776767 -0.000000 0.745249 -22.440901 3.937010
0.413233 0.000000 0.175249 46.850399 0.000000
-0.776767 0.000000 0.175249 0.000000 0.000000
-0.776767 -0.000000 0.745249 0.000000 22.440901
0.413233 -0.000000 0.745249 46.850399 22.440901
0.413233 -0.000000 0.745249 -46.850399 3.937010
-0.776767 -0.000000 0.745249 0.000000 3.937010
0.403233 -0.010000 0.745249 -46.456699 3.543310
0.403233 -0.090000 0.745249 -46.456699 0.393701
0.413233 -0.100000 0.745249 -46.850399 0.000000
-0.766767 -0.090000 0.745249 -0.393701 0.393701
-0.776767 -0.100000 0.745249 0.000000 0.000000
-0.776767 -0.010000 0.735249 -22.047199 3.543310
-0.766767 -0.010000 0.745249 -0.393701 3.543310
0.403233 -0.010000 0.745249 -46.456699 22.440901
-0.766767 -0.010000 0.745249 -0.393701 22.440901
0.403233 -0.010000 0.745249 -22.440901 3.543310
0.403233 -0.010000 0.735249 -22.047199 3.543310
0.403233 -0.090000 0.735249 -22.047199 0.393701
0.403233 -0.090000 0.745249 -22.440901 0.393701
-0.766767 -0.090000 0.745249 0.393701 22.440901
0.403233 -0.090000 0.745249 46.456699 22.440901
0.403233 -0.090000 0.735249 46.456699 22.047199
-0.766767 -0.090000 0.745249 22.440901 0.393701
-0.766767 -0.090000 0.735249 22.047199 0.393701
-0.766767 -0.010000 0.735249 22.047199 3.543310
-0.766767 -0.010000 0.745249 22.440901 3.543310
-0.766767 -0.010000 0.735249 -0.393701 3.543310
-0.766767 -0.090000 0.735249 -0.393701 0.393701
0.403233 -0.090000 0.735249 -46.456699 0.393701
0.403233 -0.010000 0.735249 -46.456699 3.543310
0.403233 -0.090000 0.735249 46.456699 0.393701
0.403233 -0.010000 0.735249 46.456699 3.543310
0.413233 -0.010000 0.735249 46.850399 3.543310
0.413233 -0.090000 0.735249 46.850399 0.393701
0.413233 -0.090000 0.735249 46.850399 22.047199
0.413233 -0.090000 0.185249 46.850399 0.393701
0.403233 -0.090000 0.185249 46.456699 0.393701
0.403233 -0.010000 0.185249 -46.456699 3.543310
0.403233 -0.090000 0.185249 -46.456699 0.393701
0.413233 -0.090000 0.185249 -46.850399 0.393701
0.413233 -0.010000 0.185249 -46.850399 3.543310
0.403233 -0.010000 0.185249 46.456699 3.543310
-0.766767 -0.010000 0.175249 -0.393701 0.000000
0.403233 -0.010000 0.175249 -46.456699 0.000000
0.403233 -0.090000 0.175249 46.456699 0.000000
-0.766767 -0.090000 0.175249 0.393701 0.000000
0.413233 -0.090000 0.735249 22.047199 0.393701
3 0 1 2
3 2 3 0
3 4 5 6
3 6 7 4
3 8 4 7
3 7 9 8
3 9 10 8
3 11 12 13
3 13 14 11
3 15 16 17
3 17 18 15
3 19 20 21
3 21 22 19
3 23 24 25
3 23 25 26
3 26 2 23
3 27 23 2
3 2 28 27
3 28 29 27
3 30 31 32
3 32 33 30
3 34 35 36
3 36 37 34
3 38 39 40
3 40 41 38
3 42 43 44
3 44 45 42
3 36 35 46
3 46 47 36
3 30 47 48
3 48 49 30
3 50 51 52
3 2 50 52
3 52 53 2
3 28 2 53
3 53 54 28
3 55 56 57
3 57 58 55
3 59 60 61
3 59 61 62
3 63 59 62
3 62 64 63
3 65 63 64
3 64 60 65
3 50 54 51
3 66 51 54
3 53 66 54
3 64 67 60
3 67 61 60
3 68 69 42
3 42 14 68
3 70 71 72
3 72 73 70
3 74 75 76
3 76 49 74
3 77 78 79
3 79 80 77
3 81 82 83
3 83 84 81
3 85 86 87
3 87 88 85
3 76 89 90
3 90 91 76
3 92 93 94
3 94 95 92
3 96 91 30
3 30 33 96
3 11 45 97
3 97 98 11
3 24 29 25
3 28 25 29
3 30 91 99
3 99 100 30
3 4 101 5
3 101 10 5
3 9 5 10
