ply
format ascii 1.0
comment Created by Blender 3.6.2 - www.blender.org
element vertex 36
property float x
property float y
property float z
property float s
property float t
element face 22
property list uchar uint vertex_indices
end_header
0.409073 1.770000 1.759712 -160.345001 198.753006
-3.155670 1.770000 -0.298395 -20.000799 117.725998
-1.722560 1.770000 -2.780598 -76.422203 20.000799
1.842180 1.770000 -0.722498 -216.766006 101.028000
0.409073 1.770000 1.759712 -91.952904 87.795303
1.842180 1.770000 -0.722498 20.889900 87.795303
1.842180 1.700000 -0.722498 20.889900 85.039398
0.409073 1.700000 1.759712 -91.952904 85.039398
0.409073 1.770000 1.759712 238.238998 87.795303
0.409073 1.700000 1.759712 238.238998 85.039398
-3.155670 1.700000 -0.298395 76.183998 85.039398
-3.155670 1.770000 -0.298395 76.183998 87.795303
-1.722560 1.770000 -2.780598 -20.889900 87.795303
-3.155670 1.770000 -0.298395 91.952904 87.795303
-3.155670 1.700000 -0.298395 91.952904 85.039398
-1.722560 1.700000 -2.780598 -20.889900 85.039398
-1.722560 1.770000 -2.780598 -76.183998 87.795303
-1.722560 1.700000 -2.780598 -76.183998 85.039398
1.842180 1.700000 -0.722498 -238.238998 85.039398
1.842180 1.770000 -0.722498 -238.238998 87.795303
2.350200 1.700000 -0.858618 -236.766998 95.669296
1.842180 1.700000 -0.722498 -216.766006 101.028000
-1.722560 1.700000 -2.780598 -76.422203 20.000799
-1.858690 1.700000 -3.288618 -71.063004 0.000000
-3.155670 1.700000 -0.298395 -20.000799 117.725998
-3.663690 1.700000 -0.162271 0.000000 123.084999
0.545196 1.700000 2.267732 -165.703995 218.753998
0.409073 1.700000 1.759712 -160.345001 198.753006
0.545196 1.700000 2.267732 -106.594002 85.039398
2.350200 1.700000 -0.858618 35.531502 85.039398
2.350200 -0.460000 -0.858618 35.531502 0.000000
0.545196 -0.460000 2.267732 -106.594002 0.000000
0.545196 1.700000 2.267732 252.880997 85.039398
0.545196 -0.460000 2.267732 252.880997 0.000000
-3.663690 -0.460000 -0.162271 61.542400 0.000000
-3.663690 1.700000 -0.162271 61.542400 85.039398
3 0 1 2
3 2 3 0
3 4 5 6
3 6 7 4
3 8 9 10
3 10 11 8
3 12 13 14
3 14 15 12
3 16 17 18
3 18 19 16
3 20 21 22
3 23 20 22
3 23 22 24
3 24 25 23
3 26 25 24
3 24 27 26
3 27 21 26
3 21 20 26
3 28 29 30
3 30 31 28
3 32 33 34
3 34 35 32
